<svg width="72" height="24" viewBox="0 0 72 24" fill="none" xmlns="http://www.w3.org/2000/svg">
<path d="M5.94506 18.5076C6.6205 19.4866 6.98779 20.3109 7.04692 20.9803C7.10699 21.6603 6.94814 22.2258 6.57035 22.6768C6.20414 23.1374 5.69165 23.3969 5.03288 23.4551C4.37411 23.5133 3.81579 23.3752 3.35793 23.0409C2.91163 22.7162 2.65986 22.2298 2.6026 21.5817C2.59134 21.4542 2.59006 21.1973 2.59877 20.811L2.71271 16.4641C2.01167 15.6801 1.43721 15.0562 0.989332 14.5925C1.30648 14.0612 1.58724 13.7848 1.83162 13.7632C1.9485 13.7529 2.05992 13.8019 2.16587 13.9103C2.28245 14.0178 2.477 14.2202 2.74954 14.5173L2.88212 9.10868C2.90518 8.3999 3.02497 7.81643 3.24149 7.35827C3.53175 6.76509 4.13377 6.42815 5.04755 6.34743C5.69569 6.29017 6.20572 6.42715 6.57764 6.75838C6.94863 7.07898 7.16181 7.55272 7.21719 8.17961C7.29134 9.01901 7.08829 9.87219 6.60805 10.7391C6.13843 11.6052 5.56959 12.3782 4.9015 13.0583L4.84237 16.9345C5.04083 17.1205 5.30475 17.1989 5.63414 17.1698C6.2929 17.1116 6.8157 16.787 7.20253 16.196C7.59905 15.5934 7.91694 14.7676 8.15622 13.7185C8.31248 13.7903 8.47641 13.8883 8.64799 14.0123C8.82926 14.1248 8.93286 14.2067 8.9588 14.2579C8.81861 15.4589 8.47432 16.4103 7.92593 17.1119C7.37755 17.8135 6.71726 18.2788 5.94506 18.5076ZM5.7438 7.68334C5.68974 7.67741 5.63614 7.67679 5.58301 7.68148C5.29613 7.70682 5.1213 7.90966 5.05853 8.28999C4.99575 8.67033 4.95443 9.53599 4.93457 10.887L4.92432 11.4982C5.3399 10.9904 5.66283 10.4639 5.8931 9.91888C6.13305 9.36227 6.23425 8.87146 6.19671 8.44645C6.15823 8.01081 6.00726 7.75644 5.7438 7.68334ZM4.77106 21.0367C4.76513 21.0908 4.76967 21.2028 4.78469 21.3728C4.80065 21.5535 4.86691 21.6975 4.98349 21.805C5.10007 21.9125 5.24336 21.9588 5.41336 21.9437C5.59399 21.9278 5.7468 21.8393 5.87179 21.6784C5.99772 21.528 6.04754 21.3041 6.02126 21.0066C5.97151 20.4435 5.56877 19.7027 4.81302 18.7843L4.77106 21.0367ZM11.567 10.269C12.5446 10.1826 13.3851 10.4242 14.0886 10.9939C14.8028 11.5626 15.1997 12.2985 15.2795 13.2017C15.4006 14.5723 15.094 15.7077 14.3597 16.6078C13.635 17.4964 12.7043 17.9908 11.5674 18.0913C10.4305 18.1917 9.49868 17.9474 8.77203 17.3584C8.05601 16.7685 7.65576 15.9953 7.57128 15.0391C7.45302 13.7003 7.76823 12.6016 8.51692 11.7431C9.2753 10.873 10.292 10.3816 11.567 10.269ZM11.3623 11.5881C10.8629 11.6322 10.4686 11.9562 10.1793 12.56C9.88993 13.1638 9.76781 13.9027 9.8129 14.7768C9.86734 15.3931 10.0346 15.8923 10.3146 16.2745C10.6053 16.6557 11.0057 16.8238 11.5157 16.7787C12.0257 16.7337 12.4258 16.4146 12.7161 15.8214C13.017 15.2273 13.1355 14.569 13.0717 13.8464C13.0078 13.1239 12.835 12.5609 12.553 12.1575C12.2692 11.7328 11.8723 11.543 11.3623 11.5881ZM20.5577 11.5789C20.5164 11.1114 20.2779 10.8969 19.8423 10.9354C19.4173 10.9729 19.1017 11.2792 18.8955 11.8542C20.1228 12.656 20.7862 13.62 20.8857 14.7463C20.9579 15.5645 20.7844 16.2062 20.3651 16.6716C19.9457 17.137 19.3907 17.4002 18.7001 17.4612C18.0094 17.5222 17.486 17.3543 17.1297 16.9574C16.7724 16.5499 16.5647 16.0168 16.5065 15.358C16.4887 15.1562 16.4808 15.0069 16.483 14.9104L16.6114 10C16.9836 9.84936 17.3663 9.75666 17.7594 9.72193C18.4076 9.66468 18.7528 9.87512 18.795 10.3533L18.7978 10.3851C19.1787 9.8482 19.6985 9.55064 20.3573 9.49244C20.8354 9.45021 21.2172 9.52892 21.5025 9.72859C21.7869 9.91763 21.9451 10.1928 21.977 10.554C22.0089 10.9153 21.8971 11.225 21.6415 11.4832C21.3955 11.7298 21.0548 11.8723 20.6191 11.9108C20.5979 11.9127 20.5766 11.9145 20.5554 11.9164C20.5663 11.7977 20.5671 11.6852 20.5577 11.5789ZM19.8427 14.7582C19.7882 14.1419 19.415 13.5538 18.7231 12.9938C18.667 14.5408 18.6394 15.3195 18.6403 15.3302C18.6798 15.7764 18.8801 15.9836 19.2414 15.9517C19.7089 15.9104 19.9093 15.5126 19.8427 14.7582ZM31.8454 8.10818C32.122 7.60188 32.2419 7.14154 32.2053 6.72715C32.1687 6.31277 32.0227 5.99371 31.7674 5.76997C31.512 5.54624 31.1931 5.45127 30.8106 5.48506C30.4281 5.51885 30.1284 5.6417 29.9115 5.8536C29.6937 6.05488 29.6027 6.3574 29.6383 6.76116C29.6731 7.1543 30.0122 7.84179 30.6558 8.82363C31.2993 9.80548 31.7086 10.4386 31.8837 10.723C32.3588 11.4948 32.6296 12.2579 32.6963 13.0123C32.7798 13.958 32.5025 14.7588 31.8645 15.4148C31.2361 16.0593 30.4544 16.4228 29.5193 16.5054C28.5949 16.5871 27.8418 16.3645 27.2598 15.8377C26.6769 15.3002 26.3512 14.6437 26.2827 13.868C26.156 12.4336 26.9385 11.1705 28.6304 10.0787C27.7821 8.71877 27.333 7.75721 27.2833 7.19407C27.2138 6.4078 27.4686 5.71603 28.0476 5.11877C28.6364 4.50993 29.3876 4.16516 30.3014 4.08444C31.2258 4.00278 31.953 4.17412 32.4831 4.59845C33.0131 5.02279 33.3101 5.59622 33.3739 6.31874C33.4161 6.79687 33.3051 7.35816 33.0408 8.00258L31.8454 8.10818ZM28.2188 14.6928C28.5329 14.9756 28.8918 15.0992 29.2956 15.0635C29.71 15.0269 30.0184 14.8819 30.2209 14.6284C30.433 14.3634 30.5185 13.9971 30.4772 13.5296C30.4396 13.1046 30.229 12.5985 29.8451 12.0113C29.7951 11.9301 29.7018 11.7831 29.5652 11.5703C29.4277 11.3468 29.3282 11.1896 29.2666 11.0987C28.131 11.8201 27.6045 12.6483 27.6871 13.5833C27.7293 14.0615 27.9066 14.4313 28.2188 14.6928ZM35.2757 8.15853C35.9663 8.09752 36.3856 8.23717 36.5334 8.57748C37.0018 8.18273 37.6185 7.95156 38.3836 7.88398C39.1486 7.8164 39.835 8.07165 40.4429 8.64974C41.0508 9.22782 41.3919 9.93656 41.466 10.776C41.4763 10.8928 41.4818 11.0155 41.4824 11.1439C41.4885 12.5462 41.1149 13.65 40.3615 14.4554C39.6072 15.2502 38.5712 15.7058 37.2537 15.8222C36.9562 15.8485 36.6288 15.8399 36.2716 15.7965L36.1488 20.2245L34.0609 20.4089C34.2238 14.4943 34.3296 10.4801 34.3785 8.36628C34.5941 8.26157 34.8932 8.19232 35.2757 8.15853ZM39.2286 11.086C39.1873 10.6185 39.0445 10.2135 38.8 9.87104C38.5556 9.52856 38.2103 9.37702 37.764 9.41644C37.1584 9.46995 36.7309 9.90391 36.4816 10.7183C36.408 12.3097 36.3665 13.2342 36.3572 13.492C36.3747 13.8117 36.4968 14.0419 36.7234 14.1825C36.95 14.3231 37.2173 14.3798 37.5254 14.3526C38.0673 14.3047 38.492 14.0209 38.7995 13.5012C39.171 12.858 39.314 12.0529 39.2286 11.086ZM46.1355 7.21525C47.1131 7.1289 47.9536 7.37054 48.6571 7.94018C49.3713 8.50888 49.7682 9.2448 49.848 10.148C49.9691 11.5186 49.6625 12.654 48.9282 13.5541C48.2035 14.4426 47.2728 14.9371 46.1359 15.0376C44.999 15.138 44.0672 14.8937 43.3405 14.3047C42.6245 13.7148 42.2243 12.9416 42.1398 11.9854C42.0215 10.6466 42.3367 9.54791 43.0854 8.68937C43.8438 7.81926 44.8605 7.32789 46.1355 7.21525ZM45.9308 8.53438C45.4314 8.5785 45.0371 8.90246 44.7478 9.50626C44.4584 10.1101 44.3363 10.849 44.3814 11.7231C44.4358 12.3394 44.6031 12.8386 44.8831 13.2208C45.1738 13.602 45.5742 13.7701 46.0842 13.725C46.5942 13.68 46.9943 13.3609 47.2846 12.7677C47.5855 12.1736 47.704 11.5152 47.6402 10.7927C47.5764 10.0702 47.4035 9.50724 47.1216 9.10382C46.8377 8.67914 46.4408 8.48933 45.9308 8.53438ZM55.1262 8.5252C55.0849 8.05769 54.8464 7.84318 54.4108 7.88166C53.9858 7.9192 53.6702 8.2255 53.464 8.80054C54.6913 9.60232 55.3547 10.5663 55.4542 11.6926C55.5265 12.5108 55.3529 13.1525 54.9336 13.6179C54.5142 14.0833 53.9592 14.3465 53.2686 14.4075C52.5779 14.4685 52.0545 14.3006 51.6982 13.9037C51.3409 13.4962 51.1332 12.9631 51.075 12.3043C51.0572 12.1025 51.0494 11.9532 51.0515 11.8567L51.1799 6.94633C51.5521 6.79566 51.9348 6.70296 52.3279 6.66823C52.9761 6.61098 53.3213 6.82142 53.3635 7.29956L53.3663 7.33143C53.7472 6.7945 54.267 6.49694 54.9258 6.43874C55.404 6.3965 55.7857 6.47522 56.071 6.67488C56.3554 6.86392 56.5136 7.13907 56.5455 7.50033C56.5774 7.86159 56.4656 8.1713 56.21 8.42946C55.964 8.67606 55.6233 8.8186 55.1876 8.85708C55.1664 8.85896 55.1451 8.86084 55.1239 8.86272C55.1348 8.74396 55.1356 8.63146 55.1262 8.5252ZM54.4112 11.7045C54.3567 11.0882 53.9835 10.5001 53.2916 9.94013C53.2355 11.4871 53.2079 12.2658 53.2088 12.2765C53.2483 12.7227 53.4486 12.9299 53.8099 12.898C54.2774 12.8567 54.4778 12.4588 54.4112 11.7045ZM60.1075 2.52761C60.1131 2.59136 60.0706 3.74625 59.9799 5.99228L62.3228 5.78531L62.4312 7.01253L59.9289 7.23358L59.9163 7.63625C61.2514 8.56771 61.9734 9.64971 62.0823 10.8822C62.1677 11.8491 61.9795 12.5672 61.5177 13.0363C61.0665 13.5045 60.4955 13.7691 59.8049 13.8301C59.1142 13.8911 58.5936 13.755 58.2429 13.4219C57.8913 13.0782 57.6925 12.646 57.6465 12.1254C57.6362 12.0085 57.6355 11.8801 57.6446 11.7401L57.7642 7.45693L57.6976 7.43069L56.4066 7.54473C56.3866 7.43941 56.3663 7.26988 56.3456 7.03612C56.324 6.79174 56.3507 6.54845 56.4257 6.30624L57.7964 6.18516L57.9234 1.80499C58.1391 1.70028 58.4328 1.63149 58.8047 1.59864C59.6122 1.52731 60.0465 1.83696 60.1075 2.52761ZM61.0131 10.9606C60.9483 10.2275 60.5657 9.53313 59.8653 8.87755C59.8139 10.4776 59.799 11.3998 59.8206 11.6442C59.8628 12.1224 60.038 12.3478 60.3462 12.3206C60.5693 12.3009 60.7463 12.1835 60.8772 11.9685C61.0072 11.7428 61.0525 11.4069 61.0131 10.9606ZM69.1953 7.98911C70.0892 8.53122 70.5732 9.22198 70.6473 10.0614C70.7215 10.9008 70.4517 11.6046 69.838 12.1728C69.2243 12.741 68.418 13.0692 67.4192 13.1574C66.7711 13.2147 66.2151 13.1032 65.7513 12.8229C65.2972 12.5311 65.049 12.1461 65.0068 11.6679C64.9646 11.1898 65.0906 10.7985 65.385 10.4941C65.6784 10.1791 66.0614 9.96856 66.5339 9.86257C66.3389 10.201 66.2546 10.519 66.2808 10.8165C66.3062 11.1034 66.4278 11.3283 66.6456 11.4911C66.8634 11.6539 67.1264 11.7216 67.4346 11.6944C67.7427 11.6672 67.9878 11.5331 68.17 11.2921C68.3512 11.0406 68.4287 10.766 68.4024 10.4685C68.3593 9.97973 68.0923 9.56428 67.6017 9.22213C67.3057 9.0234 66.9899 8.84249 66.6542 8.67939C66.3176 8.50567 66.1382 8.41443 66.1161 8.40569C66.0707 8.37756 66.0259 8.35476 65.9815 8.33726C65.81 8.57729 65.5609 8.90982 65.2344 9.33487C64.9069 9.7493 64.6473 10.0828 64.4554 10.3353C63.9176 11.036 63.6308 11.6075 63.5949 12.0497C63.5812 12.1365 63.5851 12.3022 63.6067 12.5466C63.6273 12.7803 63.718 13.0186 63.8787 13.2614C64.0499 13.5033 64.2421 13.679 64.4553 13.7887C64.6684 13.8984 64.8739 13.982 65.0717 14.0394C65.2811 14.1066 65.4563 14.15 65.5972 14.1697C65.7488 14.1884 65.8251 14.2031 65.826 14.2137C65.8326 14.2881 65.7232 14.3834 65.4979 14.4997C65.0763 14.6976 64.6265 14.8176 64.1484 14.8599C63.6808 14.9012 63.2089 14.7715 62.7326 14.4709C62.0857 14.0569 61.728 13.4621 61.6594 12.6865C61.6172 12.2083 61.6976 11.7247 61.9007 11.2356C62.2631 10.3683 63.1827 9.14132 64.6595 7.55455C64.2316 7.19615 63.998 6.79381 63.9586 6.34755C63.9192 5.90129 64.0505 5.50954 64.3527 5.17231C64.6655 4.83414 65.0503 4.64488 65.5072 4.60452C65.9216 4.56791 66.2974 4.70069 66.6346 5.00285C66.8562 5.20815 66.982 5.48081 67.0121 5.82081C67.0421 6.16082 66.9643 6.55319 66.7787 6.99791C67.9607 7.40749 68.7662 7.73789 69.1953 7.98911ZM65.5777 6.49364C65.8093 6.20548 65.9199 6.00296 65.9095 5.88608C65.8861 5.62045 65.7565 5.48734 65.5209 5.48673C65.2553 5.5102 65.1356 5.67069 65.1619 5.96819C65.1778 6.14882 65.3164 6.32397 65.5777 6.49364Z" fill="#ABCDF1"/>
</svg>
