<svg width="58" height="19" viewBox="0 0 58 19" fill="none" xmlns="http://www.w3.org/2000/svg">
<path d="M0.893333 18V2.92L0.0933333 2.44V1.2L4.37333 0.533333H5.24V18H0.893333ZM12.3766 16.68C12.7677 16.68 13.0655 16.52 13.2699 16.2C13.4832 15.8711 13.5899 15.4222 13.5899 14.8533V10.64C13.5899 8.90667 13.181 8.04 12.3632 8.04C11.981 8.04 11.6832 8.19556 11.4699 8.50667C11.2566 8.81778 11.1499 9.25778 11.1499 9.82667V14.16C11.1499 15.84 11.5588 16.68 12.3766 16.68ZM12.2699 18.28C10.2343 18.28 8.74545 17.8178 7.80323 16.8933C6.86101 15.9689 6.3899 14.4933 6.3899 12.4667C6.3899 10.4578 6.86545 8.94667 7.81656 7.93333C8.76767 6.91111 10.3143 6.4 12.4566 6.4C14.5455 6.4 16.0521 6.88889 16.9766 7.86667C17.9099 8.83556 18.3766 10.3067 18.3766 12.28C18.3766 14.3244 17.8832 15.8356 16.8966 16.8133C15.9188 17.7911 14.3766 18.28 12.2699 18.28ZM22.9491 18.28C21.7491 18.28 20.9091 17.92 20.4291 17.2C19.958 16.48 19.7224 15.2622 19.7224 13.5467V9.01333H18.8024V7.16L20.3757 6.66667L21.7357 3.56H24.0824V6.66667H26.2691V9.01333H24.0424V13.9733C24.0424 14.6844 24.1446 15.1556 24.3491 15.3867C24.5535 15.6178 24.8691 15.7333 25.2957 15.7333C25.4824 15.7333 25.6513 15.7111 25.8024 15.6667C25.9535 15.6222 26.078 15.56 26.1757 15.48V17.2933C26.0424 17.4267 25.8691 17.56 25.6557 17.6933C25.4424 17.8178 25.0868 17.9467 24.5891 18.08C24.1002 18.2133 23.5535 18.28 22.9491 18.28ZM27.4463 18V9.37333L26.6463 8.88V7.45333L29.5129 6.66667H31.7396V18H27.4463ZM29.3796 5.44L27.1929 3.24V2.77333L29.3796 0.586666H29.8862L32.1662 2.77333V3.24L29.8862 5.44H29.3796ZM38.9391 16.68C39.3302 16.68 39.628 16.52 39.8324 16.2C40.0457 15.8711 40.1524 15.4222 40.1524 14.8533V10.64C40.1524 8.90667 39.7435 8.04 38.9257 8.04C38.5435 8.04 38.2457 8.19556 38.0324 8.50667C37.8191 8.81778 37.7124 9.25778 37.7124 9.82667V14.16C37.7124 15.84 38.1213 16.68 38.9391 16.68ZM38.8324 18.28C36.7968 18.28 35.308 17.8178 34.3657 16.8933C33.4235 15.9689 32.9524 14.4933 32.9524 12.4667C32.9524 10.4578 33.428 8.94667 34.3791 7.93333C35.3302 6.91111 36.8768 6.4 39.0191 6.4C41.108 6.4 42.6146 6.88889 43.5391 7.86667C44.4724 8.83556 44.9391 10.3067 44.9391 12.28C44.9391 14.3244 44.4457 15.8356 43.4591 16.8133C42.4813 17.7911 40.9391 18.28 38.8324 18.28ZM50.6982 18H46.3916V9.37333L45.5916 8.88V7.45333L48.4582 6.66667H50.7249V8.38667L50.8849 8.18667C50.9916 8.04444 51.1471 7.87556 51.3516 7.68C51.5649 7.48444 51.8005 7.29333 52.0582 7.10667C52.316 6.91111 52.6227 6.74667 52.9782 6.61333C53.3427 6.47111 53.6982 6.4 54.0449 6.4C55.2627 6.4 56.1205 6.73333 56.6182 7.4C57.1249 8.06667 57.3782 9.18222 57.3782 10.7467C57.3782 10.8 57.3782 10.88 57.3782 10.9867C57.3693 11.0933 57.3649 11.1778 57.3649 11.24V18H52.9649V10.8533C52.9916 10.0178 52.636 9.6 51.8982 9.6C51.8449 9.6 51.7916 9.60444 51.7382 9.61333C51.6938 9.62222 51.6493 9.63111 51.6049 9.64C51.5693 9.64889 51.5249 9.66667 51.4716 9.69333C51.4271 9.71111 51.3871 9.72889 51.3516 9.74667C51.316 9.75556 51.276 9.77778 51.2316 9.81333C51.1871 9.84 51.1516 9.86222 51.1249 9.88C51.0982 9.89778 51.0582 9.92889 51.0049 9.97333C50.9605 10.0089 50.9249 10.0356 50.8982 10.0533C50.8805 10.0711 50.8449 10.1022 50.7916 10.1467C50.7471 10.1822 50.716 10.2089 50.6982 10.2267V18Z" fill="black"/>
</svg>
