<svg width="232" height="76" viewBox="0 0 232 76" fill="none" xmlns="http://www.w3.org/2000/svg">
<path opacity="0.8" d="M0 52H232V76H0L2 71L0 65L2 59L0 52Z" fill="#41DBA4"/>
<rect x="218" y="52" width="14" height="24" fill="#41DBA4"/>
<path d="M185.936 58.8932H186.936V57.8932V33.4796C187.039 33.3927 187.133 33.312 187.208 33.2428C187.31 33.1708 187.422 33.0842 187.542 32.9887L187.549 32.9825L187.557 32.9761C187.724 32.8367 187.818 32.7665 187.856 32.7412C187.922 32.6968 188.021 32.6348 188.157 32.5533L188.214 32.5187L188.267 32.4767C188.285 32.4621 188.3 32.4514 188.311 32.4438C188.312 32.4429 188.314 32.442 188.315 32.4411L188.375 32.426L188.473 32.377C188.558 32.3347 188.66 32.2889 188.782 32.2403L188.82 32.2249L188.857 32.2063C188.924 32.1732 188.976 32.1497 189.016 32.1337C189.036 32.1258 189.051 32.1203 189.062 32.1165L189.068 32.1148L189.442 32.0399C189.555 32.022 189.665 32.0132 189.776 32.0132C190.77 32.0132 191.319 32.289 191.638 32.664C191.98 33.0652 192.228 33.7775 192.189 34.992L192.189 35.0079V35.0239V57.8932V58.8932H193.189H207.269H208.269V57.8932V36.2612C208.269 36.1026 208.281 35.8639 208.308 35.5336L208.312 35.4921V35.4505V35.4485V35.4465V35.4445V35.4425V35.4406V35.4386V35.4366V35.4346V35.4326V35.4306V35.4286V35.4267V35.4247V35.4227V35.4207V35.4188V35.4168V35.4148V35.4129V35.4109V35.409V35.407V35.405V35.4031V35.4011V35.3992V35.3972V35.3953V35.3933V35.3914V35.3895V35.3875V35.3856V35.3837V35.3817V35.3798V35.3779V35.3759V35.374V35.3721V35.3702V35.3682V35.3663V35.3644V35.3625V35.3606V35.3587V35.3568V35.3549V35.353V35.3511V35.3492V35.3473V35.3454V35.3435V35.3416V35.3397V35.3378V35.3359V35.334V35.3322V35.3303V35.3284V35.3265V35.3247V35.3228V35.3209V35.319V35.3172V35.3153V35.3134V35.3116V35.3097V35.3079V35.306V35.3042V35.3023V35.3005V35.2986V35.2968V35.2949V35.2931V35.2913V35.2894V35.2876V35.2858V35.2839V35.2821V35.2803V35.2784V35.2766V35.2748V35.273V35.2712V35.2693V35.2675V35.2657V35.2639V35.2621V35.2603V35.2585V35.2567V35.2549V35.2531V35.2513V35.2495V35.2477V35.2459V35.2441V35.2423V35.2406V35.2388V35.237V35.2352V35.2334V35.2317V35.2299V35.2281V35.2264V35.2246V35.2228V35.2211V35.2193V35.2175V35.2158V35.214V35.2123V35.2105V35.2088V35.207V35.2053V35.2035V35.2018V35.2001V35.1983V35.1966V35.1949V35.1931V35.1914V35.1897V35.1879V35.1862V35.1845V35.1828V35.1811V35.1793V35.1776V35.1759V35.1742V35.1725V35.1708V35.1691V35.1674V35.1657V35.164V35.1623V35.1606V35.1589V35.1572V35.1555V35.1538V35.1522V35.1505V35.1488V35.1471V35.1454V35.1438V35.1421V35.1404V35.1388V35.1371V35.1354V35.1338V35.1321V35.1304V35.1288V35.1271V35.1255V35.1238V35.1222V35.1205V35.1189V35.1172V35.1156V35.1139V35.1123V35.1107V35.109V35.1074V35.1058V35.1042V35.1025V35.1009V35.0993V35.0977V35.096V35.0944V35.0928V35.0912V35.0896V35.088V35.0864V35.0848V35.0832V35.0816V35.08V35.0784V35.0768V35.0752V35.0736V35.072V35.0704V35.0688V35.0672V35.0657V35.0641V35.0625V35.0609V35.0594V35.0578V35.0562V35.0547V35.0531V35.0515V35.05V35.0484V35.0468V35.0453V35.0437V35.0422V35.0406V35.0391V35.0375V35.036V35.0345V35.0329V35.0314V35.0298V35.0283V35.0268V35.0252V35.0237V35.0222V35.0207V35.0191V35.0176V35.0161V35.0146V35.0131V35.0116V35.0101V35.0085V35.007V35.0055V35.004V35.0025V35.001V34.9995V34.998V34.9965V34.9951V34.9936V34.9921V34.9906V34.9891V34.9876V34.9861V34.9847V34.9832V34.9817V34.9802V34.9788V34.9773V34.9758V34.9744V34.9729V34.9715V34.97V34.9685V34.9671V34.9656V34.9642V34.9627V34.9613V34.9598V34.9584V34.957V34.9555V34.9541V34.9527V34.9512V34.9498V34.9484V34.9469V34.9455V34.9441V34.9427V34.9412V34.9398V34.9384V34.937V34.9356V34.9342V34.9328V34.9314V34.93V34.9286V34.9272V34.9258V34.9244V34.923V34.9216V34.9202V34.9188V34.9174V34.916V34.9147V34.9133V34.9119V34.9105V34.9092V34.9078V34.9064V34.905V34.9037V34.9023V34.9009V34.8996V34.8982V34.8969V34.8955V34.8942V34.8928V34.8915V34.8901V34.8888V34.8874V34.8861V34.8848V34.8834V34.8821V34.8807V34.8794V34.8781V34.8768V34.8754V34.8741V34.8728V34.8715V34.8702V34.8688V34.8675V34.8662V34.8649V34.8636V34.8623V34.861V34.8597V34.8584V34.8571V34.8558V34.8545V34.8532V34.8519V34.8506V34.8493V34.8481V34.8468V34.8455V34.8442V34.8429V34.8417V34.8404V34.8391V34.8379V34.8366V34.8353V34.8341V34.8328V34.8315V34.8303V34.829V34.8278V34.8265V34.8253V34.824V34.8228V34.8215V34.8203V34.8191V34.8178V34.8166V34.8154V34.8141V34.8129V34.8117V34.8104V34.8092V34.808V34.8068V34.8056V34.8043V34.8031V34.8019V34.8007V34.7995V34.7983V34.7971V34.7959V34.7947V34.7935V34.7923V34.7911V34.7899V34.7887V34.7875V34.7863V34.7852V34.784V34.7828V34.7816V34.7804V34.7793V34.7781V34.7769V34.7757V34.7746V34.7734V34.7723V34.7711V34.7699V34.7688V34.7676V34.7665V34.7653V34.7642V34.763V34.7619V34.7607V34.7596V34.7584V34.7573V34.7562V34.755V34.7539V34.7528V34.7517V34.7505V34.7494V34.7483V34.7472V34.746V34.7449V34.7438V34.7427V34.7416V34.7405V34.7394V34.7383V34.7372V34.7361V34.735V34.7339V34.7328V34.7317V34.7306V34.7295V34.7284V34.7273V34.7262V34.7252V34.7241V34.723V34.7219V34.7209V34.7198V34.7187V34.7177V34.7166V34.7155V34.7145V34.7134V34.7123V34.7113V34.7102V34.7092V34.7081V34.7071V34.706V34.705V34.704V34.7029V34.7019V34.7008V34.6998V34.6988V34.6977V34.6967V34.6957V34.6947V34.6936V34.6926V34.6916V34.6906V34.6896V34.6886V34.6875V34.6865V34.6855V34.6845V34.6835V34.6825C208.312 29.6245 207.503 25.7756 205.678 23.3715C203.82 20.886 200.702 19.7732 196.645 19.7732C195.398 19.7732 194.139 20.0289 192.874 20.5219C191.668 20.9749 190.603 21.5418 189.692 22.231C188.843 22.8467 188.062 23.4802 187.351 24.132L187.343 24.1392L187.335 24.1466C187.227 24.25 187.122 24.3519 187.021 24.4521V21.6265V20.6265H186.021H178.768H178.633L178.503 20.6622L169.33 23.1795L168.594 23.3813V24.1439V28.7092V29.2674L169.069 29.5604L171.154 30.846V57.8932V58.8932H172.154H185.936Z" fill="white" stroke="black" stroke-width="2"/>
<path d="M150.326 51.589L150.326 51.589L150.322 51.5948C149.858 52.3209 149.229 52.6692 148.306 52.6692C147.833 52.6692 147.462 52.5508 147.154 52.3401C146.839 52.1242 146.532 51.771 146.261 51.2155C145.707 50.0771 145.381 48.2441 145.381 45.6052V31.7385C145.381 30.0236 145.706 28.8443 146.23 28.0801C146.723 27.3607 147.365 27.0212 148.264 27.0212C148.73 27.0212 149.097 27.1412 149.404 27.3579C149.72 27.5811 150.03 27.9484 150.303 28.5279C150.862 29.713 151.189 31.6148 151.189 34.3412V47.8239C151.189 49.5337 150.866 50.7562 150.326 51.589ZM132.971 55.0657C136.253 58.2856 141.328 59.7892 147.965 59.7892C154.834 59.7892 160.081 58.1982 163.476 54.8045C166.895 51.4148 168.506 46.2716 168.506 39.5892C168.506 33.1376 166.982 28.1341 163.75 24.776C160.52 21.3624 155.37 19.7732 148.562 19.7732C141.577 19.7732 136.297 21.4367 132.984 24.9971C129.703 28.4935 128.149 33.6173 128.149 40.1865C128.149 46.7992 129.683 51.8394 132.971 55.0657Z" fill="white" stroke="black" stroke-width="2"/>
<path d="M110.529 57.8933V58.8933H111.529H125.268H126.268V57.8933V21.6267V20.6267H125.268H118.143H118.008L117.878 20.6623L108.705 23.1796L107.969 23.3814V24.144V28.7093V29.2675L108.444 29.5605L110.529 30.8462V57.8933ZM117.007 18.4063L117.3 18.7013H117.716H119.337H119.741L120.032 18.4209L127.328 11.3809L127.633 11.086V10.6613V9.16799V8.74148L127.325 8.44626L120.029 1.44893L119.739 1.17065H119.337H117.716H117.302L117.009 1.46355L110.011 8.46088L109.719 8.75377V9.16799V10.6613V11.0738L110.009 11.3663L117.007 18.4063Z" fill="white" stroke="black" stroke-width="2"/>
<path d="M88.2377 55.8808L88.2377 55.8809L88.2424 55.888C90.0305 58.5701 93.1053 59.7893 97.1385 59.7893C99.144 59.7893 100.983 59.5683 102.647 59.1148C104.253 58.6845 105.499 58.2449 106.304 57.7757L106.317 57.7681L106.33 57.76C107.057 57.3056 107.676 56.8336 108.171 56.3391L108.464 56.0462V55.632V49.8293V47.7191L106.831 49.0553C106.643 49.2086 106.373 49.3538 105.987 49.4673C105.61 49.5781 105.167 49.64 104.648 49.64C103.455 49.64 102.768 49.3203 102.367 48.8681C102.2 48.679 102.006 48.3053 101.86 47.6333C101.717 46.9735 101.637 46.1047 101.637 45.008V30.136H107.762H108.762V29.136V21.6266V20.6266H107.762H101.765V11.6853V10.6853H100.765H93.2558H92.602L92.3397 11.2843L88.1703 20.8086L83.5699 22.2511L82.8691 22.4709V23.2053V29.136V30.136H83.8691H85.8131V43.6426C85.8131 49.1672 86.561 53.3184 88.2377 55.8808Z" fill="white" stroke="black" stroke-width="2"/>
<path d="M65.326 51.589L65.3259 51.589L65.3222 51.5948C64.8583 52.3209 64.2289 52.6692 63.3063 52.6692C62.8326 52.6692 62.4616 52.5508 62.1539 52.3401C61.8386 52.1242 61.5318 51.771 61.2614 51.2155C60.7072 50.0771 60.3809 48.2441 60.3809 45.6052V31.7385C60.3809 30.0236 60.7056 28.8443 61.2297 28.0801C61.7229 27.3607 62.365 27.0212 63.2636 27.0212C63.7305 27.0212 64.0971 27.1412 64.4039 27.3579C64.7198 27.5811 65.0298 27.9484 65.3032 28.5279C65.8623 29.713 66.1889 31.6148 66.1889 34.3412V47.8239C66.1889 49.5337 65.8662 50.7562 65.326 51.589ZM47.9713 55.0657C51.2531 58.2856 56.3276 59.7892 62.9649 59.7892C69.8341 59.7892 75.0811 58.1982 78.4759 54.8045C81.8951 51.4148 83.5063 46.2716 83.5063 39.5892C83.5063 33.1376 81.9824 28.1341 78.7496 24.776C75.5197 21.3624 70.37 19.7732 63.5623 19.7732C56.5774 19.7732 51.2975 21.4367 47.9836 24.9971C44.7029 28.4935 43.1489 33.6173 43.1489 40.1865C43.1489 46.7992 44.6829 51.8394 47.9713 55.0657Z" fill="white" stroke="black" stroke-width="2"/>
<path d="M25.56 57.8933V58.8933H26.56H40.4693H41.4693V57.8933V2V1H40.4693H37.696H37.6186L37.5421 1.01191L23.8461 3.14525L23 3.27704V4.13334V8.10133V8.66752L23.4855 8.95883L25.56 10.2035V57.8933Z" fill="white" stroke="black" stroke-width="2"/>
</svg>
