<svg width="17" height="16" viewBox="0 0 17 16" fill="none" xmlns="http://www.w3.org/2000/svg">
<mask id="path-1-inside-1_191_125" fill="white">
<path d="M5.73892 2.66675C5.09834 2.66671 4.47212 2.8609 3.93948 3.22475C3.40684 3.58861 2.99169 4.10578 2.74655 4.71088C2.5014 5.31598 2.43726 5.98181 2.56224 6.62418C2.68723 7.26654 2.99572 7.85659 3.4487 8.31969L8.23458 13.2129C8.27185 13.2511 8.31613 13.2814 8.36487 13.3021C8.41362 13.3228 8.46588 13.3334 8.51865 13.3334C8.57143 13.3334 8.62369 13.3228 8.67243 13.3021C8.72118 13.2814 8.76545 13.2511 8.80272 13.2129L13.5886 8.31887C14.1796 7.69453 14.5069 6.85774 14.4999 5.98893C14.4929 5.12013 14.1523 4.28893 13.5514 3.67457C12.9505 3.06021 12.1375 2.71192 11.2878 2.70481C10.438 2.69769 9.6196 3.03232 9.00896 3.63653L8.51865 4.13701L8.02915 3.63653C7.72829 3.32895 7.37111 3.08499 6.978 2.91859C6.5849 2.75219 6.16439 2.66662 5.73892 2.66675Z"/>
</mask>
<path d="M5.73892 2.66675L5.73884 4.16675L5.73939 4.16675L5.73892 2.66675ZM3.4487 8.31969L4.52105 7.27086L4.52101 7.27081L3.4487 8.31969ZM8.23458 13.2129L9.30826 12.1654L9.30694 12.1641L8.23458 13.2129ZM8.80272 13.2129L7.73028 12.1641L7.72904 12.1654L8.80272 13.2129ZM13.5886 8.31887L14.661 9.36762L14.6696 9.35888L14.678 9.35001L13.5886 8.31887ZM9.00896 3.63653L7.95393 2.57026L7.94563 2.57848L7.93746 2.58682L9.00896 3.63653ZM8.51865 4.13701L7.4463 5.18584L8.51778 6.28135L9.59015 5.18672L8.51865 4.13701ZM8.02915 3.63653L9.10151 2.58769L9.10146 2.58765L8.02915 3.63653ZM5.73901 1.16675C4.79424 1.16669 3.87349 1.45326 3.09338 1.98616L4.78558 4.46335C5.07076 4.26854 5.40243 4.16673 5.73884 4.16675L5.73901 1.16675ZM3.09338 1.98616C2.31369 2.51878 1.71095 3.27229 1.35631 4.14764L4.13678 5.27412C4.27244 4.93928 4.49999 4.65844 4.78558 4.46335L3.09338 1.98616ZM1.35631 4.14764C1.00178 5.02272 0.909517 5.98379 1.08985 6.91066L4.03463 6.3377C3.965 5.97983 4.00102 5.60924 4.13678 5.27412L1.35631 4.14764ZM1.08985 6.91066C1.27022 7.83767 1.7162 8.69363 2.37639 9.36857L4.52101 7.27081C4.27524 7.01955 4.10423 6.69542 4.03463 6.3377L1.08985 6.91066ZM2.37634 9.36853L7.16223 14.2617L9.30694 12.1641L4.52105 7.27086L2.37634 9.36853ZM7.1609 14.2604C7.33594 14.4398 7.54569 14.584 7.77903 14.683L8.95072 11.9212C9.08657 11.9789 9.20776 12.0624 9.30826 12.1654L7.1609 14.2604ZM7.77903 14.683C8.01245 14.782 8.26389 14.8334 8.51865 14.8334V11.8334C8.66786 11.8334 8.81479 11.8636 8.95072 11.9212L7.77903 14.683ZM8.51865 14.8334C8.77341 14.8334 9.02486 14.782 9.25828 14.683L8.08659 11.9212C8.22252 11.8636 8.36944 11.8334 8.51865 11.8334V14.8334ZM9.25828 14.683C9.49162 14.584 9.70137 14.4398 9.8764 14.2604L7.72904 12.1654C7.82954 12.0624 7.95074 11.9789 8.08659 11.9212L9.25828 14.683ZM9.87517 14.2616L14.661 9.36762L12.5162 7.27013L7.73028 12.1642L9.87517 14.2616ZM14.678 9.35001C15.5386 8.44075 16.0099 7.22882 15.9998 5.97692L12.9999 6.00095C13.0038 6.48666 12.8205 6.94832 12.4992 7.28773L14.678 9.35001ZM15.9998 5.97692C15.9898 4.725 15.4992 3.52081 14.6238 2.62574L12.479 4.72341C12.8054 5.05705 12.996 5.51526 12.9999 6.00095L15.9998 5.97692ZM14.6238 2.62574C13.7473 1.72958 12.5544 1.21536 11.3004 1.20486L11.2752 4.20475C11.7207 4.20849 12.1538 4.39084 12.479 4.72341L14.6238 2.62574ZM11.3004 1.20486C10.0463 1.19436 8.84502 1.68856 7.95393 2.57026L10.064 4.70279C10.3942 4.37607 10.8298 4.20102 11.2752 4.20475L11.3004 1.20486ZM7.93746 2.58682L7.44716 3.08729L9.59015 5.18672L10.0805 4.68624L7.93746 2.58682ZM9.59101 3.08817L9.10151 2.58769L6.9568 4.68536L7.4463 5.18584L9.59101 3.08817ZM9.10146 2.58765C8.66282 2.13921 8.14025 1.78171 7.56272 1.53725L6.39329 4.29993C6.60196 4.38826 6.79376 4.51868 6.95684 4.68541L9.10146 2.58765ZM7.56272 1.53725C6.98546 1.2929 6.36603 1.16655 5.73846 1.16675L5.73939 4.16675C5.96274 4.16668 6.18434 4.21149 6.39329 4.29993L7.56272 1.53725Z" fill="#737373" mask="url(#path-1-inside-1_191_125)"/>
</svg>
