<svg width="17" height="16" viewBox="0 0 17 16" fill="none" xmlns="http://www.w3.org/2000/svg">
<path d="M13.8179 5.89259L13.8179 5.89274C14.1184 6.56747 14.2706 7.28508 14.2668 8.02442C14.2629 8.75976 14.1081 9.47245 13.8038 10.1425C13.5111 10.7894 13.0921 11.3692 12.5604 11.8648C12.0328 12.3583 11.4084 12.75 10.7223 13.0182L10.7222 13.0182C10.0186 13.2931 9.27137 13.4334 8.50143 13.4334H8.47487H8.47441C7.58913 13.4293 6.71658 13.2339 5.92401 12.862H4.02254C3.8436 12.862 3.67085 12.7951 3.54258 12.6744C3.41411 12.5535 3.3407 12.3881 3.3407 12.2144V10.4298C2.94577 9.68307 2.7379 8.86056 2.73357 8.02561L13.8179 5.89259ZM13.8179 5.89259C13.5265 5.24098 13.1089 4.65641 12.5772 4.15477M13.8179 5.89259L12.5772 4.15477M8.4744 2.56675L8.47487 2.56675L8.50016 2.56675C9.27391 2.56675 10.025 2.7083 10.7326 2.98799L8.4744 2.56675ZM8.4744 2.56675C7.69564 2.57038 6.94064 2.71555 6.2304 3.00134L8.4744 2.56675ZM12.5772 4.15477C12.049 3.65584 11.4223 3.25954 10.7327 2.98804L12.5772 4.15477ZM6.18293 11.7572H4.502V10.181V10.1546L4.48891 10.1316L4.43209 10.0318C4.43207 10.0317 4.43205 10.0317 4.43203 10.0316C4.08378 9.41674 3.89857 8.72048 3.89486 8.01983C3.88994 6.86127 4.36003 5.77318 5.22471 4.95237L5.22476 4.95232C6.08838 4.13134 7.24362 3.67622 8.48011 3.67151H8.50143C9.12154 3.67151 9.7225 3.78471 10.2886 4.00855L10.2887 4.00858C10.8412 4.22661 11.3363 4.54005 11.762 4.94076C12.1865 5.34029 12.5201 5.80684 12.7511 6.3253L12.7511 6.32535C12.9907 6.86237 13.1105 7.43167 13.108 8.0199C13.1005 9.17718 12.6181 10.2618 11.7472 11.0745C10.8797 11.8829 9.72799 12.3287 8.50016 12.3287H8.47872C7.73117 12.3251 6.9889 12.15 6.33402 11.8214L6.22795 11.7679L6.20671 11.7572H6.18293ZM7.79303 8.00008C7.79303 8.18018 7.8691 8.35158 8.00232 8.47696C8.13533 8.60215 8.31451 8.67151 8.50016 8.67151C8.68582 8.67151 8.865 8.60215 8.99801 8.47696C9.13123 8.35158 9.2073 8.18018 9.2073 8.00008C9.2073 7.81998 9.13123 7.64859 8.99801 7.5232C8.865 7.39801 8.68582 7.32865 8.50016 7.32865C8.31451 7.32865 8.13533 7.39801 8.00232 7.5232C7.8691 7.64859 7.79303 7.81998 7.79303 8.00008ZM10.3228 8.00008C10.3228 8.18018 10.3988 8.35158 10.532 8.47696C10.6651 8.60215 10.8442 8.67151 11.0299 8.67151C11.2155 8.67151 11.3947 8.60215 11.5277 8.47696C11.661 8.35158 11.737 8.18018 11.737 8.00008C11.737 7.81998 11.661 7.64859 11.5277 7.5232C11.3947 7.39801 11.2155 7.32865 11.0299 7.32865C10.8442 7.32865 10.6651 7.39801 10.532 7.5232C10.3988 7.64859 10.3228 7.81998 10.3228 8.00008ZM5.2633 8.00008C5.2633 8.18018 5.33937 8.35158 5.47259 8.47696C5.6056 8.60215 5.78478 8.67151 5.97043 8.67151C6.15609 8.67151 6.33527 8.60215 6.46828 8.47696C6.6015 8.35158 6.67757 8.18018 6.67757 8.00008C6.67757 7.81998 6.6015 7.64859 6.46828 7.5232C6.33527 7.39801 6.15609 7.32865 5.97043 7.32865C5.78478 7.32865 5.6056 7.39801 5.47259 7.5232C5.33937 7.64859 5.2633 7.81998 5.2633 8.00008ZM6.23035 3.00136C5.54667 3.27564 4.92586 3.67264 4.40264 4.17049C3.8761 4.67092 3.46225 5.25315 3.17592 5.90258C2.87935 6.57491 2.7297 7.29002 2.73357 8.0256L6.23035 3.00136Z" fill="#737373" stroke="#737373" stroke-width="0.2"/>
</svg>
