<svg width="17" height="16" viewBox="0 0 17 16" fill="none" xmlns="http://www.w3.org/2000/svg">
<path d="M2.46331 9.11799C2.01003 8.43343 2.01003 7.56641 2.46331 6.88185C3.37748 5.50124 5.31939 3.33325 8.50016 3.33325C11.6809 3.33325 13.6228 5.50124 14.537 6.88185C14.9903 7.56641 14.9903 8.43343 14.537 9.11799C13.6228 10.4986 11.6809 12.6666 8.50016 12.6666C5.31939 12.6666 3.37748 10.4986 2.46331 9.11799Z" stroke="#737373" stroke-width="1.33333" stroke-linecap="round" stroke-linejoin="round"/>
<path d="M8.5 10C9.60457 10 10.5 9.10457 10.5 8C10.5 6.89543 9.60457 6 8.5 6C7.39543 6 6.5 6.89543 6.5 8C6.5 9.10457 7.39543 10 8.5 10Z" stroke="#737373" stroke-width="1.33333" stroke-linecap="round" stroke-linejoin="round"/>
</svg>
