<svg width="33" height="32" viewBox="0 0 33 32" fill="none" xmlns="http://www.w3.org/2000/svg">
<rect x="0.5" width="32" height="32" rx="16" fill="#EBEBEB"/>
<path d="M24.1347 19.2592H22.5914V16.1678L22.3047 15.991V15.4798L23.332 15.1979H24.1442V15.8142L24.2016 15.7426C24.2398 15.6916 24.2955 15.6311 24.3688 15.561C24.4452 15.4909 24.5297 15.4224 24.622 15.3555C24.7144 15.2855 24.8243 15.2265 24.9517 15.1787C25.0823 15.1278 25.2097 15.1023 25.334 15.1023C25.7704 15.1023 26.0777 15.2217 26.2561 15.4606C26.4377 15.6995 26.5285 16.0993 26.5285 16.6599C26.5285 16.679 26.5285 16.7077 26.5285 16.7459C26.5253 16.7842 26.5237 16.8144 26.5237 16.8367V19.2592H24.9469V16.6982C24.9565 16.3987 24.8291 16.249 24.5647 16.249C24.5456 16.249 24.5265 16.2506 24.5074 16.2538C24.4914 16.257 24.4755 16.2602 24.4596 16.2634C24.4468 16.2665 24.4309 16.2729 24.4118 16.2825C24.3959 16.2888 24.3815 16.2952 24.3688 16.3016C24.3561 16.3048 24.3417 16.3127 24.3258 16.3255C24.3099 16.335 24.2971 16.343 24.2876 16.3494C24.278 16.3557 24.2637 16.3669 24.2446 16.3828C24.2286 16.3955 24.2159 16.4051 24.2063 16.4115C24.2 16.4178 24.1872 16.429 24.1681 16.4449C24.1522 16.4577 24.141 16.4672 24.1347 16.4736V19.2592Z" fill="#C3C3C3"/>
<path d="M19.9207 18.7862C20.0609 18.7862 20.1676 18.7288 20.2409 18.6141C20.3173 18.4963 20.3555 18.3354 20.3555 18.1316V16.6217C20.3555 16.0006 20.209 15.69 19.9159 15.69C19.779 15.69 19.6723 15.7457 19.5958 15.8572C19.5194 15.9687 19.4811 16.1264 19.4811 16.3302V17.8831C19.4811 18.4851 19.6277 18.7862 19.9207 18.7862ZM19.8825 19.3595C19.1531 19.3595 18.6195 19.1939 18.2819 18.8626C17.9442 18.5313 17.7754 18.0026 17.7754 17.2763C17.7754 16.5564 17.9458 16.0149 18.2866 15.6518C18.6275 15.2855 19.1817 15.1023 19.9494 15.1023C20.698 15.1023 21.2379 15.2775 21.5691 15.6279C21.9036 15.9751 22.0708 16.5023 22.0708 17.2094C22.0708 17.942 21.8941 18.4835 21.5405 18.8339C21.1901 19.1843 20.6374 19.3595 19.8825 19.3595Z" fill="#C3C3C3"/>
<path d="M15.8023 19.2592V16.1678L15.5156 15.991V15.4797L16.5429 15.1978H17.3408V19.2592H15.8023ZM16.4951 14.7582L15.7115 13.9699V13.8026L16.4951 13.019H16.6767L17.4937 13.8026V13.9699L16.6767 14.7582H16.4951Z" fill="#C3C3C3"/>
<path d="M14.1906 19.3594C13.7605 19.3594 13.4595 19.2304 13.2875 18.9724C13.1187 18.7144 13.0343 18.278 13.0343 17.6632V16.0387H12.7046V15.3745L13.2684 15.1978L13.7558 14.0845H14.5967V15.1978H15.3803V16.0387H14.5824V17.8161C14.5824 18.0709 14.619 18.2398 14.6922 18.3226C14.7655 18.4054 14.8786 18.4468 15.0315 18.4468C15.0984 18.4468 15.1589 18.4389 15.2131 18.4229C15.2672 18.407 15.3118 18.3847 15.3468 18.356V19.0058C15.2991 19.0536 15.2369 19.1014 15.1605 19.1492C15.084 19.1938 14.9566 19.24 14.7783 19.2877C14.6031 19.3355 14.4072 19.3594 14.1906 19.3594Z" fill="#C3C3C3"/>
<path d="M10.4017 18.7862C10.5418 18.7862 10.6485 18.7288 10.7218 18.6141C10.7983 18.4963 10.8365 18.3354 10.8365 18.1316V16.6217C10.8365 16.0006 10.69 15.69 10.3969 15.69C10.2599 15.69 10.1532 15.7457 10.0768 15.8572C10.0003 15.9687 9.9621 16.1264 9.9621 16.3302V17.8831C9.9621 18.4851 10.1086 18.7862 10.4017 18.7862ZM10.3635 19.3595C9.63401 19.3595 9.10047 19.1939 8.76282 18.8626C8.42517 18.5313 8.25635 18.0026 8.25635 17.2763C8.25635 16.5564 8.42676 16.0149 8.7676 15.6518C9.10843 15.2855 9.66268 15.1023 10.4304 15.1023C11.1789 15.1023 11.7188 15.2775 12.0501 15.6279C12.3846 15.9751 12.5518 16.5023 12.5518 17.2094C12.5518 17.942 12.375 18.4835 12.0214 18.8339C11.671 19.1843 11.1184 19.3595 10.3635 19.3595Z" fill="#C3C3C3"/>
<path d="M6.28668 19.2592V13.8553L6 13.6833V13.2389L7.53375 13H7.84432V19.2592H6.28668Z" fill="#C3C3C3"/>
</svg>
