<svg width="16" height="17" viewBox="0 0 16 17" fill="none" xmlns="http://www.w3.org/2000/svg">
<g clip-path="url(#clip0_168_1619)">
<path d="M15.3298 12.1882C14.8961 11.4528 14.2515 9.37192 14.2515 6.65411C14.2515 5.02194 13.5929 3.45662 12.4206 2.3025C11.2483 1.14838 9.65828 0.5 8.00039 0.5C6.3425 0.5 4.75251 1.14838 3.58021 2.3025C2.4079 3.45662 1.74931 5.02194 1.74931 6.65411C1.74931 9.37269 1.10389 11.4528 0.670218 12.1882C0.559472 12.3752 0.500762 12.5876 0.500007 12.804C0.499253 13.0204 0.55648 13.2332 0.665919 13.4209C0.775358 13.6086 0.933138 13.7646 1.12335 13.8731C1.31356 13.9817 1.52947 14.0389 1.74931 14.039H4.93814C5.08236 14.7338 5.46591 15.3582 6.0239 15.8066C6.5819 16.2551 7.28009 16.5 8.00039 16.5C8.72069 16.5 9.41888 16.2551 9.97688 15.8066C10.5349 15.3582 10.9184 14.7338 11.0626 14.039H14.2515C14.4712 14.0388 14.6871 13.9814 14.8772 13.8729C15.0673 13.7643 15.2249 13.6083 15.3343 13.4206C15.4436 13.2329 15.5008 13.0202 15.5 12.8038C15.4992 12.5874 15.4405 12.3751 15.3298 12.1882Z" fill="#333333"/>
</g>
<defs>
<clipPath id="clip0_168_1619">
<rect width="15" height="16" fill="white" transform="translate(0.5 0.5)"/>
</clipPath>
</defs>
</svg>
