<svg width="16" height="17" viewBox="0 0 16 17" fill="none" xmlns="http://www.w3.org/2000/svg">
<g clip-path="url(#clip0_168_1615)">
<path d="M15.9998 8.03933V16.5H8.01182C6.45115 16.4993 4.92477 16.042 3.6207 15.1847C2.31663 14.3273 1.29182 13.1072 0.672493 11.6746C0.0531698 10.2421 -0.133616 8.65971 0.135142 7.12235C0.4039 5.58499 1.11646 4.15981 2.18507 3.02236C3.25367 1.88491 4.63164 1.08486 6.14925 0.720759C7.66685 0.356657 9.25782 0.444403 10.7262 0.97319C12.1945 1.50198 13.4762 2.44871 14.4132 3.69678C15.3502 4.94485 15.9018 6.43974 15.9998 7.99733V8.03933ZM8.66649 5.16667H4.66649V6.5H8.66649V5.16667ZM11.3332 7.83333H4.66649V9.16667H11.3332V7.83333ZM11.3332 10.5H4.66649V11.8333H11.3332V10.5Z" fill="#333333"/>
</g>
<defs>
<clipPath id="clip0_168_1615">
<rect width="16" height="16" fill="white" transform="translate(0 0.5)"/>
</clipPath>
</defs>
</svg>
