<svg width="16" height="17" viewBox="0 0 16 17" fill="none" xmlns="http://www.w3.org/2000/svg">
<g clip-path="url(#clip0_168_1604)">
<path d="M12.6668 6.116V5.16666C12.6668 2.58934 10.5775 0.5 8.00015 0.5C5.42281 0.5 3.3335 2.58934 3.3335 5.16666V6.116C2.12018 6.64553 1.33525 7.84284 1.3335 9.16666V13.1667C1.33568 15.0067 2.82678 16.4978 4.66681 16.5H11.3335C13.1735 16.4978 14.6646 15.0067 14.6668 13.1667V9.16666C14.6651 7.84284 13.8801 6.64553 12.6668 6.116ZM8.66681 11.8333C8.66681 12.2015 8.36834 12.5 8.00015 12.5C7.63197 12.5 7.3335 12.2015 7.3335 11.8333V10.5C7.3335 10.1318 7.63197 9.83334 8.00015 9.83334C8.36834 9.83334 8.66681 10.1318 8.66681 10.5V11.8333ZM11.3335 5.83334H4.66681V5.16669C4.66681 3.32575 6.15918 1.83334 8.00015 1.83334C9.84112 1.83334 11.3335 3.32572 11.3335 5.16669V5.83334Z" fill="#333333"/>
</g>
<defs>
<clipPath id="clip0_168_1604">
<rect width="16" height="16" fill="white" transform="translate(0 0.5)"/>
</clipPath>
</defs>
</svg>
