<svg width="16" height="17" viewBox="0 0 16 17" fill="none" xmlns="http://www.w3.org/2000/svg">
<g clip-path="url(#clip0_168_1599)">
<path d="M15.3333 11.1667C15.2301 11.1667 15.1284 11.1427 15.036 11.0967L13.7027 10.43C13.5444 10.351 13.4241 10.2123 13.368 10.0445C13.312 9.87674 13.325 9.69358 13.404 9.53533C13.483 9.37709 13.6217 9.25672 13.7895 9.20071C13.9573 9.1447 14.1404 9.15763 14.2987 9.23667L15.632 9.90333C15.7666 9.9704 15.8745 10.081 15.9383 10.2172C16.0021 10.3533 16.018 10.5071 15.9834 10.6534C15.9488 10.7997 15.8658 10.93 15.7478 11.0232C15.6297 11.1164 15.4837 11.167 15.3333 11.1667ZM14.298 5.1L15.6313 4.43333C15.7896 4.3543 15.9099 4.21564 15.966 4.04786C16.022 3.88007 16.009 3.69691 15.93 3.53867C15.851 3.38042 15.7123 3.26005 15.5445 3.20404C15.3767 3.14803 15.1936 3.16097 15.0353 3.24L13.702 3.90667C13.5438 3.9857 13.4234 4.12436 13.3674 4.29214C13.3114 4.45993 13.3243 4.64309 13.4033 4.80133C13.4824 4.95958 13.621 5.07995 13.7888 5.13596C13.9566 5.19197 14.1398 5.17903 14.298 5.1ZM16 7.16667C16 6.98986 15.9298 6.82029 15.8047 6.69526C15.6797 6.57024 15.5101 6.5 15.3333 6.5H14C13.8232 6.5 13.6536 6.57024 13.5286 6.69526C13.4036 6.82029 13.3333 6.98986 13.3333 7.16667C13.3333 7.34348 13.4036 7.51305 13.5286 7.63807C13.6536 7.7631 13.8232 7.83333 14 7.83333H15.3333C15.5101 7.83333 15.6797 7.7631 15.8047 7.63807C15.9298 7.51305 16 7.34348 16 7.16667ZM12 13.1667V1.16667C12 0.989856 11.9298 0.820286 11.8047 0.695262C11.6797 0.570238 11.5101 0.5 11.3333 0.5C11.1565 0.5 10.987 0.570238 10.8619 0.695262C10.7369 0.820286 10.6667 0.989856 10.6667 1.16667C10.6667 3.13267 8.94467 3.83333 7.33333 3.83333H2.66667C1.95942 3.83333 1.28115 4.11428 0.781049 4.61438C0.280952 5.11448 0 5.79276 0 6.5L0 7.83333C0 8.54058 0.280952 9.21885 0.781049 9.71895C1.28115 10.219 1.95942 10.5 2.66667 10.5H7.33333C8.94467 10.5 10.6667 11.2007 10.6667 13.1667C10.6667 13.3435 10.7369 13.513 10.8619 13.6381C10.987 13.7631 11.1565 13.8333 11.3333 13.8333C11.5101 13.8333 11.6797 13.7631 11.8047 13.6381C11.9298 13.513 12 13.3435 12 13.1667ZM5.45733 11.8333H2.66667C2.35628 11.8321 2.04708 11.7947 1.74533 11.722L3.412 15.4433C3.55198 15.7579 3.78012 16.0251 4.06882 16.2126C4.35753 16.4001 4.6944 16.5 5.03867 16.5C5.31257 16.4996 5.58202 16.4307 5.82248 16.2996C6.06293 16.1684 6.26673 15.9791 6.41532 15.749C6.5639 15.5189 6.65254 15.2553 6.67315 14.9822C6.69376 14.7091 6.6457 14.4351 6.53333 14.1853L5.45733 11.8333Z" fill="#333333"/>
</g>
<defs>
<clipPath id="clip0_168_1599">
<rect width="16" height="16" fill="white" transform="translate(0 0.5)"/>
</clipPath>
</defs>
</svg>
