<svg width="16" height="17" viewBox="0 0 16 17" fill="none" xmlns="http://www.w3.org/2000/svg">
<g clip-path="url(#clip0_177_29764)">
<path d="M10.6667 3.16667H5.33333C2.39267 3.16667 0 5.55933 0 8.5C0 11.4407 2.39267 13.8333 5.33333 13.8333H10.6667C13.6073 13.8333 16 11.4407 16 8.5C16 5.55933 13.6073 3.16667 10.6667 3.16667ZM10.6667 11.8333C8.82867 11.8333 7.33333 10.3387 7.33333 8.5C7.33333 6.66133 8.82867 5.16667 10.6667 5.16667C12.5047 5.16667 14 6.66133 14 8.5C14 10.3387 12.5047 11.8333 10.6667 11.8333Z" fill="#333333"/>
</g>
<defs>
<clipPath id="clip0_177_29764">
<rect width="16" height="16" fill="white" transform="translate(0 0.5)"/>
</clipPath>
</defs>
</svg>
