<svg width="16" height="17" viewBox="0 0 16 17" fill="none" xmlns="http://www.w3.org/2000/svg">
<g clip-path="url(#clip0_168_1629)">
<path d="M13.9998 14.8333V16.4999H1.99978V14.8333C1.99978 13.1793 3.34578 11.8333 4.99978 11.8333H10.9998C12.6538 11.8333 13.9998 13.1793 13.9998 14.8333ZM4.58111 3.18461C5.60045 2.22927 6.93511 1.75727 8.33445 1.84394C10.9504 2.01327 13.0004 4.28994 13.0004 7.02661C13.0004 8.20661 12.0411 9.16594 10.8611 9.16594H9.25711C9.09445 8.61327 8.58911 8.20661 7.98378 8.20661C7.24711 8.20661 6.65045 8.80327 6.65045 9.53994C6.65045 10.2766 7.24711 10.8733 7.98378 10.8733C8.34245 10.8733 8.66711 10.7299 8.90645 10.4993H10.8611C12.7758 10.4993 14.3338 8.94127 14.3338 7.02661C14.3331 3.58927 11.7358 0.72794 8.41978 0.51394C6.64378 0.398606 4.95911 1.00194 3.66911 2.21261C2.47778 3.32927 1.76178 4.87661 1.67578 6.50061H3.01111C3.09311 5.23194 3.64311 4.06394 4.58111 3.18461ZM10.0664 7.83327H10.9784C11.3124 7.83327 11.6044 7.58794 11.6431 7.25594C11.6884 6.86461 11.6718 6.45461 11.5824 6.03527C11.2864 4.64927 10.1618 3.53127 8.77378 3.24594C6.41578 2.76127 4.33445 4.55927 4.33445 6.83327C4.33445 7.81261 4.72045 8.70327 5.34778 9.36127C5.42111 7.95394 6.57512 6.83261 8.00045 6.83261C8.83912 6.83261 9.57778 7.22727 10.0664 7.83261V7.83327Z" fill="#333333"/>
</g>
<defs>
<clipPath id="clip0_168_1629">
<rect width="16" height="16" fill="white" transform="translate(0 0.5)"/>
</clipPath>
</defs>
</svg>
