<svg width="72" height="56" viewBox="0 0 72 56" fill="none" xmlns="http://www.w3.org/2000/svg">
<path d="M33 20.75C30.66 20.75 26 21.92 26 24.25V26H40V24.25C40 21.92 35.34 20.75 33 20.75ZM28.34 24C29.18 23.42 31.21 22.75 33 22.75C34.79 22.75 36.82 23.42 37.66 24H28.34ZM33 19C34.93 19 36.5 17.43 36.5 15.5C36.5 13.57 34.93 12 33 12C31.07 12 29.5 13.57 29.5 15.5C29.5 17.43 31.07 19 33 19ZM33 14C33.83 14 34.5 14.67 34.5 15.5C34.5 16.33 33.83 17 33 17C32.17 17 31.5 16.33 31.5 15.5C31.5 14.67 32.17 14 33 14ZM40.04 20.81C41.2 21.65 42 22.77 42 24.25V26H46V24.25C46 22.23 42.5 21.08 40.04 20.81ZM39 19C40.93 19 42.5 17.43 42.5 15.5C42.5 13.57 40.93 12 39 12C38.46 12 37.96 12.13 37.5 12.35C38.13 13.24 38.5 14.33 38.5 15.5C38.5 16.67 38.13 17.76 37.5 18.65C37.96 18.87 38.46 19 39 19Z" fill="#333333"/>
<path d="M21 37.5625C20.9941 40.6562 19.9863 43.4102 16.2539 45.3086L15.6328 44.4648C17.4727 43.5273 18.6094 42.3965 19.248 41.0605L15.8438 41.3828L15.668 40.4219L19.5879 40.1758C19.752 39.6367 19.8516 39.0625 19.8926 38.4648H16.207V37.5625H21ZM20.9766 41.5703V40.6562H23.2852V36.4961H24.3867V46.9961H23.2852V41.5703H20.9766ZM35.6133 42.4961V43.4102H33.2578V47.0547H32.1445V43.4102H29.5078V47.0547H28.3945V43.4102H26.0039V42.4961H35.6133ZM27.2109 41.1836V37.0469H34.4062V41.1836H27.2109ZM28.3008 40.293H33.293V37.9375H28.3008V40.293ZM45.1055 36.4961V46.9961H43.9922V36.4961H45.1055ZM37.0312 44.3242V37.5156H38.1328V43.3633C39.668 43.3574 41.2793 43.2227 42.9609 42.8828L43.1133 43.8203C41.2559 44.2012 39.5684 44.3301 37.9102 44.3242H37.0312ZM52.5938 37.4219V38.3359H48.5039V40.3633H52.1953V41.2539H48.5039V43.6094C50.3379 43.5977 51.668 43.5332 53.2266 43.2812L53.3438 44.1836C51.6797 44.4531 50.2383 44.5059 48.2578 44.5117H47.4023V37.4219H52.5938ZM54.3633 46.9961V36.4961H55.4883V46.9961H54.3633Z" fill="#333333"/>
</svg>
