<svg width="72" height="56" viewBox="0 0 72 56" fill="none" xmlns="http://www.w3.org/2000/svg">
<path d="M40 18C41.66 18 42.99 16.66 42.99 15C42.99 13.34 41.66 12 40 12C38.34 12 37 13.34 37 15C37 16.66 38.34 18 40 18ZM32 18C33.66 18 34.99 16.66 34.99 15C34.99 13.34 33.66 12 32 12C30.34 12 29 13.34 29 15C29 16.66 30.34 18 32 18ZM32 20C29.67 20 25 21.17 25 23.5V26H39V23.5C39 21.17 34.33 20 32 20ZM40 20C39.71 20 39.38 20.02 39.03 20.05C40.19 20.89 41 22.02 41 23.5V26H47V23.5C47 21.17 42.33 20 40 20Z" fill="#2F8CED"/>
<path d="M21.0469 37.4336C21.043 38.6211 20.9062 39.6895 20.6367 40.6387C20.3711 41.584 19.8906 42.4648 19.1953 43.2812C18.5039 44.0938 17.543 44.8203 16.3125 45.4609L15.4922 44.3359C16.3281 43.8984 17.0176 43.4297 17.5605 42.9297C18.1074 42.4258 18.5371 41.875 18.8496 41.2773L15.75 41.5586L15.5508 40.293L19.3125 40.0703C19.4297 39.6406 19.5098 39.1602 19.5527 38.6289H16.125V37.4336H21.0469ZM21.0234 40.5156H23.0742V36.4141H24.5625V47.0781H23.0742V41.7344H21.0234V40.5156ZM35.6953 43.5625H33.4922V47.1016H31.9922V43.5625H29.6953V47.1016H28.1953V43.5625H25.9336V42.3672H35.6953V43.5625ZM27.082 36.918H34.5234V41.2188H27.082V36.918ZM33.0352 40.0234V38.1016H28.5586V40.0234H33.0352ZM45.2812 47.0781H43.793V36.4141H45.2812V47.0781ZM36.8906 37.4336H38.3672V43.1699C39.9492 43.1426 41.4688 42.9883 42.9258 42.707L43.1133 43.9375C41.4805 44.2812 39.7188 44.4492 37.8281 44.4414H36.8906V37.4336ZM52.6992 38.5117H48.75V40.2695H52.2539V41.4414H48.75V43.457C49.625 43.4492 50.4043 43.4238 51.0879 43.3809C51.7715 43.3379 52.4688 43.2617 53.1797 43.1523L53.3203 44.3594C52.5352 44.4727 51.75 44.5508 50.9648 44.5938C50.1797 44.6328 49.2539 44.6523 48.1875 44.6523H47.2734V37.293H52.6992V38.5117ZM54.1406 36.4141H55.6523V47.0781H54.1406V36.4141Z" fill="#2F8CED"/>
</svg>
