<svg width="72" height="56" viewBox="0 0 72 56" fill="none" xmlns="http://www.w3.org/2000/svg">
<path d="M44.6499 16.3749L43.2499 14.9749L43.9999 14.1999L40.7999 10.9999L40.0249 11.7499L38.5999 10.3249L39.3499 9.54994C39.7332 9.16661 40.2082 8.97894 40.7749 8.98694C41.3416 8.99494 41.8166 9.19094 42.1999 9.57494L45.4249 12.7999C45.8082 13.1833 45.9999 13.6539 45.9999 14.2119C45.9999 14.7699 45.8082 15.2409 45.4249 15.6249L44.6499 16.3749ZM32.6499 28.3999C32.2666 28.7833 31.7956 28.9749 31.2369 28.9749C30.6782 28.9749 30.2079 28.7833 29.8259 28.3999L26.5999 25.1749C26.2166 24.7916 26.0249 24.3206 26.0249 23.7619C26.0249 23.2033 26.2166 22.7326 26.5999 22.3499L27.3499 21.5999L28.7749 23.0249L27.9999 23.7749L31.2249 26.9999L31.9749 26.2249L33.3999 27.6499L32.6499 28.3999ZM42.5749 19.9999L43.9999 18.5749L36.4249 10.9999L34.9999 12.4249L42.5749 19.9999ZM35.5749 26.9999L36.9999 25.5499L29.4499 17.9999L27.9999 19.4249L35.5749 26.9999ZM35.4249 21.1499L38.1749 18.4249L36.5749 16.8249L33.8499 19.5749L35.4249 21.1499ZM36.9999 28.3999C36.6166 28.7833 36.1416 28.9749 35.5749 28.9749C35.0082 28.9749 34.5332 28.7833 34.1499 28.3999L26.5999 20.8499C26.2166 20.4666 26.0249 19.9916 26.0249 19.4249C26.0249 18.8583 26.2166 18.3833 26.5999 17.9999L28.0249 16.5749C28.4082 16.1916 28.8789 15.9999 29.4369 15.9999C29.9949 15.9999 30.4659 16.1916 30.8499 16.5749L32.4249 18.1499L35.1749 15.3999L33.5999 13.8499C33.2166 13.4666 33.0249 12.9916 33.0249 12.4249C33.0249 11.8583 33.2166 11.3833 33.5999 10.9999L35.0249 9.57494C35.4082 9.19161 35.8792 8.99994 36.4379 8.99994C36.9966 8.99994 37.4672 9.19161 37.8499 9.57494L45.4249 17.1499C45.8082 17.5333 45.9999 18.0039 45.9999 18.5619C45.9999 19.1199 45.8082 19.5909 45.4249 19.9749L43.9999 21.3999C43.6166 21.7833 43.1416 21.9749 42.5749 21.9749C42.0082 21.9749 41.5332 21.7833 41.1499 21.3999L39.5999 19.8249L36.8499 22.5749L38.4249 24.1499C38.8082 24.5333 38.9999 25.0043 38.9999 25.5629C38.9999 26.1216 38.8082 26.5923 38.4249 26.9749L36.9999 28.3999Z" fill="#333333"/>
<path d="M18.7852 39.7188C18.7852 41.3711 19.5527 43.0527 21 43.832L20.3789 44.6523C19.3594 44.1133 18.6562 43.1113 18.2754 41.9219C17.9004 43.1934 17.1973 44.2891 16.1836 44.8984L15.5273 44.0547C16.9805 43.2109 17.7305 41.4121 17.7422 39.7188V39.2969H15.8438V38.3828H17.7422V36.8711H18.7852V38.3828H20.6484V39.2969H18.7852V39.7188ZM19.957 41.5117V40.5859H21.4688V36.7188H22.5234V46.4688H21.4688V41.5117H19.957ZM23.5898 46.9961V36.4961H24.6562V46.9961H23.5898ZM35.5898 41.5V42.4023H33.1172V43.6211H34.418V46.9961H33.293V44.5H27.082V43.6211H28.4648V42.4023H26.0156V41.5H35.5898ZM27.0469 38.7578C27.041 37.4863 28.5 36.7246 30.7969 36.7305C33.0879 36.7246 34.541 37.4863 34.5469 38.7578C34.541 40.0234 33.0879 40.791 30.7969 40.7852C28.5 40.791 27.041 40.0234 27.0469 38.7578ZM28.1953 38.7578C28.1895 39.4902 29.1797 39.918 30.7969 39.918C32.4023 39.918 33.4043 39.4902 33.3984 38.7578C33.4043 38.0312 32.4023 37.6035 30.7969 37.6094C29.1797 37.6035 28.1895 38.0312 28.1953 38.7578ZM29.5781 43.6211H32.0273V42.4023H29.5781V43.6211ZM40.2422 39.168C40.2305 41.084 41.3906 43.0176 43.0195 43.7383L42.3516 44.6172C41.1445 44.043 40.1895 42.8652 39.6973 41.4297C39.2109 42.9707 38.2441 44.2363 36.9844 44.8516L36.3047 43.9141C37.957 43.1816 39.1172 41.1719 39.1172 39.168V37.375H40.2422V39.168ZM43.9688 47.0195V36.4961H45.082V47.0195H43.9688ZM55.5117 36.4961V41.8984H54.3984V39.2031H52.1836V38.3008H54.3984V36.4961H55.5117ZM46.7227 41.0547C48.3633 40.5332 49.3418 39.2266 49.3477 37.75V36.8359H50.4492V37.75C50.4492 39.0859 51.4102 40.3281 52.9922 40.832L52.4062 41.6992C51.252 41.3008 50.3789 40.5098 49.916 39.5078C49.459 40.6387 48.5625 41.5176 47.3203 41.9453L46.7227 41.0547ZM48.6445 43.2695V42.3906H55.5117V45.0039H49.7578V45.9766H55.875V46.8672H48.668V44.1602H54.4102V43.2695H48.6445Z" fill="#333333"/>
</svg>
