<svg width="72" height="56" viewBox="0 0 72 56" fill="none" xmlns="http://www.w3.org/2000/svg">
<path d="M44.9749 16.0249L38.9249 9.97494L39.3499 9.54994C39.7332 9.16661 40.2082 8.97894 40.7749 8.98694C41.3416 8.99494 41.8166 9.19094 42.1999 9.57494L45.4249 12.7999C45.8082 13.1833 45.9999 13.6543 45.9999 14.2129C45.9999 14.7716 45.8082 15.2423 45.4249 15.6249L44.9749 16.0249ZM32.6499 28.3999C32.2666 28.7833 31.7956 28.9749 31.2369 28.9749C30.6782 28.9749 30.2079 28.7833 29.8259 28.3999L26.5999 25.1749C26.2166 24.7916 26.0249 24.3206 26.0249 23.7619C26.0249 23.2033 26.2166 22.7326 26.5999 22.3499L26.9999 21.9499L33.0499 27.9999L32.6499 28.3999ZM36.2749 27.6999C36.0749 27.8999 35.8416 27.9999 35.5749 27.9999C35.3082 27.9999 35.0749 27.8999 34.8749 27.6999L27.2999 20.1249C27.0999 19.9249 26.9999 19.6916 26.9999 19.4249C26.9999 19.1583 27.0999 18.9249 27.2999 18.7249L28.7249 17.2749C28.9249 17.0749 29.1626 16.9749 29.4379 16.9749C29.7132 16.9749 29.9506 17.0749 30.1499 17.2749L31.7249 18.8499L35.8749 14.6999L34.2999 13.1249C34.0999 12.9249 33.9999 12.6916 33.9999 12.4249C33.9999 12.1583 34.0999 11.9249 34.2999 11.7249L35.7249 10.2749C35.9249 10.0749 36.1626 9.97494 36.4379 9.97494C36.7132 9.97494 36.9506 10.0749 37.1499 10.2749L44.7249 17.8499C44.9249 18.0499 45.0249 18.2876 45.0249 18.5629C45.0249 18.8383 44.9249 19.0756 44.7249 19.2749L43.2749 20.6999C43.0749 20.8999 42.8416 20.9999 42.5749 20.9999C42.3082 20.9999 42.0749 20.8999 41.8749 20.6999L40.2999 19.1249L36.1499 23.2749L37.7249 24.8499C37.9249 25.0499 38.0249 25.2873 38.0249 25.5619C38.0249 25.8366 37.9249 26.0743 37.7249 26.2749L36.2749 27.6999Z" fill="#2F8CED"/>
<path d="M18.9023 39.6602C18.9023 40.5352 19.0723 41.334 19.4121 42.0566C19.752 42.7754 20.2812 43.3281 21 43.7148L20.1797 44.8047C19.7148 44.5664 19.3184 44.2441 18.9902 43.8379C18.6621 43.4277 18.4004 42.9531 18.2051 42.4141C18.0137 43.0039 17.7539 43.5254 17.4258 43.9785C17.0977 44.4277 16.6992 44.7891 16.2305 45.0625L15.375 43.9375C16.0977 43.5195 16.6289 42.9277 16.9688 42.1621C17.3125 41.3965 17.4883 40.5625 17.4961 39.6602V39.4141H15.7734V38.2188H17.4961V36.7773H18.8906V38.2188H20.5781V39.4141H18.9023V39.6602ZM19.957 40.457H21.2109V36.5898H22.6172V46.5859H21.2109V41.6758H19.957V40.457ZM23.3789 36.4141H24.7969V47.0781H23.3789V36.4141ZM35.6719 42.5781H33.3281V43.5742H34.4883V47.0781H33V44.7461H27.0234V43.5742H28.2422V42.5781H25.9453V41.3945H35.6719V42.5781ZM26.918 38.7227C26.918 38.293 27.0762 37.9199 27.3926 37.6035C27.7129 37.2871 28.166 37.0449 28.752 36.877C29.3418 36.709 30.0273 36.625 30.8086 36.625C31.5859 36.625 32.2656 36.709 32.8477 36.877C33.4336 37.0449 33.8867 37.2871 34.207 37.6035C34.5273 37.9199 34.6875 38.293 34.6875 38.7227C34.6875 39.1523 34.5273 39.5273 34.207 39.8477C33.8867 40.1641 33.4336 40.4082 32.8477 40.5801C32.2656 40.748 31.5859 40.832 30.8086 40.832C30.0273 40.832 29.3418 40.748 28.752 40.5801C28.166 40.4082 27.7129 40.1641 27.3926 39.8477C27.0762 39.5273 26.918 39.1523 26.918 38.7227ZM28.4766 38.7227C28.4727 39.0352 28.6699 39.2715 29.0684 39.4316C29.4707 39.5918 30.0508 39.6719 30.8086 39.6719C31.5547 39.6719 32.1289 39.5918 32.5312 39.4316C32.9375 39.2715 33.1406 39.0352 33.1406 38.7227C33.1406 38.4219 32.9414 38.1914 32.543 38.0312C32.1445 37.8672 31.5801 37.7852 30.8496 37.7852C30.0801 37.7852 29.4902 37.8652 29.0801 38.0254C28.6738 38.1816 28.4727 38.4141 28.4766 38.7227ZM31.8516 43.5742V42.5781H29.7539V43.5742H31.8516ZM40.4648 38.8281C40.4609 39.4961 40.5605 40.1406 40.7637 40.7617C40.9668 41.3828 41.2715 41.9355 41.6777 42.4199C42.084 42.9043 42.5781 43.2695 43.1602 43.5156L42.2812 44.7109C41.6875 44.4414 41.1758 44.0547 40.7461 43.5508C40.3203 43.0469 39.9824 42.4551 39.7324 41.7754C39.4863 42.5176 39.1406 43.1641 38.6953 43.7148C38.25 44.2617 37.7109 44.6797 37.0781 44.9688L36.1758 43.7266C36.7773 43.4727 37.2852 43.0957 37.6992 42.5957C38.1172 42.0918 38.4297 41.5156 38.6367 40.8672C38.8438 40.2148 38.9492 39.5352 38.9531 38.8281V37.2344H40.4648V38.8281ZM43.7344 36.4141H45.2461V47.1016H43.7344V36.4141ZM55.6758 41.8398H54.1875V39.1914H52.1836V38.0078H54.1875V36.4141H55.6758V41.8398ZM46.6055 40.7383C47.1758 40.5703 47.6523 40.3242 48.0352 40C48.418 39.6758 48.7012 39.3027 48.8848 38.8809C49.0723 38.459 49.168 38.0117 49.1719 37.5391V36.7656H50.6836V37.5391C50.6797 37.9766 50.7656 38.3945 50.9414 38.793C51.1172 39.1875 51.3867 39.5391 51.75 39.8477C52.1172 40.1523 52.5742 40.3867 53.1211 40.5508L52.3359 41.6992C51.7773 41.5234 51.2969 41.2656 50.8945 40.9258C50.4922 40.582 50.1719 40.1758 49.9336 39.707C49.6914 40.2344 49.3574 40.6875 48.9316 41.0664C48.5059 41.4453 47.9883 41.7305 47.3789 41.9219L46.6055 40.7383ZM48.5859 42.2852H55.6758V45.1328H50.0742V45.7891H55.9805V46.9609H48.5977V44.043H54.1992V43.4336H48.5859V42.2852Z" fill="#2F8CED"/>
</svg>
