<svg width="72" height="56" viewBox="0 0 72 56" fill="none" xmlns="http://www.w3.org/2000/svg">
<path d="M36 11C37.0609 11 38.0783 11.4214 38.8284 12.1716C39.5786 12.9217 40 13.9391 40 15C40 16.0609 39.5786 17.0783 38.8284 17.8284C38.0783 18.5786 37.0609 19 36 19C34.9391 19 33.9217 18.5786 33.1716 17.8284C32.4214 17.0783 32 16.0609 32 15C32 13.9391 32.4214 12.9217 33.1716 12.1716C33.9217 11.4214 34.9391 11 36 11ZM36 21C40.42 21 44 22.79 44 25V27H28V25C28 22.79 31.58 21 36 21Z" fill="#2F8CED"/>
<path d="M15.8496 44.4766H10.7285V37.4219H15.8496V44.4766ZM14.3613 43.293V38.5938H12.2051V43.293H14.3613ZM17.3027 36.4141H18.8027V40.4336H20.373V41.6758H18.8027V47.0781H17.3027V36.4141ZM29.6895 47.1016H28.1777V36.4141H29.6895V47.1016ZM21.0762 40.9609C21.0762 40.1992 21.1953 39.5312 21.4336 38.957C21.6758 38.3828 22.0098 37.9414 22.4355 37.6328C22.8652 37.3203 23.3535 37.1641 23.9004 37.1641C24.4355 37.1641 24.9141 37.3203 25.3359 37.6328C25.7617 37.9414 26.0957 38.3828 26.3379 38.957C26.5801 39.5312 26.7012 40.1992 26.7012 40.9609C26.7012 41.7266 26.5801 42.3984 26.3379 42.9766C26.0957 43.5508 25.7617 43.9941 25.3359 44.3066C24.9141 44.6152 24.4355 44.7695 23.9004 44.7695C23.3535 44.7695 22.8652 44.6152 22.4355 44.3066C22.0098 43.9941 21.6758 43.5508 21.4336 42.9766C21.1953 42.3984 21.0762 41.7266 21.0762 40.9609ZM22.5176 40.9609C22.5176 41.4805 22.5742 41.9258 22.6875 42.2969C22.8008 42.6641 22.9609 42.9434 23.168 43.1348C23.3789 43.3223 23.623 43.4141 23.9004 43.4102C24.1699 43.4141 24.4062 43.3223 24.6094 43.1348C24.8164 42.9434 24.9766 42.6641 25.0898 42.2969C25.2031 41.9258 25.2598 41.4805 25.2598 40.9609C25.2598 40.4414 25.2031 39.998 25.0898 39.6309C24.9766 39.2637 24.8164 38.9863 24.6094 38.7988C24.4062 38.6074 24.1699 38.5117 23.9004 38.5117C23.623 38.5117 23.3789 38.6074 23.168 38.7988C22.9609 38.9863 22.8008 39.2637 22.6875 39.6309C22.5742 39.998 22.5176 40.4414 22.5176 40.9609ZM40.459 47.0781H39.0176V36.4141H40.459V47.0781ZM31.9043 43.4102V38.8281H31.2129V37.6211H36.0996V38.8281H35.4199V43.2637C35.7949 43.2285 36.0801 43.1953 36.2754 43.1641L36.3809 44.2422C35.127 44.5078 33.3926 44.6406 31.1777 44.6406L31.0137 43.4102H31.9043ZM33.2285 43.3867C33.4043 43.3828 33.6816 43.373 34.0605 43.3574V38.8281H33.2285V43.3867ZM35.8535 40.293H36.8848V36.625H38.3027V46.5742H36.8848V41.6289H35.8535V40.293ZM50.4316 47.1016H48.9199V36.4141H50.4316V47.1016ZM41.8184 40.9609C41.8184 40.1992 41.9375 39.5312 42.1758 38.957C42.418 38.3828 42.752 37.9414 43.1777 37.6328C43.6074 37.3203 44.0957 37.1641 44.6426 37.1641C45.1777 37.1641 45.6562 37.3203 46.0781 37.6328C46.5039 37.9414 46.8379 38.3828 47.0801 38.957C47.3223 39.5312 47.4434 40.1992 47.4434 40.9609C47.4434 41.7266 47.3223 42.3984 47.0801 42.9766C46.8379 43.5508 46.5039 43.9941 46.0781 44.3066C45.6562 44.6152 45.1777 44.7695 44.6426 44.7695C44.0957 44.7695 43.6074 44.6152 43.1777 44.3066C42.752 43.9941 42.418 43.5508 42.1758 42.9766C41.9375 42.3984 41.8184 41.7266 41.8184 40.9609ZM43.2598 40.9609C43.2598 41.4805 43.3164 41.9258 43.4297 42.2969C43.543 42.6641 43.7031 42.9434 43.9102 43.1348C44.1211 43.3223 44.3652 43.4141 44.6426 43.4102C44.9121 43.4141 45.1484 43.3223 45.3516 43.1348C45.5586 42.9434 45.7188 42.6641 45.832 42.2969C45.9453 41.9258 46.002 41.4805 46.002 40.9609C46.002 40.4414 45.9453 39.998 45.832 39.6309C45.7188 39.2637 45.5586 38.9863 45.3516 38.7988C45.1484 38.6074 44.9121 38.5117 44.6426 38.5117C44.3652 38.5117 44.1211 38.6074 43.9102 38.7988C43.7031 38.9863 43.543 39.2637 43.4297 39.6309C43.3164 39.998 43.2598 40.4414 43.2598 40.9609ZM56.0098 39.3203C56.0059 39.9102 56.1055 40.4902 56.3086 41.0605C56.5117 41.627 56.8145 42.1387 57.2168 42.5957C57.6191 43.0488 58.1074 43.3945 58.6816 43.6328L57.873 44.8047C57.2637 44.5469 56.7402 44.1699 56.3027 43.6738C55.8652 43.1738 55.5215 42.5898 55.2715 41.9219C55.0215 42.6445 54.6738 43.2812 54.2285 43.832C53.7871 44.3789 53.2598 44.793 52.6465 45.0742L51.791 43.8906C52.3613 43.6367 52.8477 43.2676 53.25 42.7832C53.6562 42.2988 53.9609 41.7559 54.1641 41.1543C54.3711 40.5488 54.4746 39.9375 54.4746 39.3203V38.6641H52.2129V37.4453H58.2363V38.6641H56.0098V39.3203ZM59.291 36.4141H60.8027V47.0781H59.291V36.4141Z" fill="#2F8CED"/>
</svg>
