<svg width="72" height="56" viewBox="0 0 72 56" fill="none" xmlns="http://www.w3.org/2000/svg">
<path d="M36 11C37.0609 11 38.0783 11.4214 38.8284 12.1716C39.5786 12.9217 40 13.9391 40 15C40 16.0609 39.5786 17.0783 38.8284 17.8284C38.0783 18.5786 37.0609 19 36 19C34.9391 19 33.9217 18.5786 33.1716 17.8284C32.4214 17.0783 32 16.0609 32 15C32 13.9391 32.4214 12.9217 33.1716 12.1716C33.9217 11.4214 34.9391 11 36 11ZM36 13C35.4696 13 34.9609 13.2107 34.5858 13.5858C34.2107 13.9609 34 14.4696 34 15C34 15.5304 34.2107 16.0391 34.5858 16.4142C34.9609 16.7893 35.4696 17 36 17C36.5304 17 37.0391 16.7893 37.4142 16.4142C37.7893 16.0391 38 15.5304 38 15C38 14.4696 37.7893 13.9609 37.4142 13.5858C37.0391 13.2107 36.5304 13 36 13ZM36 20C38.67 20 44 21.33 44 24V27H28V24C28 21.33 33.33 20 36 20ZM36 21.9C33.03 21.9 29.9 23.36 29.9 24V25.1H42.1V24C42.1 23.36 38.97 21.9 36 21.9Z" fill="#333333"/>
<path d="M15.7676 37.5391V44.3594H10.8574V37.5391H15.7676ZM11.9473 43.457H14.666V38.418H11.9473V43.457ZM17.5254 46.9961V36.4961H18.6387V40.6094H20.3262V41.5469H18.6387V46.9961H17.5254ZM29.5254 36.4961V47.0195H28.4121V36.4961H29.5254ZM21.1934 40.9609C21.1934 38.7168 22.3242 37.2871 23.9121 37.2812C25.4707 37.2871 26.6191 38.7168 26.6191 40.9609C26.6191 43.2285 25.4707 44.6582 23.9121 44.6523C22.3242 44.6582 21.1934 43.2285 21.1934 40.9609ZM22.2715 40.9609C22.2656 42.6309 22.9336 43.6562 23.9121 43.6562C24.873 43.6562 25.541 42.6309 25.541 40.9609C25.541 39.3145 24.873 38.2832 23.9121 38.2773C22.9336 38.2832 22.2656 39.3145 22.2715 40.9609ZM40.2832 36.4961V46.9961H39.2168V36.4961H40.2832ZM31.084 43.5273C31.3887 43.5273 31.7402 43.5273 32.1152 43.5215V38.6992H31.3066V37.7852H36.123V38.6992H35.3145V43.3926C35.6719 43.3633 36.0176 43.3223 36.334 43.2812L36.416 44.0898C34.752 44.418 32.5723 44.4648 31.2129 44.4648L31.084 43.5273ZM33.123 43.5039C33.5039 43.498 33.8965 43.4805 34.2832 43.4629V38.6992H33.123V43.5039ZM35.8418 41.4297V40.4336H37.1543V36.7305H38.209V46.457H37.1543V41.4297H35.8418ZM50.2676 36.4961V47.0195H49.1543V36.4961H50.2676ZM41.9355 40.9609C41.9355 38.7168 43.0664 37.2871 44.6543 37.2812C46.2129 37.2871 47.3613 38.7168 47.3613 40.9609C47.3613 43.2285 46.2129 44.6582 44.6543 44.6523C43.0664 44.6582 41.9355 43.2285 41.9355 40.9609ZM43.0137 40.9609C43.0078 42.6309 43.6758 43.6562 44.6543 43.6562C45.6152 43.6562 46.2832 42.6309 46.2832 40.9609C46.2832 39.3145 45.6152 38.2832 44.6543 38.2773C43.6758 38.2832 43.0078 39.3145 43.0137 40.9609ZM55.8105 39.5898C55.8047 41.3477 56.959 43.1641 58.5762 43.8555L57.9668 44.7227C56.7305 44.1777 55.7461 43.0176 55.2598 41.6172C54.7734 43.1172 53.7891 44.3945 52.5645 44.9922L51.9199 44.1133C53.502 43.3691 54.6738 41.4004 54.6855 39.5898V38.4766H52.2832V37.5508H58.2012V38.4766H55.8105V39.5898ZM59.5254 46.9961V36.4961H60.6387V46.9961H59.5254Z" fill="#333333"/>
</svg>
