<svg width="72" height="56" viewBox="0 0 72 56" fill="none" xmlns="http://www.w3.org/2000/svg">
<path d="M30 21.4V19H32.4V21.4H30ZM42 12.3928C41.9981 11.9166 41.8076 11.4606 41.4703 11.1246C41.1329 10.7886 40.6762 10.6 40.2 10.6H28.1076C27.6302 10.6 27.1724 10.7896 26.8348 11.1272C26.4973 11.4647 26.3076 11.9226 26.3076 12.4V23.2C26.3076 23.9956 26.6237 24.7587 27.1863 25.3213C27.7489 25.8839 28.512 26.2 29.3076 26.2H42.6924C43.4881 26.2 44.2511 25.8839 44.8137 25.3213C45.3763 24.7587 45.6924 23.9956 45.6924 23.2V16C45.6924 15.5226 45.5028 15.0647 45.1652 14.7272C44.8276 14.3896 44.3698 14.2 43.8924 14.2H43.2V22.876C43.2 23.0351 43.1368 23.1877 43.0243 23.3002C42.9118 23.4128 42.7591 23.476 42.6 23.476C42.4409 23.476 42.2883 23.4128 42.1758 23.3002C42.0632 23.1877 42 23.0351 42 22.876V12.3928ZM28.8 14.8C28.8 14.6408 28.8632 14.4882 28.9758 14.3757C29.0883 14.2632 29.2409 14.2 29.4 14.2H39C39.1591 14.2 39.3118 14.2632 39.4243 14.3757C39.5368 14.4882 39.6 14.6408 39.6 14.8C39.6 14.9591 39.5368 15.1117 39.4243 15.2242C39.3118 15.3368 39.1591 15.4 39 15.4H29.4C29.2409 15.4 29.0883 15.3368 28.9758 15.2242C28.8632 15.1117 28.8 14.9591 28.8 14.8ZM35.4 17.8H39C39.1591 17.8 39.3118 17.8632 39.4243 17.9757C39.5368 18.0882 39.6 18.2408 39.6 18.4C39.6 18.5591 39.5368 18.7117 39.4243 18.8242C39.3118 18.9368 39.1591 19 39 19H35.4C35.2409 19 35.0883 18.9368 34.9758 18.8242C34.8632 18.7117 34.8 18.5591 34.8 18.4C34.8 18.2408 34.8632 18.0882 34.9758 17.9757C35.0883 17.8632 35.2409 17.8 35.4 17.8ZM34.8 22C34.8 21.8408 34.8632 21.6882 34.9758 21.5757C35.0883 21.4632 35.2409 21.4 35.4 21.4H39C39.1591 21.4 39.3118 21.4632 39.4243 21.5757C39.5368 21.6882 39.6 21.8408 39.6 22C39.6 22.1591 39.5368 22.3117 39.4243 22.4242C39.3118 22.5368 39.1591 22.6 39 22.6H35.4C35.2409 22.6 35.0883 22.5368 34.9758 22.4242C34.8632 22.3117 34.8 22.1591 34.8 22ZM29.4 17.8H33C33.1591 17.8 33.3118 17.8632 33.4243 17.9757C33.5368 18.0882 33.6 18.2408 33.6 18.4V22C33.6 22.1591 33.5368 22.3117 33.4243 22.4242C33.3118 22.5368 33.1591 22.6 33 22.6H29.4C29.2409 22.6 29.0883 22.5368 28.9758 22.4242C28.8632 22.3117 28.8 22.1591 28.8 22V18.4C28.8 18.2408 28.8632 18.0882 28.9758 17.9757C29.0883 17.8632 29.2409 17.8 29.4 17.8Z" fill="#2F8CED"/>
<path d="M29.4082 40.9727H21.9434V36.8945H23.4316V39.7773H29.4082V40.9727ZM20.7598 42.1797H30.4863V43.375H28.2598V47.0781H26.748V43.375H24.5098V47.0781H23.0098V43.375H20.7598V42.1797ZM36.7441 37.8203C36.7402 38.3516 36.8906 38.873 37.1953 39.3848C37.5 39.8926 37.9395 40.334 38.5137 40.709C39.0879 41.0801 39.7637 41.332 40.541 41.4648L39.8848 42.707C38.9707 42.5273 38.1738 42.1934 37.4941 41.7051C36.8184 41.2129 36.3047 40.6191 35.9531 39.9238C35.5938 40.6152 35.0742 41.207 34.3945 41.6992C33.7188 42.1875 32.9277 42.5234 32.0215 42.707L31.377 41.4648C32.1387 41.3281 32.8047 41.0723 33.375 40.6973C33.9453 40.3223 34.3828 39.8809 34.6875 39.373C34.9922 38.8613 35.1465 38.3438 35.1504 37.8203V37.0469H36.7441V37.8203ZM31.1309 44.5352H40.8926V45.7656H31.1309V44.5352ZM51.252 42.9297H47.1152V43.668H50.1152V46.9609H42.7441V43.668H45.627V42.9297H41.4902V41.7461H51.252V42.9297ZM42.6855 36.6133H50.0684V39.4375H44.1973V40.0469H50.2676V41.2188H42.709V38.3828H48.5684V37.7383H42.6855V36.6133ZM48.627 45.7656V44.8281H44.209V45.7656H48.627Z" fill="#2F8CED"/>
</svg>
