<svg width="72" height="56" viewBox="0 0 72 56" fill="none" xmlns="http://www.w3.org/2000/svg">
<path d="M29.25 14.5C29.0511 14.5 28.8603 14.579 28.7197 14.7197C28.579 14.8603 28.5 15.0511 28.5 15.25C28.5 15.4489 28.579 15.6397 28.7197 15.7803C28.8603 15.921 29.0511 16 29.25 16H39.75C39.9489 16 40.1397 15.921 40.2803 15.7803C40.421 15.6397 40.5 15.4489 40.5 15.25C40.5 15.0511 40.421 14.8603 40.2803 14.7197C40.1397 14.579 39.9489 14.5 39.75 14.5H29.25ZM29.25 17.5C29.0511 17.5 28.8603 17.579 28.7197 17.7197C28.579 17.8603 28.5 18.0511 28.5 18.25V21.25C28.5 21.4489 28.579 21.6397 28.7197 21.7803C28.8603 21.921 29.0511 22 29.25 22H32.25C32.4489 22 32.6397 21.921 32.7803 21.7803C32.921 21.6397 33 21.4489 33 21.25V18.25C33 18.0511 32.921 17.8603 32.7803 17.7197C32.6397 17.579 32.4489 17.5 32.25 17.5H29.25ZM30 20.5V19H31.5V20.5H30ZM35.25 17.5C35.0511 17.5 34.8603 17.579 34.7197 17.7197C34.579 17.8603 34.5 18.0511 34.5 18.25C34.5 18.4489 34.579 18.6397 34.7197 18.7803C34.8603 18.921 35.0511 19 35.25 19H39.75C39.9489 19 40.1397 18.921 40.2803 18.7803C40.421 18.6397 40.5 18.4489 40.5 18.25C40.5 18.0511 40.421 17.8603 40.2803 17.7197C40.1397 17.579 39.9489 17.5 39.75 17.5H35.25ZM35.25 20.5C35.0511 20.5 34.8603 20.579 34.7197 20.7197C34.579 20.8603 34.5 21.0511 34.5 21.25C34.5 21.4489 34.579 21.6397 34.7197 21.7803C34.8603 21.921 35.0511 22 35.25 22H39.75C39.9489 22 40.1397 21.921 40.2803 21.7803C40.421 21.6397 40.5 21.4489 40.5 21.25C40.5 21.0511 40.421 20.8603 40.2803 20.7197C40.1397 20.579 39.9489 20.5 39.75 20.5H35.25ZM25.5 13C25.5 12.2044 25.8161 11.4413 26.3787 10.8787C26.9413 10.3161 27.7044 10 28.5 10H40.5C41.2956 10 42.0587 10.3161 42.6213 10.8787C43.1839 11.4413 43.5 12.2044 43.5 13C44.2956 13 45.0587 13.3161 45.6213 13.8787C46.1839 14.4413 46.5 15.2044 46.5 16V22.75C46.5 23.7446 46.1049 24.6984 45.4016 25.4017C44.6984 26.1049 43.7446 26.5 42.75 26.5H29.25C28.2554 26.5 27.3016 26.1049 26.5983 25.4017C25.8951 24.6984 25.5 23.7446 25.5 22.75V13ZM42.75 22.75C42.5511 22.75 42.3603 22.671 42.2197 22.5303C42.079 22.3897 42 22.1989 42 22V13C42 12.6022 41.842 12.2206 41.5607 11.9393C41.2794 11.658 40.8978 11.5 40.5 11.5H28.5C28.1022 11.5 27.7206 11.658 27.4393 11.9393C27.158 12.2206 27 12.6022 27 13V22.75C27 23.3467 27.2371 23.919 27.659 24.341C28.081 24.7629 28.6533 25 29.25 25H42.75C43.3467 25 43.919 24.7629 44.341 24.341C44.7629 23.919 45 23.3467 45 22.75V16C45 15.6022 44.842 15.2206 44.5607 14.9393C44.2794 14.658 43.8978 14.5 43.5 14.5V22C43.5 22.1989 43.421 22.3897 43.2803 22.5303C43.1397 22.671 42.9489 22.75 42.75 22.75Z" fill="#333333"/>
<path d="M29.3027 39.9648V40.8672H22.0254V37.0117H23.1504V39.9648H29.3027ZM20.8301 43.1875V42.2852H30.4043V43.1875H28.0137V46.9961H26.8887V43.1875H24.3457V46.9961H23.2324V43.1875H20.8301ZM36.5332 37.9844C36.5332 39.6953 38.3555 41.3125 40.377 41.6758L39.8613 42.6016C38.1797 42.2383 36.6387 41.1367 35.959 39.6602C35.2676 41.1309 33.7266 42.2266 32.0449 42.6016L31.5527 41.6758C33.5449 41.3008 35.3555 39.6953 35.3613 37.9844V37.1875H36.5332V37.9844ZM31.2012 45.6133V44.6875H40.8105V45.6133H31.2012ZM51.1699 41.8047V42.6953H46.916V43.668H49.9746V46.8672H42.8379V43.668H45.8145V42.6953H41.5605V41.8047H51.1699ZM42.7676 37.5859V36.7305H49.9629V39.2969H43.8926V40.1875H50.1738V41.0781H42.791V38.4883H48.8496V37.5859H42.7676ZM43.9395 45.9648H48.873V44.5469H43.9395V45.9648Z" fill="#333333"/>
</svg>
