<svg width="24" height="24" viewBox="0 0 24 24" fill="none" xmlns="http://www.w3.org/2000/svg">
<path fill-rule="evenodd" clip-rule="evenodd" d="M3.80006 16.7189C3.80097 16.4442 3.87222 16.1741 4.00715 15.9359C4.44771 15.1547 5.13265 12.8717 5.13265 9.86129C5.13265 7.99089 5.85446 6.19566 7.14155 4.8709C8.42889 3.54588 10.1765 2.80005 12.0005 2.80005C13.8244 2.80005 15.572 3.54588 16.8594 4.8709C18.1465 6.19566 18.8683 7.99089 18.8683 9.86129C18.8683 12.8712 19.5525 15.155 19.993 15.9361C20.1279 16.1742 20.1991 16.4441 20.2 16.7187C20.201 16.9934 20.1316 17.2639 19.9983 17.5031C19.8651 17.7422 19.6723 17.942 19.4389 18.0814C19.2054 18.2208 18.9394 18.2948 18.6683 18.2951H15.4277C15.2431 19.0488 14.8272 19.7243 14.238 20.2193C13.6073 20.7492 12.8169 21.0396 12.0005 21.0396C11.184 21.0396 10.3936 20.7492 9.7629 20.2193C9.17374 19.7243 8.75781 19.0488 8.57328 18.2951H5.3325C5.06134 18.2949 4.79549 18.2211 4.56183 18.0817C4.32824 17.9424 4.13539 17.7427 4.00199 17.5035C3.86862 17.2643 3.79914 16.9937 3.80006 16.7189ZM6.86621 9.86129C6.86621 12.7385 6.2735 15.2351 5.6596 16.526H18.3413C17.7261 15.2332 17.1347 12.7364 17.1347 9.86129C17.1347 8.45537 16.592 7.10847 15.6283 6.11653C14.6648 5.12484 13.3597 4.56916 12.0005 4.56916C10.6413 4.56916 9.33612 5.12484 8.37263 6.11653C7.4089 7.10847 6.86621 8.45537 6.86621 9.86129ZM12.0261 19.5658C11.1478 19.5658 10.4321 18.8771 10.4012 18.0161H13.651C13.6201 18.8771 12.9044 19.5658 12.0261 19.5658Z" fill="#333333"/>
</svg>
