<svg width="17" height="16" viewBox="0 0 17 16" fill="none" xmlns="http://www.w3.org/2000/svg">
<path d="M14.076 8.47124C14.201 8.34622 14.2712 8.17668 14.2712 7.9999C14.2712 7.82313 14.201 7.65359 14.076 7.52857L10.3047 3.75724C10.2432 3.69356 10.1697 3.64277 10.0883 3.60784C10.007 3.5729 9.9195 3.55451 9.83098 3.55374C9.74246 3.55297 9.65468 3.56983 9.57275 3.60336C9.49082 3.63688 9.41638 3.68638 9.35379 3.74897C9.29119 3.81157 9.24169 3.886 9.20817 3.96793C9.17465 4.04986 9.15778 4.13765 9.15855 4.22617C9.15932 4.31469 9.17771 4.40217 9.21265 4.48351C9.24759 4.56484 9.29838 4.63841 9.36205 4.6999L11.9954 7.33324L3.16672 7.33324C2.98991 7.33324 2.82034 7.40347 2.69531 7.5285C2.57029 7.65352 2.50005 7.82309 2.50005 7.9999C2.50005 8.17671 2.57029 8.34628 2.69531 8.47131C2.82034 8.59633 2.98991 8.66657 3.16672 8.66657L11.9954 8.66657L9.36205 11.2999C9.24061 11.4256 9.17341 11.594 9.17493 11.7688C9.17645 11.9436 9.24656 12.1108 9.37017 12.2344C9.49377 12.3581 9.66098 12.4282 9.83578 12.4297C10.0106 12.4312 10.179 12.364 10.3047 12.2426L14.076 8.47124Z" fill="white"/>
</svg>
