<svg width="203" height="81" viewBox="0 0 203 81" fill="none" xmlns="http://www.w3.org/2000/svg">
<path fill-rule="evenodd" clip-rule="evenodd" d="M30.1756 0C14.7117 0 2.17565 12.536 2.17565 28V52C2.17565 58.3525 4.29115 64.211 7.85607 68.9092C8.61352 76.0833 3.01643 77.0631 0 76.6199C7.01154 82.0361 14.967 80.4403 18.7496 77.5702C22.2387 79.1317 26.1058 80 30.1756 80H174.176C189.64 80 202.176 67.464 202.176 52V28C202.176 12.536 189.64 0 174.176 0H30.1756Z" fill="white"/>
<path d="M55.4785 27.5898C55.4727 29.3477 56.627 31.1641 58.2441 31.8555L57.6348 32.7227C56.3984 32.1777 55.4141 31.0176 54.9277 29.6172C54.4414 31.1172 53.457 32.3945 52.2324 32.9922L51.5879 32.1133C53.1699 31.3691 54.3418 29.4004 54.3535 27.5898V26.4766H51.9512V25.5508H57.8691V26.4766H55.4785V27.5898ZM59.1934 34.9961V24.4961H60.3066V34.9961H59.1934ZM70.4902 29.3359V30.2266H67.3145V32.793H71.5918V33.707H61.9824V32.793H66.2129V30.2266H63.1777V25.3047H70.3965V26.207H64.291V29.3359H70.4902ZM81.9512 29.3125V30.168H72.3418V29.3125H81.9512ZM73.4785 31.7031V30.9062H80.7676V33.2148H74.6035V34.082H81.0957V34.8672H73.4902V32.4766H79.666V31.7031H73.4785ZM73.5488 25.5508V24.7656H80.7441V27.0391H74.6738V27.8359H80.9199V28.6211H73.5723V26.3008H79.6309V25.5508H73.5488ZM94.0449 24.9648V25.7969C94.0508 26.6113 94.0508 27.5312 93.8164 28.7148H95.2168V29.6172H85.666V28.7148H92.6973C92.7852 28.2812 92.8438 27.8887 92.8789 27.5254L86.7324 27.7773L86.5918 26.9102L92.9316 26.7344C92.9434 26.4297 92.9434 26.1367 92.9434 25.8555H86.8613V24.9648H94.0449ZM86.7559 31.3516V30.4961H94.1152V33.0391H87.8926V33.9883H94.4902V34.8672H86.7793V32.207H93.0137V31.3516H86.7559ZM104.732 24.5078V30.918H103.619V24.5078H104.732ZM96.5527 26.0195V25.1172H101.381V28.1172H97.666V29.4648C99.5059 29.4531 100.848 29.3945 102.447 29.1602L102.588 30.0625C100.871 30.3262 99.4414 30.3848 97.4551 30.3789H96.5762V27.25H100.279V26.0195H96.5527ZM97.6191 32.3711V31.457H104.732V34.9961H103.619V32.3711H97.6191ZM111.588 26.2305V27.1328H106.373V26.2305H108.436V24.8008H109.537V26.2305H111.588ZM106.713 30.1797C106.707 28.7676 107.668 27.7656 108.986 27.7656C110.316 27.7656 111.266 28.7676 111.271 30.1797C111.266 31.6152 110.316 32.623 108.986 32.6172C107.668 32.623 106.707 31.6152 106.713 30.1797ZM107.697 30.1797C107.691 31.0703 108.23 31.668 108.986 31.668C109.742 31.668 110.287 31.0703 110.287 30.1797C110.287 29.3066 109.742 28.6973 108.986 28.6914C108.23 28.6973 107.691 29.3066 107.697 30.1797ZM112.068 34.5039V24.7305H113.123V28.8672H114.33V24.4961H115.385V34.9961H114.33V29.7812H113.123V34.5039H112.068ZM126.377 32.7695V33.6953H116.768V32.7695H120.998V30.6133H117.869V25.2109H118.982V27.0156H124.139V25.2109H125.24V30.6133H122.1V32.7695H126.377ZM118.982 29.7109H124.139V27.918H118.982V29.7109ZM130.338 27.3672C130.338 29.043 131.041 30.8301 132.447 31.6914L131.826 32.5469C130.842 31.9551 130.18 30.9062 129.816 29.6934C129.436 31.0234 128.709 32.1602 127.689 32.7812L126.998 31.9492C128.48 31.0586 129.266 29.2012 129.26 27.4141V25.457H130.338V27.3672ZM131.311 29.1133V28.1875H132.939V24.6953H133.994V34.4805H132.939V29.1133H131.311ZM135.107 34.9961V24.4961H136.174V34.9961H135.107ZM147.119 32.7578V33.6836H137.51V32.7578H139.807V30.0156C138.945 29.541 138.418 28.791 138.424 27.8477C138.418 26.1953 140.041 25.1113 142.291 25.1055C144.547 25.1113 146.17 26.1953 146.17 27.8477C146.17 28.7734 145.666 29.5176 144.822 29.9922V32.7578H147.119ZM139.502 27.8477C139.502 28.9727 140.645 29.7051 142.291 29.7109C143.926 29.7051 145.086 28.9727 145.092 27.8477C145.086 26.7168 143.926 25.9961 142.291 25.9961C140.645 25.9961 139.502 26.7168 139.502 27.8477ZM140.908 32.7578H143.697V30.4258C143.27 30.5254 142.795 30.5781 142.291 30.5781C141.799 30.5781 141.33 30.5254 140.908 30.4258V32.7578ZM149.814 25.5156L149.709 31.5508H148.549L148.443 25.5156H149.814ZM148.303 33.25C148.297 32.793 148.678 32.418 149.135 32.418C149.586 32.418 149.961 32.793 149.967 33.25C149.961 33.707 149.586 34.0762 149.135 34.082C148.678 34.0762 148.297 33.707 148.303 33.25ZM29.7148 40.4961V43.0859H31.2383V44.0234H29.7148V46.6367H28.6016V40.4961H29.7148ZM21.4062 45.6875C23.9258 45.0254 25.4199 43.6953 25.6133 42.043H21.9102V41.1406H26.8086C26.8027 43.8418 24.9805 45.7402 21.8633 46.543L21.4062 45.6875ZM22.7773 47.9961V47.0938H29.7148V50.9961H28.6016V47.9961H22.7773ZM38.6328 43.5898C38.627 45.3477 39.7812 47.1641 41.3984 47.8555L40.7891 48.7227C39.5527 48.1777 38.5684 47.0176 38.082 45.6172C37.5957 47.1172 36.6113 48.3945 35.3867 48.9922L34.7422 48.1133C36.3242 47.3691 37.4961 45.4004 37.5078 43.5898V42.4766H35.1055V41.5508H41.0234V42.4766H38.6328V43.5898ZM42.3477 50.9961V40.4961H43.4609V50.9961H42.3477ZM53.8906 47.2344V50.9961H52.7773V48.1133H46.7773V47.2344H53.8906ZM45.2891 43.6133C45.2832 42.1309 46.4609 41.0762 48.043 41.082C48.9336 41.0762 49.7012 41.4219 50.1875 41.9961H52.7773V40.4961H53.8906V46.6836H52.7773V45.2422H50.1875C49.6953 45.8164 48.9336 46.1621 48.043 46.1562C46.4609 46.1621 45.2832 45.1074 45.2891 43.6133ZM46.3555 43.6133C46.3496 44.5742 47.0586 45.2129 48.043 45.2188C48.9863 45.2129 49.707 44.5742 49.707 43.6133C49.707 42.6758 48.9863 42.0254 48.043 42.0195C47.0586 42.0254 46.3496 42.6758 46.3555 43.6133ZM50.6738 44.3281H52.7773V42.9102H50.6797C50.7383 43.1328 50.7734 43.3672 50.7734 43.6133C50.7734 43.8652 50.7383 44.1055 50.6738 44.3281ZM64.25 40.4961V45.957H63.1484V44.7031H60.8516V45.5703H56.0117V40.9766H57.125V42.3945H59.75V40.9766H60.8516V41.9375H63.1484V40.4961H64.25ZM57.125 44.6797H59.75V43.25H57.125V44.6797ZM57.3828 47.293V46.4258H64.25V49.0039H58.5195V49.9766H64.625V50.8672H57.4062V48.1719H63.1484V47.293H57.3828ZM60.8516 43.8477H63.1484V42.793H60.8516V43.8477ZM115.074 40.6719C117.441 40.666 118.818 41.3047 118.824 42.4766C118.818 43.6543 117.441 44.293 115.074 44.293C112.707 44.293 111.318 43.6543 111.324 42.4766C111.318 41.3047 112.707 40.666 115.074 40.6719ZM110.293 45.8281V44.9375H119.867V45.8281H110.293ZM111.441 47.4688V46.6367H118.66V49.0977H112.543V50.0352H118.953V50.8906H111.453V48.2891H117.559V47.4688H111.441ZM112.484 42.4766C112.479 43.127 113.404 43.4609 115.074 43.4609C116.756 43.4609 117.682 43.127 117.676 42.4766C117.682 41.8555 116.756 41.4922 115.074 41.4922C113.404 41.4922 112.479 41.8555 112.484 42.4766ZM125.949 40.6602V41.5742H130.812V40.6602H131.926V44.1406H128.902V45.0547H133.168V45.9453H123.594V45.0547H127.812V44.1406H124.848V40.6602H125.949ZM124.742 47.5391V46.707H131.961V49.1562H125.844V50.0352H132.254V50.8906H124.754V48.3594H130.859V47.5391H124.742ZM125.949 43.2969H130.812V42.3945H125.949V43.2969ZM142.273 41.4219C142.268 42.8164 143.973 44.123 146.035 44.3984L145.602 45.3125C143.885 45.0371 142.379 44.1465 141.693 42.9102C141.008 44.1465 139.502 45.0371 137.797 45.3125L137.352 44.3984C139.408 44.123 141.107 42.834 141.113 41.4219V40.8477H142.273V41.4219ZM136.895 47.2578V46.3438H146.469V47.2578H142.203V50.9961H141.113V47.2578H136.895ZM153.84 47.4336C153.84 48.3359 154.285 49.291 155.24 49.8594C156.201 49.2441 156.676 48.2422 156.676 47.4336V46.9297H157.766V47.4336C157.76 48.5234 158.48 49.5781 159.852 50.0234L159.301 50.8438C158.264 50.4863 157.555 49.7832 157.191 48.9277C156.857 49.7715 156.23 50.5391 155.27 50.9375C154.262 50.5566 153.623 49.8125 153.301 48.957C152.92 49.7832 152.229 50.4805 151.238 50.8438L150.676 50.0234C152.023 49.543 152.756 48.4473 152.762 47.4336V46.9297H153.84V47.4336ZM150.406 43.5664C150.412 42.0957 151.596 41.0879 153.207 41.082C154.812 41.0879 155.996 42.0957 155.996 43.5664C155.996 45.0195 154.812 46.0273 153.207 46.0273C151.596 46.0273 150.412 45.0195 150.406 43.5664ZM151.496 43.5664C151.49 44.4805 152.211 45.1016 153.207 45.1016C154.191 45.1016 154.906 44.4805 154.906 43.5664C154.906 42.6465 154.191 42.0254 153.207 42.0312C152.211 42.0254 151.49 42.6465 151.496 43.5664ZM157.789 46.4844V40.5078H158.902V46.4844H157.789ZM163.414 41.2812C164.844 41.2871 165.881 42.4941 166.051 44.4336H168.219V40.4961H169.32V51.0195H168.219V45.3359H166.062C165.939 47.3867 164.879 48.6582 163.414 48.6523C161.85 48.6582 160.742 47.2285 160.754 44.9609C160.742 42.7168 161.85 41.2871 163.414 41.2812ZM161.809 44.9609C161.814 46.6309 162.465 47.6562 163.414 47.6562C164.363 47.6562 165.014 46.6309 165.02 44.9609C165.014 43.3145 164.363 42.2832 163.414 42.2773C162.465 42.2832 161.814 43.3145 161.809 44.9609ZM180.547 48.7578V49.6836H170.938V48.7578H173.234V46.0156C172.373 45.541 171.846 44.791 171.852 43.8477C171.846 42.1953 173.469 41.1113 175.719 41.1055C177.975 41.1113 179.598 42.1953 179.598 43.8477C179.598 44.7734 179.094 45.5176 178.25 45.9922V48.7578H180.547ZM172.93 43.8477C172.93 44.9727 174.072 45.7051 175.719 45.7109C177.354 45.7051 178.514 44.9727 178.52 43.8477C178.514 42.7168 177.354 41.9961 175.719 41.9961C174.072 41.9961 172.93 42.7168 172.93 43.8477ZM174.336 48.7578H177.125V46.4258C176.697 46.5254 176.223 46.5781 175.719 46.5781C175.227 46.5781 174.758 46.5254 174.336 46.4258V48.7578Z" fill="#333333"/>
<path d="M72.0664 43.6602C72.0664 44.5352 72.2363 45.334 72.5762 46.0566C72.916 46.7754 73.4453 47.3281 74.1641 47.7148L73.3438 48.8047C72.8789 48.5664 72.4824 48.2441 72.1543 47.8379C71.8262 47.4277 71.5645 46.9531 71.3691 46.4141C71.1777 47.0039 70.918 47.5254 70.5898 47.9785C70.2617 48.4277 69.8633 48.7891 69.3945 49.0625L68.5391 47.9375C69.2617 47.5195 69.793 46.9277 70.1328 46.1621C70.4766 45.3965 70.6523 44.5625 70.6602 43.6602V43.4141H68.9375V42.2188H70.6602V40.7773H72.0547V42.2188H73.7422V43.4141H72.0664V43.6602ZM73.1211 44.457H74.375V40.5898H75.7812V50.5859H74.375V45.6758H73.1211V44.457ZM76.543 40.4141H77.9609V51.0781H76.543V40.4141ZM88.8359 46.5781H86.4922V47.5742H87.6523V51.0781H86.1641V48.7461H80.1875V47.5742H81.4062V46.5781H79.1094V45.3945H88.8359V46.5781ZM80.082 42.7227C80.082 42.293 80.2402 41.9199 80.5566 41.6035C80.877 41.2871 81.3301 41.0449 81.916 40.877C82.5059 40.709 83.1914 40.625 83.9727 40.625C84.75 40.625 85.4297 40.709 86.0117 40.877C86.5977 41.0449 87.0508 41.2871 87.3711 41.6035C87.6914 41.9199 87.8516 42.293 87.8516 42.7227C87.8516 43.1523 87.6914 43.5273 87.3711 43.8477C87.0508 44.1641 86.5977 44.4082 86.0117 44.5801C85.4297 44.748 84.75 44.832 83.9727 44.832C83.1914 44.832 82.5059 44.748 81.916 44.5801C81.3301 44.4082 80.877 44.1641 80.5566 43.8477C80.2402 43.5273 80.082 43.1523 80.082 42.7227ZM81.6406 42.7227C81.6367 43.0352 81.834 43.2715 82.2324 43.4316C82.6348 43.5918 83.2148 43.6719 83.9727 43.6719C84.7188 43.6719 85.293 43.5918 85.6953 43.4316C86.1016 43.2715 86.3047 43.0352 86.3047 42.7227C86.3047 42.4219 86.1055 42.1914 85.707 42.0312C85.3086 41.8672 84.7441 41.7852 84.0137 41.7852C83.2441 41.7852 82.6543 41.8652 82.2441 42.0254C81.8379 42.1816 81.6367 42.4141 81.6406 42.7227ZM85.0156 47.5742V46.5781H82.918V47.5742H85.0156ZM93.6289 42.8281C93.625 43.4961 93.7246 44.1406 93.9277 44.7617C94.1309 45.3828 94.4355 45.9355 94.8418 46.4199C95.248 46.9043 95.7422 47.2695 96.3242 47.5156L95.4453 48.7109C94.8516 48.4414 94.3398 48.0547 93.9102 47.5508C93.4844 47.0469 93.1465 46.4551 92.8965 45.7754C92.6504 46.5176 92.3047 47.1641 91.8594 47.7148C91.4141 48.2617 90.875 48.6797 90.2422 48.9688L89.3398 47.7266C89.9414 47.4727 90.4492 47.0957 90.8633 46.5957C91.2812 46.0918 91.5938 45.5156 91.8008 44.8672C92.0078 44.2148 92.1133 43.5352 92.1172 42.8281V41.2344H93.6289V42.8281ZM96.8984 40.4141H98.4102V51.1016H96.8984V40.4141ZM108.84 45.8398H107.352V43.1914H105.348V42.0078H107.352V40.4141H108.84V45.8398ZM99.7695 44.7383C100.34 44.5703 100.816 44.3242 101.199 44C101.582 43.6758 101.865 43.3027 102.049 42.8809C102.236 42.459 102.332 42.0117 102.336 41.5391V40.7656H103.848V41.5391C103.844 41.9766 103.93 42.3945 104.105 42.793C104.281 43.1875 104.551 43.5391 104.914 43.8477C105.281 44.1523 105.738 44.3867 106.285 44.5508L105.5 45.6992C104.941 45.5234 104.461 45.2656 104.059 44.9258C103.656 44.582 103.336 44.1758 103.098 43.707C102.855 44.2344 102.521 44.6875 102.096 45.0664C101.67 45.4453 101.152 45.7305 100.543 45.9219L99.7695 44.7383ZM101.75 46.2852H108.84V49.1328H103.238V49.7891H109.145V50.9609H101.762V48.043H107.363V47.4336H101.75V46.2852Z" fill="#2F8CED"/>
<path d="M159 24.75C159 23.7554 159.395 22.8016 160.098 22.0983C160.802 21.3951 161.755 21 162.75 21C163.745 21 164.698 21.3951 165.402 22.0983C166.105 22.8016 166.5 23.7554 166.5 24.75C166.5 24.8826 166.447 25.0098 166.354 25.1036C166.26 25.1973 166.133 25.25 166 25.25C165.867 25.25 165.74 25.1973 165.646 25.1036C165.553 25.0098 165.5 24.8826 165.5 24.75C165.5 24.0207 165.21 23.3212 164.695 22.8055C164.179 22.2897 163.479 22 162.75 22C162.021 22 161.321 22.2897 160.805 22.8055C160.29 23.3212 160 24.0207 160 24.75C160 24.8826 159.947 25.0098 159.854 25.1036C159.76 25.1973 159.633 25.25 159.5 25.25C159.367 25.25 159.24 25.1973 159.146 25.1036C159.053 25.0098 159 24.8826 159 24.75ZM167.75 27.5C167.458 27.4997 167.171 27.5725 166.915 27.7119C166.838 27.4749 166.712 27.2571 166.545 27.0728C166.377 26.8886 166.172 26.7422 165.944 26.6434C165.715 26.5447 165.468 26.4959 165.219 26.5003C164.97 26.5046 164.725 26.5621 164.5 26.6687V24.75C164.5 24.2859 164.316 23.8408 163.987 23.5126C163.659 23.1844 163.214 23 162.75 23C162.286 23 161.841 23.1844 161.513 23.5126C161.184 23.8408 161 24.2859 161 24.75V29.75L160.761 29.3669C160.528 28.9657 160.145 28.6736 159.696 28.555C159.247 28.4364 158.769 28.5009 158.368 28.7344C157.967 28.9678 157.675 29.3511 157.556 29.7999C157.438 30.2487 157.502 30.7263 157.736 31.1275L159.568 34.2525C159.599 34.3134 159.642 34.3673 159.694 34.411C159.746 34.4547 159.807 34.4872 159.873 34.5066C159.938 34.5259 160.007 34.5317 160.074 34.5235C160.142 34.5154 160.207 34.4935 160.266 34.4592C160.325 34.4248 160.376 34.3788 160.417 34.3239C160.457 34.2691 160.486 34.2065 160.502 34.1401C160.517 34.0737 160.519 34.0048 160.506 33.9377C160.494 33.8706 160.468 33.8068 160.431 33.75L158.6 30.625C158.549 30.5396 158.515 30.4449 158.5 30.3463C158.486 30.2477 158.491 30.1472 158.516 30.0507C158.541 29.9542 158.585 29.8637 158.645 29.7844C158.706 29.705 158.781 29.6385 158.868 29.5887C158.954 29.5388 159.049 29.5067 159.148 29.4941C159.247 29.4816 159.347 29.4888 159.443 29.5155C159.539 29.5421 159.629 29.5877 159.707 29.6494C159.785 29.7111 159.851 29.7878 159.899 29.875L159.908 29.8894L161.075 31.7644C161.132 31.8569 161.218 31.9281 161.32 31.9674C161.421 32.0066 161.533 32.0116 161.637 31.9817C161.742 31.9518 161.834 31.8886 161.9 31.8017C161.965 31.7147 162 31.6088 162 31.5V24.75C162 24.5511 162.079 24.3603 162.22 24.2197C162.36 24.079 162.551 24 162.75 24C162.949 24 163.14 24.079 163.28 24.2197C163.421 24.3603 163.5 24.5511 163.5 24.75V29C163.5 29.1326 163.553 29.2598 163.646 29.3536C163.74 29.4473 163.867 29.5 164 29.5C164.133 29.5 164.26 29.4473 164.354 29.3536C164.447 29.2598 164.5 29.1326 164.5 29V28.25C164.5 28.0511 164.579 27.8603 164.72 27.7197C164.86 27.579 165.051 27.5 165.25 27.5C165.449 27.5 165.64 27.579 165.78 27.7197C165.921 27.8603 166 28.0511 166 28.25V29.5C166 29.6326 166.053 29.7598 166.146 29.8536C166.24 29.9473 166.367 30 166.5 30C166.633 30 166.76 29.9473 166.854 29.8536C166.947 29.7598 167 29.6326 167 29.5V29.25C167 29.0511 167.079 28.8603 167.22 28.7197C167.36 28.579 167.551 28.5 167.75 28.5C167.949 28.5 168.14 28.579 168.28 28.7197C168.421 28.8603 168.5 29.0511 168.5 29.25V31.5C168.5 32.8506 168.056 33.7688 168.053 33.7762C167.993 33.8949 167.984 34.0321 168.026 34.1579C168.068 34.2836 168.158 34.3876 168.276 34.4469C168.346 34.4819 168.422 34.5001 168.5 34.5C168.593 34.5001 168.684 34.4743 168.763 34.4255C168.842 34.3767 168.906 34.3068 168.948 34.2238C168.971 34.1781 169.501 33.0988 169.501 31.5V29.25C169.501 29.0201 169.455 28.7925 169.367 28.5802C169.279 28.3678 169.15 28.1749 168.988 28.0123C168.825 27.8498 168.632 27.7209 168.42 27.633C168.208 27.5451 167.98 27.4999 167.75 27.5Z" fill="black"/>
</svg>
