<svg width="388" height="660" viewBox="0 0 388 660" fill="none" xmlns="http://www.w3.org/2000/svg">
<path d="M113.683 91.6461C113.28 91.6058 112.876 91.5354 112.472 91.6159C110.918 91.9177 110.615 94.1309 111.352 95.5292C112.089 96.9275 113.441 97.9335 114.148 99.3419C114.531 100.106 114.703 100.961 115.137 101.696C116.015 103.175 117.73 103.889 119.345 104.513C120.475 104.945 121.878 105.348 122.786 104.553C123.553 103.889 123.715 102.561 124.684 102.269C125.996 101.867 126.773 103.708 127.954 104.402C128.589 104.774 129.367 104.794 130.083 104.664C131.708 104.372 133.101 103.406 134.453 102.46C134.958 102.098 135.472 101.736 135.896 101.283C136.936 100.157 137.309 98.4667 136.845 97.008C136.381 95.5493 135.089 94.3924 133.595 94.0705C132.808 93.8995 131.809 93.819 131.557 93.0545C131.445 92.7325 131.536 92.3804 131.607 92.0485C131.9 90.7306 131.668 89.3323 131.415 88.0346C131.244 87.1996 131.435 85.2581 131.123 84.5941C130.234 82.7431 126.833 83.3366 125.441 84.3225C123.372 85.7912 122.786 88.6181 120.546 90.0264C118.528 91.294 116.075 91.9177 113.693 91.6662L113.683 91.6461Z" fill="#2F8CED" stroke="white" stroke-width="0.75" stroke-linecap="round" stroke-linejoin="round"/>
</svg>
