<svg width="389" height="660" viewBox="0 0 389 660" fill="none" xmlns="http://www.w3.org/2000/svg">
<path d="M387.362 96.475C386.232 98.2958 383.689 99.1006 381.711 98.2556C380.711 97.8331 379.904 97.0585 379.117 96.314C378.32 95.5495 377.452 94.5737 377.694 93.5073C377.876 92.6925 378.663 92.1593 379.41 91.7569C381.125 90.8515 384.042 89.0609 386.05 90.0266C388.159 91.0326 388.493 94.6541 387.362 96.475Z" fill="#6E6E6E" stroke="black" stroke-width="0.75" stroke-linecap="round" stroke-linejoin="round"/>
<path d="M110.444 423.782C109.263 423.903 108.193 424.526 107.023 424.708C105.62 424.909 104.197 424.446 102.784 424.577C101.078 424.728 99.5846 425.714 98.0305 426.438C97.1423 426.85 96.1937 427.192 95.2147 427.142C94.6698 427.112 94.145 426.971 93.6101 426.88C91.5311 426.538 89.3209 427.072 87.6456 428.329C86.9493 428.852 86.2529 429.516 85.385 429.536C84.9107 429.536 84.4565 429.355 83.9822 429.385C82.9225 429.456 82.2564 430.542 81.2876 430.975C80.0462 431.518 78.4012 430.945 77.3718 431.82C76.8773 432.242 76.6553 432.916 76.1305 433.289C75.6864 433.611 75.1011 433.661 74.6167 433.922C73.8799 434.315 73.4762 435.099 73.0423 435.814C72.1037 437.353 70.8422 438.691 69.3687 439.727C68.7733 440.139 68.1173 440.542 67.7843 441.176C67.4714 441.769 67.4815 442.473 67.5017 443.147C67.5622 444.888 67.6833 446.789 68.8742 448.046C69.5302 448.73 70.4284 449.143 71.155 449.736C72.3863 450.753 73.2038 452.342 74.7075 452.885C74.9598 452.976 75.2424 453.036 75.5048 452.976C76.3525 452.795 76.5241 451.688 76.8167 450.873C77.2709 449.646 78.8554 448.71 79.8949 449.505C80.1573 449.706 80.3591 449.998 80.6719 450.129C81.7215 450.561 82.65 448.791 83.7601 449.052C84.3051 449.183 84.6785 449.797 85.2437 449.807C85.6877 449.817 86.0713 449.445 86.5153 449.435C87.3832 449.435 87.8576 450.763 88.7053 450.642C89.0182 450.602 89.2604 450.36 89.5228 450.169C91.9953 448.378 96.0221 451.356 98.3635 449.404C99.3525 448.58 99.8672 446.97 101.149 446.92C101.936 446.89 102.673 447.523 103.45 447.392C104.338 447.242 104.893 446.165 105.801 446.155C106.508 446.145 107.255 446.819 107.85 446.427C108.355 446.105 108.244 445.3 108.647 444.857C109.253 444.193 110.323 444.817 111.211 444.898C111.917 444.958 112.644 444.596 113.027 444.002C113.169 443.791 113.26 443.54 113.441 443.359C113.704 443.097 114.077 443.016 114.4 442.835C115.894 442.01 115.581 439.697 116.691 438.409C117.619 437.343 119.537 436.9 119.547 435.492C119.547 435.049 119.335 434.627 119.295 434.194C119.234 433.5 119.607 432.816 119.496 432.132C119.385 431.448 118.83 430.925 118.528 430.301C117.983 429.184 118.184 427.625 117.165 426.911C116.509 426.458 115.641 426.569 114.844 426.538C112.523 426.468 113.007 423.49 110.414 423.752L110.444 423.782Z" fill="#B4B2B2" stroke="black" stroke-width="0.75" stroke-linecap="round" stroke-linejoin="round"/>
<path d="M137.168 164.721C135.916 164.701 134.988 166.009 134.887 167.256C134.796 168.503 135.291 169.711 135.644 170.908C136.502 173.795 136.582 176.893 135.896 179.821C135.492 181.521 134.857 183.382 135.674 184.931C136.088 185.726 136.835 186.289 137.44 186.953C138.631 188.251 139.338 189.981 139.378 191.742C139.418 193.462 138.904 195.383 139.913 196.782C140.528 197.637 141.528 198.019 142.567 198.351C142.577 198.25 142.597 198.15 142.618 198.059C142.85 196.661 143.082 195.263 143.314 193.864C143.536 192.526 143.889 190.997 145.1 190.373C146.089 189.86 147.391 190.112 148.269 189.428C149.006 188.854 149.167 187.818 149.43 186.923C149.682 186.028 150.096 185.193 150.621 184.428C150.368 184.066 150.106 183.704 149.894 183.311C149.399 182.396 149.44 180.957 150.429 180.625C149.884 179.147 147.32 179.982 146.291 178.795C145.484 177.859 146.16 176.34 145.645 175.213C145.332 174.539 144.626 174.097 144.343 173.413C143.97 172.537 144.374 171.552 144.757 170.696C145.11 169.932 145.453 169.167 145.807 168.403C143.496 168.01 141.265 167.105 139.348 165.747C138.682 165.274 137.985 164.721 137.168 164.711V164.721Z" fill="white" stroke="black" stroke-width="0.75" stroke-linecap="round" stroke-linejoin="round"/>
<path d="M178.384 130.497C180.291 131.322 183.259 130.085 185.176 129.703C186.296 129.481 187.487 129.22 188.284 128.395C189.273 127.369 189.354 125.81 189.627 124.421C189.899 123.033 190.707 121.454 192.13 121.343C193.643 121.222 194.673 122.792 195.42 124.109C196.166 125.427 197.458 126.906 198.911 126.453C199.911 126.142 200.405 125.075 201.031 124.24C201.657 123.405 202.928 122.741 203.685 123.466C203.968 123.727 204.129 124.15 204.492 124.25C205.239 124.462 205.492 123.295 206.006 122.711C206.692 121.937 207.994 122.279 208.812 122.912C209.629 123.546 210.316 124.431 211.305 124.703C212.596 125.055 213.898 124.25 214.998 123.486C216.018 123.908 215.523 125.488 214.675 126.192C213.828 126.886 212.667 127.56 212.697 128.657C212.738 130.095 214.766 130.497 216.159 130.115C217.552 129.733 219.156 129.069 220.337 129.914C221.205 130.538 221.488 131.805 222.426 132.308C223.779 133.033 225.323 131.745 226.857 131.664C229.077 131.554 230.55 133.918 232.589 134.783C234.426 135.568 236.656 135.085 238.422 136.02C239.542 136.614 240.309 137.7 241.228 138.576C242.146 139.461 243.428 140.185 244.639 139.813C246.032 138.344 246.708 136.222 246.425 134.22C246.314 133.465 246.092 132.65 246.425 131.966C246.819 131.172 247.828 130.88 248.706 130.93C250.704 131.061 252.511 132.68 252.834 134.642C252.955 135.366 252.935 136.181 253.449 136.704C254.6 137.851 256.306 136.151 257.799 135.507C260.292 134.421 263.229 136.584 265.843 135.809C267.427 135.336 268.719 133.827 270.374 133.918C273.169 134.079 274.36 138.616 277.136 138.324C279.033 138.123 279.79 135.869 280.658 134.179C281.808 131.946 283.887 130.236 286.269 129.431C286.229 129.381 286.188 129.32 286.148 129.27C284.513 126.725 286.733 123.003 285.139 120.438C284.836 119.955 284.422 119.552 284.19 119.039C283.978 118.577 283.918 118.053 283.686 117.591C283.211 116.645 282.121 116.192 281.344 115.478C280.668 114.864 280.224 114.009 280.083 113.114C279.911 112.018 280.153 110.76 279.447 109.915C278.983 109.352 278.226 109.151 277.58 108.798C276.52 108.235 275.703 107.219 275.38 106.072C275.259 105.63 275.198 105.177 275.026 104.754C274.582 103.608 273.472 102.893 272.594 102.028C270.939 100.398 270.041 98.0444 270.182 95.7307C270.212 95.2679 270.283 94.8052 270.182 94.3525C269.97 93.3968 269.092 92.7731 268.285 92.2298C267.286 91.5659 266.801 90.751 266.155 89.7451C265.812 89.2119 265.489 88.5882 265.61 87.9645C265.691 87.5721 265.933 87.2402 266.034 86.8478C266.357 85.6205 265.368 84.8761 264.652 84.1115C263.784 83.186 263.128 82.1298 262.179 81.2646C261.341 80.5101 260.403 79.8663 259.585 79.0917C257.355 76.9791 256.154 74.0014 254.065 71.7581C252.965 70.5811 251.562 69.4946 251.27 67.9152C251.169 67.3921 251.199 66.8388 251.017 66.3358C250.856 65.8932 250.533 65.521 250.21 65.1588C247.455 62.0403 244.841 58.801 242.227 55.5617C241.389 54.5255 240.542 53.4693 240.098 52.2218C239.764 51.2762 239.664 50.23 239.139 49.385C238.624 48.5701 237.776 48.0269 237.04 47.4032C234.809 45.5119 235.596 42.6851 234.769 40.1802C234.345 38.8925 233.548 37.7659 232.851 36.5989C230.621 32.8265 229.47 28.4907 227.21 24.7383C226.463 23.501 225.595 22.3139 225.171 20.9257C224.879 19.9499 224.818 18.9036 224.435 17.958C223.98 16.8213 223.082 15.8957 222.578 14.7791C221.861 13.1796 221.982 11.2682 221.124 9.73912C220.519 8.65266 219.459 7.82775 219.076 6.65075C218.914 6.15782 218.854 5.58441 218.46 5.24237C218.026 4.88022 217.36 4.9607 216.875 5.24237C215.533 5.99686 215.21 7.78751 215.301 9.32667C215.392 10.8658 215.735 12.4653 215.19 13.9039C214.231 16.4088 214.241 18.9238 212.667 21.0866C211.093 23.2596 208.994 24.9898 206.864 26.6296C206.077 27.2332 205.27 27.8368 204.371 28.2694C203.14 28.8528 201.757 29.1144 200.637 29.8789C200.143 30.2109 199.719 30.6334 199.194 30.905C198.568 31.237 197.862 31.3376 197.155 31.4181C195.036 31.6293 192.886 31.5589 190.787 31.1968C189.475 30.9755 188.143 30.6334 186.821 30.8145C185.802 30.9553 184.843 31.3879 183.864 31.6897C182.875 31.9915 181.775 32.1424 180.836 31.7199C180.332 31.4885 179.908 31.1062 179.423 30.8547C178.303 30.2612 176.961 30.3517 175.699 30.4523C174.721 30.5328 173.752 30.6133 172.773 30.6938C170.119 30.402 167.696 30.3819 165.042 30.0902C164.073 29.9795 163.034 29.889 162.156 30.3115C161.026 30.8547 160.137 32.2128 158.906 31.9814C158.492 31.901 158.149 31.6595 157.796 31.4281C155.172 29.7582 151.791 29.3357 148.834 30.3115C148.249 30.5026 147.674 30.7541 147.068 30.8246C145.161 31.066 143.172 29.6274 141.396 30.3719C140.387 30.7944 139.701 31.8607 138.631 32.072C137.723 32.2531 136.814 31.7601 135.896 31.6595C134.11 31.4583 132.515 32.6856 131.133 33.8425C129.568 35.1603 128.004 36.4782 126.44 37.786C126.853 38.2085 127.187 38.7517 127.429 39.2949C127.873 40.311 127.994 41.2164 128.266 42.2626C128.559 43.3591 129.911 43.3792 130.678 43.9828C131.869 44.9285 132.253 46.4777 133.272 47.5641C133.837 48.1677 134.665 48.5802 135.492 48.4896C138.651 48.1577 135.583 44.3953 137.047 42.665C138.671 42.8863 138.823 45.7131 140.438 45.9344C141.376 46.0652 142.123 45.2101 142.728 44.4959C143.344 43.7716 144.303 43.0473 145.151 43.4698C144.858 44.4355 144.555 45.4113 144.262 46.3771C144.131 46.8096 144 47.3026 144.202 47.705C144.353 48.0068 144.656 48.1979 144.939 48.3689C145.796 48.892 146.664 49.4252 147.522 49.9483C147.734 50.0791 147.956 50.2099 148.198 50.2099C149.187 50.2199 149.137 48.5098 150.025 48.0772C150.53 47.8257 151.165 48.1275 151.478 48.5902C151.791 49.053 151.872 49.6365 151.943 50.1898C152.498 49.6465 153.073 49.0932 153.81 48.8619C154.546 48.6305 155.485 48.8619 155.818 49.5459C156 49.9181 155.979 50.3507 155.939 50.7531C155.818 52.0609 155.556 53.3787 155.767 54.6764C155.979 55.9742 156.807 57.2819 158.089 57.5837C158.977 57.7849 159.885 57.4831 160.793 57.4228C161.702 57.3624 162.792 57.7145 163.004 58.5897C163.246 59.5957 162.277 60.9035 163.084 61.5473C163.347 61.7485 163.69 61.7787 164.023 61.829C166.082 62.1308 168.029 64.0824 167.565 66.1044C167.222 67.5732 165.829 68.5289 164.548 69.3236C163.377 70.0479 162.206 70.7823 161.036 71.5066C160.632 73.0055 161.924 74.4541 162.004 76.0033C162.085 77.7235 158.896 80.3592 160.218 81.7676C160.733 81.6268 161.268 81.4859 161.793 81.5362C162.327 81.5865 162.872 81.8783 163.074 82.3712C163.266 82.844 163.115 83.3772 162.963 83.8701C162.691 84.7151 161.005 88.1958 161.389 88.9302C162.075 90.2481 163.791 88.6385 164.669 88.2562C165.981 87.6828 167.555 88.0047 168.786 88.729C170.028 89.4533 170.997 90.5499 171.945 91.6162C173.035 92.8536 174.014 92.9743 175.669 93.0447C177.324 93.1151 179.05 92.9642 180.554 93.6282C181.694 94.1412 182.673 95.5295 182.007 96.5858C181.331 97.6722 179.575 97.4509 178.677 98.3563C177.99 99.0504 178.031 100.207 178.394 101.123C178.757 102.028 179.383 102.813 179.777 103.718C180.604 105.62 180.221 107.974 178.848 109.523C178.313 110.126 177.627 110.629 177.264 111.344C176.537 112.792 177.324 114.492 177.597 116.092C178.001 118.426 177.032 121.122 174.882 122.138C175.518 121.836 175.477 122.973 175.266 124.22C176.325 126.121 176.527 129.642 178.384 130.447V130.497Z" fill="#DADADA" stroke="black" stroke-width="0.75" stroke-linecap="round" stroke-linejoin="round"/>
<path d="M92.5908 87.049C92.9137 87.6727 93.3376 88.3668 93.0853 89.0207C92.8935 89.5136 92.3688 89.8053 92.177 90.2983C91.9449 90.9019 92.288 91.6765 91.8843 92.1795C91.6017 92.5416 91.0467 92.5819 90.6026 92.441C90.1586 92.3002 89.7751 92.0286 89.3512 91.8475C88.3016 91.4149 87.1107 91.6061 85.9804 91.757C84.8501 91.9079 83.6189 91.9883 82.6702 91.3646C81.7114 90.751 81.3582 89.1615 82.2867 88.5076C82.6096 88.2763 83.0234 88.1958 83.3363 87.9543C83.8005 87.6022 83.9519 86.9584 83.8813 86.385C83.8005 85.8116 83.528 85.2885 83.2656 84.7754C82.9427 84.1517 82.5693 83.4878 81.9133 83.2061C81.4894 83.025 80.9848 83.0351 80.6215 82.7534C80.1875 82.4214 80.1068 81.8178 80.0563 81.2746C79.9554 80.0976 79.8545 78.9105 79.7435 77.7335C79.6526 76.6974 79.7435 75.3494 80.7426 75.0274C81.0353 74.9369 81.3481 74.957 81.6408 74.8464C82.1858 74.6351 82.4583 74.0315 82.8519 73.609C83.6088 72.8042 84.8703 72.6433 85.9401 72.935C87.0098 73.2267 87.9282 73.8907 88.8264 74.5446C90.6127 75.8423 92.0054 77.472 91.844 79.7757C91.6724 82.2504 91.3898 84.7352 92.5706 87.049H92.5908Z" fill="#B4B2B2" stroke="black" stroke-width="0.75" stroke-linecap="round" stroke-linejoin="round"/>
<path d="M131.657 146.161C133.242 145.436 135.341 144.652 136.522 145.929C137.047 146.503 137.228 147.388 137.894 147.78C138.419 148.092 139.075 147.992 139.691 148.052C141.517 148.233 142.839 149.792 143.96 151.241C145.029 151.15 145.08 149.601 145.675 148.706C146.301 147.77 147.573 147.609 148.683 147.398C149.793 147.197 151.075 146.654 151.236 145.547C151.347 144.813 150.923 143.988 151.327 143.364C151.882 142.509 153.214 143.012 154.213 142.791C156.181 142.348 156.403 139.189 158.341 138.626C159.693 138.244 161.54 139.24 162.337 138.093C162.58 137.751 162.62 137.308 162.822 136.946C163.438 135.86 165.022 136.051 166.223 135.719C167.959 135.246 169.119 133.264 168.685 131.524C168.433 130.538 167.878 129.23 168.766 128.727C169.584 129.441 170.472 130.196 171.552 130.347C173.62 130.638 173.954 128.476 174.599 127.067C174.7 126.856 176.164 121.554 174.882 122.168C177.032 121.152 178 118.466 177.597 116.122C177.324 114.523 176.537 112.822 177.264 111.374C177.627 110.65 178.313 110.157 178.848 109.553C180.221 108.004 180.604 105.65 179.777 103.748C179.383 102.853 178.757 102.069 178.394 101.153C178.031 100.248 177.99 99.0908 178.677 98.3866C179.575 97.4812 181.321 97.7025 182.007 96.6161C182.673 95.5598 181.694 94.1615 180.554 93.6585C179.05 92.9845 177.314 93.1454 175.669 93.075C174.014 93.0046 173.035 92.8738 171.945 91.6465C170.997 90.5701 170.028 89.4836 168.786 88.7593C167.545 88.035 165.981 87.7131 164.669 88.2865C163.791 88.6688 162.075 90.2784 161.389 88.9605C161.005 88.2262 162.691 84.7354 162.963 83.9004C163.115 83.4175 163.276 82.8743 163.074 82.4015C162.872 81.9086 162.327 81.6168 161.792 81.5665C161.258 81.5162 160.733 81.6571 160.218 81.7979C158.906 80.3895 162.085 77.7539 162.004 76.0336C161.924 74.4743 160.632 73.0358 161.036 71.5369C162.206 70.8126 163.377 70.0782 164.548 69.3539C165.829 68.5491 167.232 67.6035 167.565 66.1347C168.029 64.1127 166.092 62.1611 164.023 61.8593C163.7 61.809 163.347 61.7889 163.084 61.5776C162.267 60.9338 163.246 59.626 163.004 58.62C162.792 57.7448 161.702 57.3927 160.793 57.4531C159.885 57.5135 158.977 57.8153 158.089 57.6141C156.807 57.3223 155.979 56.0045 155.767 54.7068C155.556 53.409 155.818 52.0912 155.939 50.7834C155.979 50.371 156 49.9384 155.818 49.5762C155.485 48.8821 154.546 48.6608 153.81 48.8922C153.073 49.1235 152.488 49.6768 151.943 50.2201C151.872 49.6668 151.801 49.0833 151.478 48.6206C151.165 48.1578 150.53 47.856 150.025 48.1075C149.137 48.5401 149.187 50.2603 148.198 50.2402C147.956 50.2402 147.734 50.1094 147.522 49.9786C146.664 49.4555 145.796 48.9224 144.939 48.3992C144.646 48.2282 144.343 48.027 144.202 47.7353C144 47.3228 144.131 46.84 144.262 46.4074C144.555 45.4416 144.858 44.4658 145.151 43.5001C144.303 43.0776 143.344 43.8019 142.728 44.5262C142.113 45.2505 141.366 46.0955 140.438 45.9648C138.813 45.7334 138.671 42.9066 137.047 42.6953C135.583 44.4155 138.651 48.188 135.492 48.52C134.665 48.6105 133.837 48.198 133.272 47.5944C132.263 46.518 131.879 44.9588 130.678 44.0131C129.921 43.4096 128.559 43.3894 128.266 42.2929C127.994 41.2467 127.873 40.3413 127.429 39.3253C127.187 38.782 126.853 38.2388 126.44 37.8163C125.814 38.3394 125.188 38.8726 124.552 39.3957C123.876 39.959 122.998 40.6029 122.494 41.3171C122.393 41.468 122.302 41.6189 122.262 41.7899C122.201 42.0414 122.262 42.303 122.302 42.5545C122.484 43.5806 122.534 44.6369 122.453 45.6831C121.414 46.508 120.435 47.0412 119.395 47.8761C118.427 48.6507 117.437 49.4455 116.822 50.5219C116.257 51.5077 116.055 52.6445 115.712 53.7209C114.904 56.1956 113.239 58.3987 110.999 59.7266C108.708 61.0847 105.983 61.467 103.329 61.8291C103.298 64.163 103.329 66.5371 103.298 68.871C103.298 69.3438 103.298 69.8569 103.601 70.2291C104.025 70.7422 105.014 71.0439 104.782 71.6677C104.61 72.1405 103.914 72.0902 103.51 72.3819C103.117 72.6736 103.076 73.237 103.076 73.7299C103.046 77.1905 103.016 80.641 102.986 84.1016C102.986 84.5141 102.986 84.9567 103.218 85.2887C103.49 85.681 103.985 85.8219 104.429 85.9828C106.013 86.5763 107.355 87.7936 108.092 89.3126C106.467 89.1014 105.075 88.0652 103.773 87.0693C103.197 86.6266 102.602 86.1639 102.289 85.51C101.997 84.8963 101.997 84.2022 101.966 83.5182C101.906 81.7778 101.684 80.0475 101.31 78.3474C101.199 77.8545 100.907 77.2408 100.402 77.3313C100.109 77.3816 99.9377 77.6633 99.7359 77.8746C98.5753 79.1824 96.4761 78.6492 94.7302 78.4681C94.4173 78.4379 94.0641 78.4279 93.8017 78.5989C93.4485 78.8403 93.3677 79.3232 93.3273 79.7558C92.9741 83.1761 92.6613 86.8077 94.1347 89.9162C94.5889 90.8618 95.1944 91.727 95.6384 92.6827C96.1027 93.6786 96.3651 94.7248 96.5266 95.8012C96.9504 95.6805 97.3642 95.4894 97.7174 95.258C98.6055 94.6745 99.3019 93.8496 100.14 93.1957C101.896 91.8276 104.247 91.2642 106.437 91.6867C106.901 91.7773 107.376 91.9181 107.749 92.2099C108.657 92.9342 108.688 94.2922 108.476 95.4391C108.264 96.5758 107.911 97.783 108.334 98.8695C108.768 99.9962 109.979 100.741 110.212 101.928C110.343 102.592 110.141 103.276 109.929 103.92C109.273 106.012 108.476 108.275 106.599 109.412C106.023 109.764 105.377 109.986 104.742 110.227C104.923 110.388 105.044 110.599 105.054 110.851C105.075 111.414 104.509 111.806 103.985 112.008C103.46 112.209 102.854 112.36 102.541 112.822C102.047 113.547 102.622 114.583 103.399 114.975C104.187 115.368 105.095 115.368 105.963 115.549C106.881 115.74 107.739 116.152 108.466 116.746C108.647 116.897 108.829 117.068 108.879 117.299C109 117.913 108.183 118.225 107.557 118.295C106.508 118.406 105.468 118.516 104.419 118.627C103.742 118.697 102.753 118.436 102.925 117.782C102.572 117.168 101.563 117.712 101.169 118.305C100.785 118.899 100.846 119.673 100.886 120.377C100.937 121.082 100.927 121.866 100.462 122.41C99.2918 122.188 100.362 119.814 99.2615 119.341C98.8276 119.16 98.3028 119.432 97.8688 119.251C97.4248 119.07 97.3037 118.516 97.0009 118.144C96.4256 117.43 95.2247 117.51 94.5687 118.144C93.9127 118.778 93.7512 119.784 93.8925 120.679C93.9934 121.283 94.2054 121.947 93.8925 122.48C93.7108 122.802 93.3677 123.003 93.1457 123.295C92.7016 123.878 92.8429 124.814 93.4384 125.246C94.0338 125.669 94.9724 125.508 95.3861 124.894C95.5073 124.713 95.5981 124.502 95.7797 124.401C96.1834 124.19 96.6578 124.643 97.1018 124.552C97.6771 124.442 97.7275 123.587 98.222 123.265C98.8175 122.862 99.5845 123.476 99.9579 124.09C100.604 125.136 100.997 126.343 101.078 127.58C101.129 128.305 101.361 129.311 102.087 129.22C102.663 129.14 103.187 128.305 103.631 128.677C104.005 128.999 103.541 129.542 103.208 129.904C102.441 130.719 102.38 132.097 103.056 132.972C103.177 133.133 103.339 133.284 103.541 133.314C103.874 133.375 104.166 133.083 104.368 132.801C105.115 131.755 105.569 130.518 106.296 129.451C107.022 128.385 108.183 127.46 109.475 127.56C110.767 127.661 111.846 129.25 111.09 130.296C110.494 131.111 109.202 131.172 108.627 132.007C107.709 133.345 109.424 135.306 108.637 136.735C108.193 137.529 107.043 137.982 107.083 138.888C107.133 139.873 108.496 140.115 109.475 139.984C110.464 139.853 111.776 139.843 112.089 140.779C111.412 141.221 110.645 141.533 109.858 141.704C109.434 142.177 110.171 142.871 110.807 142.861C111.443 142.851 112.119 142.559 112.674 142.861C113.35 143.213 113.391 144.129 113.683 144.833C114.006 145.618 114.692 146.181 115.348 146.724C116.337 147.529 117.377 148.354 118.618 148.646C119.86 148.937 121.373 148.505 121.908 147.348C122.362 146.372 122.211 144.893 123.24 144.531C123.785 145.768 123.594 147.257 122.857 148.374C124.018 148.163 125.33 148.173 126.319 147.951C128.145 147.549 129.921 146.956 131.627 146.181L131.657 146.161Z" fill="white" stroke="black" stroke-width="0.75" stroke-linecap="round" stroke-linejoin="round"/>
<path d="M177.839 303.738C176.931 301.636 173.812 301.193 172.924 299.08C172.692 298.527 172.652 297.903 172.419 297.34C171.602 295.298 168.897 294.855 167.242 293.407C165.183 291.596 165.002 288.548 164.497 285.852C163.992 283.156 162.882 280.389 160.632 278.8C158.381 277.21 154.788 277.351 153.285 279.655C152.78 280.429 152.326 281.516 151.397 281.506C150.62 281.506 150.055 280.661 149.288 280.621C148.158 280.57 147.643 282.18 146.553 282.472C146.17 282.572 145.766 282.502 145.383 282.401C143.495 281.928 141.457 280.922 139.721 281.818C139.196 282.089 138.591 282.522 138.096 282.2C137.662 281.918 137.713 281.244 137.349 280.872C136.774 280.278 135.805 280.872 135.099 281.305C133.232 282.472 130.638 282.341 128.902 280.993C128.71 280.842 128.519 280.671 128.468 280.439C128.377 280.027 128.73 279.665 129.033 279.353C129.81 278.558 130.325 277.17 129.528 276.395C128.73 275.611 127.065 275.953 126.621 274.927C126.268 274.112 127.065 273.287 127.328 272.432C127.59 271.567 127.207 270.551 126.44 270.068C125.673 269.585 124.593 269.685 123.917 270.289C122.685 271.406 122.816 273.86 121.202 274.263C119.617 274.655 118.709 272.623 117.861 271.235C116.751 269.434 114.662 268.237 112.543 268.348C110.423 268.458 108.405 269.917 107.779 271.939C107.547 272.693 107.497 273.498 107.214 274.233C106.538 276.003 104.57 277.25 104.489 279.152C103.793 278.649 102.773 278.81 102.057 279.303C101.34 279.796 100.876 280.55 100.422 281.284C100.109 280.631 99.7761 279.957 99.1908 279.534C98.6054 279.112 97.6971 279.031 97.2127 279.564C96.3952 280.46 97.3035 281.999 96.2539 282.783C95.4769 283.367 93.6199 282.944 92.8731 282.401C90.8345 280.922 92.0657 278.065 90.1381 276.315C88.9169 275.198 89.6032 273.689 88.0288 272.673C87.282 272.2 86.404 271.959 85.4957 271.848C85.4251 272.029 85.3443 272.221 85.2737 272.402C84.1938 274.977 82.5791 277.371 82.0341 280.158C81.8121 281.325 81.6102 282.753 80.5102 283.186C80.1671 283.317 79.7937 283.337 79.4606 283.467C78.5321 283.85 78.2596 285.007 78.1991 286.003C78.1789 286.294 78.1688 286.606 77.9972 286.848C77.866 287.039 77.644 287.159 77.4725 287.31C76.7559 287.924 76.7862 289.212 77.533 289.795C77.7449 289.956 78.0073 290.077 78.1789 290.278C78.5624 290.721 78.4413 291.425 78.7642 291.918C79.2083 292.592 80.1872 292.541 80.9341 292.853C82.791 293.648 82.6598 296.455 84.1434 297.833C84.9709 298.597 86.2627 298.859 86.8279 299.835C87.4233 300.841 86.949 302.139 86.3435 303.134C86.1012 303.537 85.8187 303.939 85.4251 304.181C85.0214 304.432 84.4764 304.482 84.0929 304.201C83.3764 303.668 83.7901 302.501 83.4369 301.676C83.2149 301.163 82.7002 300.821 82.1552 300.69C81.2368 300.448 80.1267 300.811 79.7331 301.676C79.3496 302.541 80.0661 303.748 81.0047 303.637C81.5093 303.577 82.0745 303.215 82.4479 303.547C82.7002 303.768 82.6699 304.15 82.6295 304.482C82.5791 304.814 82.5387 305.146 82.4883 305.478C82.458 305.67 82.4277 305.891 82.2763 306.012C82.0745 306.183 81.7717 306.112 81.4992 306.102C80.6111 306.052 79.7735 306.816 79.723 307.692C79.7129 307.933 79.7432 308.185 79.6423 308.396C79.4606 308.778 78.956 308.848 78.5624 308.999C77.6541 309.341 77.0688 310.378 77.2504 311.333C77.4321 312.289 78.3505 313.043 79.3193 313.033C80.2882 313.033 81.1965 312.249 81.3579 311.293C81.4488 310.78 81.3377 310.247 81.4589 309.744C81.58 309.241 82.0745 308.748 82.569 308.929C83.0635 308.687 83.6791 309.301 83.7296 309.854C83.78 310.408 83.4975 310.931 83.2754 311.434C82.7406 312.681 82.5488 314.09 82.7305 315.438C82.9121 316.766 83.447 318.093 83.1442 319.401C82.8011 320.91 81.3882 322.047 81.1965 323.586C81.1561 323.878 81.1763 324.19 81.3478 324.431C81.479 324.612 81.6809 324.723 81.8928 324.803C82.4681 325.025 83.1241 325.025 83.6993 324.793C84.1434 324.622 84.5168 324.32 84.9406 324.099C86.4242 323.335 88.2206 323.626 89.8555 324.009C90.2895 324.109 90.7436 324.22 91.0868 324.512C91.4299 324.803 91.6116 325.316 91.3895 325.709C91.1574 326.111 90.6023 326.192 90.1583 326.081C89.7142 325.97 89.3206 325.699 88.8867 325.548C87.1811 324.934 85.4049 326.111 83.6287 326.524C82.9828 326.674 82.246 326.765 81.8726 327.318C81.3882 328.033 81.9534 329.059 82.7305 329.421C83.5177 329.783 84.4159 329.703 85.2838 329.713C87.6857 329.743 90.2087 330.658 91.5813 332.63C91.9749 333.203 92.2474 334.018 91.7932 334.541C91.4299 334.964 90.7739 334.964 90.2188 334.913C89.2096 334.823 88.0288 334.592 87.5949 333.676C87.3628 333.183 87.4031 332.6 87.2316 332.077C86.8582 330.96 85.5765 330.427 84.4058 330.296C84.1131 330.266 83.7901 330.246 83.5277 330.377C82.902 330.658 82.791 331.473 82.5589 332.127C82.2158 333.103 81.4084 333.938 81.4084 334.974C81.4084 336.302 82.6901 337.227 83.8911 337.811C85.092 338.394 86.4545 338.968 86.949 340.205C84.8397 340.949 82.236 339.712 81.479 337.62C81.1157 336.604 81.1258 335.437 80.5001 334.561C80.2579 334.209 79.9248 333.928 79.6826 333.576C79.1982 332.871 79.1377 331.976 79.1175 331.131C79.0973 330.286 79.1175 329.401 78.7542 328.626C78.4009 327.851 77.5532 327.228 76.7256 327.439C76.1706 327.58 75.7568 328.063 75.454 328.546C74.7274 329.682 74.3035 330.819 74.3338 332.187C74.3641 333.384 74.4549 334.592 74.7375 335.769C75.2017 337.7 76.1504 339.471 77.099 341.211C77.3413 341.664 77.6037 342.126 78.0073 342.438C78.6734 342.941 79.5817 342.921 80.3992 343.052C82.1148 343.324 83.6287 344.279 85.092 345.215C86.8077 346.311 88.5839 347.609 88.3215 349.893C88.2206 350.718 87.9784 351.542 88.0995 352.357C88.2206 353.182 88.8766 354.017 89.7041 353.957C90.0876 353.927 90.4611 353.705 90.8446 353.766C91.44 353.846 91.7528 354.701 91.3391 355.144C91.0161 355.486 90.461 355.516 90.1381 355.858C89.795 356.22 89.8454 356.784 89.7041 357.266C89.5225 357.88 89.0179 358.353 88.7353 358.936C88.4527 359.52 88.5536 360.405 89.1793 360.566C90.1684 360.838 90.9253 359.037 91.8538 359.46C92.4593 359.731 92.3281 360.616 92.096 361.23C91.773 362.045 91.4198 362.89 91.4501 363.765C91.4501 363.976 91.4905 364.188 91.6116 364.369C91.9446 364.862 92.7621 364.711 93.1859 364.278C93.6098 363.846 93.8016 363.252 94.1548 362.769C94.3263 362.548 94.5585 362.337 94.8309 362.327C95.164 362.327 95.4264 362.608 95.7191 362.769C96.6576 363.312 97.899 362.578 98.3329 361.582C98.7669 360.596 98.6559 359.47 98.666 358.393C98.666 357.317 98.8476 356.13 99.6651 355.426C100.765 354.48 102.622 354.762 103.591 353.685C106.316 350.677 109.101 347.941 109.101 343.887C109.101 342.549 108.576 340.617 109.01 339.35C109.091 339.119 109.313 338.917 109.555 338.948C109.929 338.988 110.05 339.461 110.06 339.833C110.1 340.768 110.1 341.714 110.1 342.639C110.11 344.833 110.181 347.036 110.322 349.219C110.353 349.661 110.383 350.124 110.615 350.506C111.14 351.381 112.381 351.432 113.239 351.985C113.794 352.347 114.188 352.921 114.753 353.273C115.318 353.625 116.216 353.635 116.509 353.041C116.66 352.729 116.61 352.307 116.852 352.055C117.175 351.713 117.76 351.925 118.154 352.186C118.548 352.448 119.022 352.77 119.456 352.579C120.273 352.226 119.759 350.687 120.556 350.265C120.748 350.164 120.96 350.164 121.171 350.134C122.413 349.953 123.372 348.675 123.19 347.438C123.109 346.865 122.806 346.311 122.887 345.728C123.018 344.762 124.108 344.219 124.512 343.324C125.138 341.935 123.977 340.114 124.845 338.877C125.743 337.599 126.904 337.117 128.317 336.443C130.103 335.588 131.647 334.26 132.737 332.62C133.01 332.207 133.575 331.735 133.898 332.117C133.988 332.217 134.019 332.358 134.11 332.459C134.251 332.61 134.493 332.61 134.695 332.6C136.067 332.539 137.581 332.409 138.54 331.423C139.58 330.356 139.6 328.646 140.488 327.449C140.609 327.288 140.76 327.127 140.962 327.107C141.245 327.077 141.477 327.328 141.578 327.6C141.679 327.862 141.689 328.153 141.81 328.415C142.153 329.129 143.122 329.22 143.929 329.21C144.414 329.21 144.979 329.149 145.231 328.737C145.372 328.515 145.372 328.234 145.514 328.002C145.817 327.509 146.614 327.56 147.017 327.972C147.421 328.385 147.512 328.998 147.542 329.582C147.583 330.548 147.472 331.523 147.219 332.459C147.088 332.952 146.906 333.445 146.553 333.807C146.2 334.179 145.655 334.39 145.171 334.219C143.869 333.757 144.383 331.322 143.082 330.88C142.426 330.658 141.679 331.222 141.578 331.906C141.507 332.399 141.689 332.902 141.588 333.384C141.437 334.159 140.629 334.662 140.427 335.427C140.326 335.819 140.397 336.231 140.326 336.624C140.256 337.016 139.923 337.428 139.529 337.368C139.226 337.318 139.045 337.026 138.802 336.845C138.338 336.473 137.622 336.513 137.147 336.875C136.673 337.237 136.441 337.861 136.481 338.445C136.522 338.958 136.723 339.531 136.441 339.964C136.168 340.376 135.593 340.426 135.129 340.607C134.311 340.929 133.787 341.724 133.322 342.468C133.02 342.951 132.707 343.505 132.878 344.048C133.1 344.742 134.039 345.024 134.241 345.728C134.301 345.939 134.291 346.181 134.433 346.352C134.574 346.523 134.816 346.553 135.038 346.563C135.745 346.613 136.451 346.613 137.147 346.563C137.652 346.533 138.52 346.744 138.964 346.593C139.236 346.502 139.458 346.321 139.711 346.191C140.801 345.657 142.062 346.382 143.061 347.076C143.293 347.237 143.546 347.418 143.616 347.7C143.717 348.132 143.324 348.595 143.505 349.007C143.687 349.44 144.323 349.42 144.696 349.701C145.413 350.245 145.13 351.764 146.018 351.895C146.563 351.975 146.947 351.361 147.058 350.818C147.169 350.285 147.209 349.661 147.643 349.319C148.178 348.897 148.955 349.188 149.641 349.188C150.439 349.188 151.216 348.716 151.589 348.011C151.71 347.79 151.791 347.549 151.953 347.368C152.205 347.096 152.588 347.016 152.931 346.855C153.82 346.432 154.354 345.376 154.153 344.41C154.092 344.108 153.951 343.806 153.668 343.666C153.113 343.384 152.286 343.887 151.882 343.404C151.65 343.122 151.751 342.7 151.599 342.378C151.418 342.016 150.943 341.885 150.54 341.976C150.146 342.066 149.813 342.328 149.49 342.579C149.349 342.69 149.207 342.8 149.036 342.821C148.743 342.851 148.491 342.619 148.37 342.348C148.027 341.593 148.541 340.648 149.318 340.336C150.085 340.024 150.994 340.235 151.69 340.678C151.932 340.829 152.185 341.02 152.467 341C152.709 340.99 152.921 340.839 153.153 340.819C153.587 340.799 153.89 341.221 154.173 341.563C154.455 341.905 154.97 342.197 155.293 341.895C155.485 341.714 155.495 341.382 155.697 341.201C155.979 340.949 156.413 341.13 156.777 341.231C157.675 341.483 158.714 341.04 159.158 340.225C159.602 339.41 159.421 338.304 158.724 337.68C158.189 337.197 157.382 336.976 157.069 336.322C156.968 336.111 156.928 335.869 156.837 335.658C156.645 335.185 156.232 334.843 155.838 334.521C154.344 333.284 152.931 331.946 151.63 330.527C151.085 329.934 150.519 329.149 150.782 328.395C151.014 327.731 151.842 327.278 151.781 326.574C151.72 325.9 150.822 325.377 151.064 324.733C151.155 324.492 151.397 324.331 151.508 324.089C151.771 323.556 151.266 322.983 150.863 322.55C150.449 322.117 150.096 321.383 150.55 320.991C150.842 320.729 151.317 320.83 151.65 321.031C151.993 321.232 152.286 321.514 152.669 321.614C153.053 321.715 153.557 321.524 153.577 321.132C154.021 320.618 154.859 320.387 155.535 320.407C156.222 320.427 156.908 320.558 157.574 320.397C158.24 320.236 158.876 319.673 158.815 318.999C158.795 318.757 158.684 318.516 158.745 318.285C158.886 317.741 159.784 317.832 160.087 318.305C160.39 318.778 160.329 319.391 160.379 319.955C160.46 320.779 160.834 321.554 161.197 322.298C161.379 322.671 161.57 323.043 161.833 323.355C162.257 323.848 162.842 324.16 163.347 324.582C164.275 325.347 164.901 326.493 164.971 327.691C165.042 328.888 164.527 330.125 163.579 330.869C163.195 331.171 162.741 331.413 162.509 331.845C162.337 332.177 162.337 332.58 162.347 332.952C162.368 334.209 162.61 335.769 163.801 336.161C164.376 336.352 165.032 336.191 165.577 336.443C166.495 336.845 166.96 338.253 167.949 338.102C168.786 337.972 168.968 336.845 168.827 336.01C168.665 335.014 168.332 334.058 167.868 333.163C167.666 332.781 167.424 332.399 167.363 331.966C167.293 331.533 167.454 331.03 167.848 330.839C168.08 330.729 168.342 330.739 168.584 330.698C169.21 330.588 169.755 330.085 169.906 329.471C170.017 329.018 169.937 328.536 170.048 328.083C170.169 327.63 170.633 327.198 171.057 327.389C171.642 327.65 171.35 328.536 171.541 329.149C171.753 329.843 172.571 330.105 173.277 330.266C173.54 330.326 173.822 330.387 174.075 330.316C174.942 330.075 174.912 328.676 175.709 328.274C175.901 328.173 176.133 328.143 176.315 328.033C176.9 327.691 176.82 326.825 176.608 326.182C176.396 325.538 176.143 324.763 176.577 324.24C176.789 323.989 177.122 323.858 177.395 323.667C177.889 323.325 178.182 322.741 178.263 322.148C178.444 320.88 177.677 319.562 176.527 319.009C175.376 318.446 173.923 318.627 172.884 319.381C172.147 319.914 171.602 320.709 170.784 321.111C169.604 321.705 167.999 321.252 167.313 320.126C167.131 319.824 167 319.482 166.707 319.281C166.516 319.15 166.283 319.11 166.102 318.969C165.375 318.425 166.082 317.258 165.839 316.393C165.658 315.75 164.941 315.216 165.133 314.583C165.304 314.009 166.102 313.888 166.647 314.13C167.192 314.371 167.595 314.854 168.11 315.156C169.483 315.971 171.531 315.176 171.985 313.647C172.107 313.224 172.127 312.772 172.339 312.39C172.803 311.555 173.923 311.404 174.882 311.394C175.518 311.394 176.194 311.202 176.84 311.142C176.608 308.879 178.848 306.012 177.849 303.708L177.839 303.738Z" fill="white" stroke="black" stroke-width="0.75" stroke-linecap="round" stroke-linejoin="round"/>
<path d="M167.848 280.983C168.413 279.927 168.312 278.639 168.05 277.472C167.888 276.728 167.686 275.852 168.201 275.289C168.484 274.977 168.928 274.846 169.311 274.675C170.532 274.142 171.39 272.331 170.32 271.547C169.806 271.174 168.998 271.164 168.706 270.611C168.484 270.199 168.665 269.686 168.797 269.233C169.382 267.241 168.797 264.947 167.333 263.469C166.919 263.046 166.425 262.684 166.122 262.171C165.486 261.074 165.89 259.696 166.314 258.499C167.202 255.994 168.09 253.499 168.978 250.994C169.21 250.33 169.453 249.656 169.816 249.053C170.159 248.469 170.623 247.936 170.775 247.272C171.077 245.944 170.159 244.194 171.249 243.369C171.784 242.967 172.541 243.067 173.177 242.846C174.69 242.323 175.064 240.24 176.436 239.426C177.163 238.993 178.102 238.963 178.798 238.49C179.636 237.917 180.009 236.79 180.917 236.337C182.098 235.764 183.915 236.438 184.571 235.301C185.075 234.436 184.308 233.299 184.661 232.354C184.914 231.669 185.671 231.317 186.175 230.794C187.174 229.758 187.134 228.058 186.478 226.78C185.822 225.503 184.682 224.567 183.561 223.662C183.047 223.249 182.471 222.807 181.815 222.837C180.443 222.897 179.565 224.919 178.233 224.577C177.274 224.336 176.971 222.998 176.033 222.686C174.842 222.284 173.055 223.612 172.51 222.475C172.299 222.042 172.5 221.479 172.228 221.087C171.764 220.402 170.714 220.986 170.109 221.549C167.363 224.104 163.761 225.714 160.026 226.066C157.655 226.287 155.031 225.915 153.386 224.205C152.266 223.048 151.68 221.368 150.318 220.513C149.42 219.95 148.209 219.749 147.674 218.843C146.998 217.716 147.694 216.006 146.725 215.121C145.928 214.97 145.252 215.644 144.606 216.127C142.89 217.425 140.599 217.576 138.449 217.686C135.846 217.817 132.626 217.596 131.546 215.242C131.203 214.487 131.072 213.511 130.335 213.109C129.669 212.747 128.862 213.069 128.115 213.2C125.38 213.693 122.484 211.56 119.91 212.606C117.761 213.481 117.024 216.057 115.883 218.069C114.894 219.819 113.431 221.288 111.705 222.304C111.725 222.314 111.756 222.314 111.776 222.334C111.978 222.475 112.089 222.787 111.937 222.988C111.836 223.129 111.645 223.169 111.473 223.199C110.272 223.36 108.779 223.068 108.072 224.044C107.8 224.416 107.729 224.889 107.477 225.271C106.881 226.167 105.599 226.197 104.52 226.197C103.127 226.197 101.694 226.308 100.412 226.851C99.958 227.042 99.5139 227.283 99.0295 227.364C98.3432 227.475 97.6469 227.243 96.9505 227.183C96.1633 227.112 95.3862 227.253 94.6293 227.464C94.3669 227.535 92.9641 227.646 92.9036 227.706C91.9953 228.682 95.1238 229.909 95.6587 229.899C96.5569 229.899 97.7276 229.647 98.1313 230.442C98.2827 230.754 98.2524 231.116 98.2019 231.458C98.1111 232.112 98.0203 232.776 98.1414 233.42C98.2625 234.064 98.6359 234.708 99.2515 234.949C100.927 235.613 102.572 233.017 104.277 233.591C105.024 233.842 105.307 233.923 106.074 234.124C106.831 234.315 107.648 234.516 108.395 234.265C109.566 233.873 110.252 232.484 111.463 232.273C111.988 232.183 112.664 232.514 112.593 233.038C112.513 233.601 111.746 233.681 111.291 234.013C110.403 234.647 110.585 236.307 109.556 236.689C109.293 236.79 108.99 236.77 108.708 236.74C107.89 236.679 107.073 236.609 106.255 236.549C105.63 236.498 104.923 236.478 104.459 236.891C103.904 237.383 103.965 238.319 104.388 238.933C104.812 239.546 105.499 239.908 106.165 240.261C107.204 240.804 108.254 241.347 109.293 241.9C109.717 242.122 109.687 242.343 109.727 242.816C109.768 243.299 109.384 243.832 108.91 243.782C108.496 243.741 108.244 243.329 107.941 243.037C107.295 242.423 106.326 242.333 105.438 242.293C104.378 242.242 103.319 242.212 102.269 242.212C101.219 242.212 100.019 242.293 99.3625 243.118C98.6359 244.033 98.9689 245.371 98.7267 246.508C98.5148 247.453 97.8689 248.288 97.001 248.721C96.1431 249.143 95.1137 249.204 94.3568 249.777C94.0137 250.039 93.7513 250.401 93.4788 250.743C92.076 252.493 90.2392 253.892 88.1804 254.777C87.908 254.898 87.6254 255.008 87.4134 255.21C86.9896 255.622 86.9795 256.316 87.2116 256.849C87.4538 257.382 87.8979 257.795 88.3419 258.187C88.7759 258.559 89.2098 258.932 89.6539 259.284C89.9062 259.485 90.1787 259.696 90.4915 259.777C90.8952 259.867 91.309 259.736 91.7026 259.616C94.377 258.791 97.2331 258.58 99.9983 259.022C100.564 259.113 101.3 259.505 101.088 260.038C100.917 260.451 100.341 260.451 99.8974 260.471C99.0598 260.521 98.2524 260.934 97.7377 261.587C97.4047 262.01 97.1725 262.533 96.7184 262.815C96.1936 263.137 95.5376 263.046 94.922 263.036C92.7926 262.986 90.7136 263.941 89.1594 265.4C87.2015 267.241 86.495 269.484 85.5464 271.838C86.4547 271.959 87.3327 272.191 88.0795 272.663C89.6539 273.679 88.9676 275.198 90.1888 276.305C92.1164 278.055 90.8851 280.912 92.9237 282.391C93.6706 282.934 95.5376 283.357 96.3046 282.773C97.3542 281.989 96.4459 280.46 97.2634 279.554C97.7478 279.021 98.6561 279.092 99.2414 279.524C99.8268 279.947 100.16 280.631 100.473 281.275C100.927 280.54 101.401 279.786 102.108 279.293C102.814 278.8 103.833 278.639 104.54 279.142C104.61 277.251 106.578 275.993 107.265 274.223C107.547 273.488 107.598 272.683 107.83 271.929C108.456 269.907 110.474 268.448 112.593 268.338C114.713 268.227 116.812 269.424 117.912 271.225C118.76 272.613 119.678 274.645 121.252 274.253C122.867 273.85 122.736 271.396 123.967 270.279C124.633 269.676 125.723 269.575 126.49 270.058C127.257 270.541 127.641 271.557 127.378 272.422C127.126 273.277 126.319 274.102 126.672 274.917C127.116 275.943 128.781 275.601 129.578 276.385C130.376 277.17 129.861 278.548 129.084 279.343C128.781 279.645 128.428 280.007 128.519 280.43C128.569 280.661 128.761 280.842 128.953 280.983C130.689 282.331 133.282 282.462 135.149 281.295C135.856 280.852 136.815 280.259 137.4 280.862C137.753 281.234 137.713 281.898 138.147 282.19C138.631 282.512 139.247 282.079 139.772 281.808C141.497 280.912 143.546 281.918 145.433 282.391C145.817 282.492 146.22 282.562 146.604 282.462C147.694 282.17 148.209 280.56 149.339 280.611C150.116 280.641 150.681 281.486 151.448 281.496C152.377 281.506 152.831 280.419 153.335 279.645C154.839 277.341 158.432 277.21 160.682 278.79C162.237 279.886 163.226 281.536 163.872 283.347C165.517 282.864 167.121 282.401 167.888 280.963L167.848 280.983Z" fill="#6E6E6E" stroke="black" stroke-width="0.75" stroke-linecap="round" stroke-linejoin="round"/>
<path d="M187.669 221.539C188.093 221.398 188.567 221.479 189.011 221.408C190.081 221.227 190.777 220.151 191.06 219.095C191.342 218.038 191.373 216.922 191.807 215.926C192.2 215.03 192.907 214.276 193.199 213.34C193.442 212.556 193.361 211.701 193.159 210.906C192.998 210.252 192.806 209.407 193.371 209.025C193.855 208.693 194.501 209.005 195.077 209.105C196.066 209.276 197.135 208.723 197.559 207.818C196.631 207.345 196.368 206.188 196.055 205.192C195.743 204.206 195.026 203.099 193.987 203.2C193.169 203.281 192.574 204.116 191.756 204.176C190.989 204.236 190.364 203.602 189.869 203.019C189.334 202.385 188.799 201.711 188.083 201.299C187.356 200.886 186.387 200.796 185.731 201.299C185.358 201.58 185.116 202.033 184.692 202.234C183.622 202.727 182.633 201.168 182.956 200.041C183.279 198.915 184.238 198.08 184.692 196.993C185.085 196.058 185.075 195.021 185.095 194.005C185.166 190.434 185.65 186.863 186.528 183.402C186.821 182.245 187.023 180.726 185.994 180.123C185.55 179.861 184.974 179.861 184.55 179.559C183.965 179.117 183.925 178.242 183.45 177.678C182.522 176.541 180.181 176.904 179.807 175.475C179.525 174.399 180.786 173.564 181.876 173.332C182.966 173.101 184.268 172.99 184.853 172.035C185.61 170.787 184.762 168.604 186.125 168.071C186.549 167.9 187.033 168.011 187.487 168.031C189.173 168.091 190.757 166.612 190.808 164.932C191.05 165.878 192.362 166.029 193.31 165.767C194.259 165.516 195.309 165.073 196.166 165.546C196.913 165.959 197.852 166.954 198.326 166.25C198.69 165.707 197.973 165.124 197.499 164.691C196.348 163.645 195.753 160.265 196.843 158.977C197.6 158.082 201.011 157.076 202.141 157.086C203.1 157.086 204.059 157.398 205.007 157.217C207.591 156.714 208.943 153.706 211.708 154.209C213.313 154.5 214.625 155.808 215.12 157.357C215.271 157.83 215.382 158.373 215.796 158.665C216.139 158.907 216.603 158.897 217.027 158.856C218.682 158.705 220.307 158.263 221.811 157.579C222.376 157.317 222.941 157.015 223.335 156.522C224.808 154.661 222.79 151.945 223.224 149.621C223.627 147.469 225.948 146.322 227.977 145.477C230.005 144.622 232.306 143.394 232.589 141.211C232.65 140.728 232.609 140.236 232.761 139.773C233.285 138.173 235.486 138.163 237.07 137.6C237.797 137.348 238.432 136.896 238.947 136.332C238.776 136.212 238.604 136.081 238.422 135.98C236.656 135.045 234.426 135.517 232.589 134.743C230.55 133.878 229.067 131.514 226.857 131.624C225.333 131.705 223.779 132.992 222.426 132.268C221.478 131.765 221.205 130.498 220.337 129.874C219.156 129.029 217.562 129.703 216.159 130.075C214.766 130.457 212.738 130.055 212.697 128.616C212.667 127.52 213.828 126.856 214.675 126.152C215.523 125.458 216.008 123.868 214.998 123.446C213.898 124.21 212.597 125.015 211.305 124.663C210.306 124.391 209.619 123.506 208.812 122.872C207.994 122.238 206.693 121.906 206.006 122.671C205.492 123.254 205.249 124.421 204.493 124.21C204.119 124.11 203.958 123.687 203.685 123.426C202.928 122.711 201.657 123.375 201.031 124.2C200.405 125.035 199.911 126.101 198.912 126.413C197.458 126.866 196.166 125.387 195.42 124.069C194.673 122.752 193.643 121.182 192.13 121.303C190.707 121.414 189.899 122.983 189.627 124.381C189.354 125.78 189.274 127.339 188.285 128.355C187.487 129.17 186.296 129.431 185.176 129.663C183.269 130.045 180.292 131.282 178.384 130.457C176.527 129.663 176.325 126.132 175.266 124.23C175.054 125.518 174.65 126.936 174.6 127.047C173.944 128.455 173.621 130.618 171.552 130.327C170.472 130.176 169.584 129.421 168.766 128.707C167.888 129.21 168.443 130.518 168.686 131.504C169.12 133.244 167.959 135.226 166.223 135.699C165.022 136.03 163.438 135.839 162.822 136.926C162.61 137.288 162.58 137.731 162.338 138.073C161.54 139.219 159.693 138.224 158.341 138.606C156.403 139.159 156.181 142.328 154.213 142.771C153.214 142.992 151.882 142.489 151.327 143.344C150.923 143.968 151.347 144.793 151.236 145.527C151.075 146.634 149.793 147.177 148.683 147.378C147.573 147.579 146.301 147.75 145.675 148.686C145.151 149.47 145.05 150.758 144.303 151.12C144.606 152.368 145.181 153.464 146.301 154.038C146.745 154.269 147.26 154.39 147.613 154.752C147.987 155.134 148.087 155.718 148.38 156.17C148.865 156.925 149.793 157.237 150.56 157.699C152.175 158.665 153.234 160.476 153.275 162.347C153.295 163.132 152.942 164.118 152.155 164.148C151.307 164.178 150.863 163.071 150.055 162.8C148.996 162.438 148.098 163.605 147.593 164.6C146.594 166.612 145.665 168.655 144.737 170.687C144.343 171.552 143.95 172.538 144.323 173.403C144.616 174.087 145.322 174.53 145.625 175.204C146.14 176.33 145.464 177.849 146.271 178.785C147.3 179.972 149.864 179.137 150.409 180.616C149.42 180.948 149.379 182.376 149.874 183.302C150.368 184.217 151.196 184.992 151.357 186.028C151.428 186.471 151.398 186.984 151.721 187.285C152.407 187.919 153.366 186.843 154.284 186.672C155.223 186.501 156.03 187.376 156.393 188.261C156.757 189.146 156.888 190.142 157.483 190.887C158.079 191.631 159.431 191.873 159.905 191.048C160.309 190.334 160.077 189.016 160.894 188.986C161.238 188.975 161.51 189.267 161.682 189.559C162.428 190.887 162.005 192.577 161.308 193.935C160.612 195.293 159.663 196.561 159.34 198.049C159.169 198.834 159.189 199.659 158.947 200.434C158.755 201.037 158.412 201.651 158.563 202.265C158.926 203.703 161.308 203.351 162.227 204.518C162.852 205.313 162.63 206.62 163.407 207.264C163.902 207.677 164.629 207.657 165.194 207.968C166.253 208.562 166.354 210.051 166.112 211.238C165.86 212.425 165.406 213.672 165.829 214.809C166.395 216.348 168.393 217.163 168.554 218.793C168.605 219.346 168.423 219.94 168.625 220.463C168.817 220.986 169.331 221.308 169.755 221.67C169.776 221.69 169.806 221.72 169.826 221.74C169.917 221.66 170.008 221.589 170.098 221.509C170.704 220.946 171.754 220.362 172.218 221.046C172.49 221.439 172.288 222.002 172.5 222.434C173.045 223.561 174.832 222.233 176.023 222.646C176.961 222.958 177.264 224.296 178.223 224.537C179.555 224.879 180.433 222.857 181.805 222.797C182.461 222.766 183.047 223.209 183.551 223.622C183.945 223.943 184.338 224.275 184.722 224.628C185.328 223.793 185.973 222.988 186.68 222.233C186.952 221.942 187.255 221.64 187.639 221.509L187.669 221.539Z" fill="#B4B2B2" stroke="black" stroke-width="0.75" stroke-linecap="round" stroke-linejoin="round"/>
<path d="M148.269 189.438C147.391 190.122 146.089 189.871 145.1 190.384C143.889 191.018 143.546 192.537 143.314 193.875C143.082 195.273 142.849 196.671 142.617 198.07C142.446 199.116 142.304 200.303 142.95 201.138C143.233 201.5 143.637 201.762 143.919 202.124C144.494 202.858 144.464 203.864 144.605 204.79C144.918 206.912 146.281 208.854 148.178 209.87C149.096 208.793 149.026 207.214 149.026 205.796C149.026 204.377 149.278 202.727 150.509 202.013C151.831 203.844 152.8 205.926 153.345 208.109C153.476 208.622 153.658 209.236 154.173 209.387C154.748 209.548 155.273 208.995 155.495 208.441C155.717 207.888 155.808 207.254 156.232 206.842C156.615 206.48 157.18 206.379 157.624 206.097C158.603 205.484 158.815 204.206 159.088 202.999C158.856 202.818 158.664 202.597 158.583 202.285C158.432 201.671 158.775 201.057 158.967 200.454C159.209 199.689 159.189 198.864 159.36 198.07C159.683 196.581 160.632 195.313 161.328 193.955C162.025 192.597 162.458 190.907 161.702 189.579C161.53 189.277 161.258 188.986 160.914 189.006C160.087 189.036 160.329 190.354 159.925 191.068C159.451 191.893 158.099 191.641 157.503 190.907C156.908 190.163 156.767 189.167 156.413 188.281C156.05 187.396 155.243 186.531 154.304 186.692C153.386 186.853 152.427 187.929 151.741 187.306C151.408 187.004 151.448 186.491 151.377 186.048C151.276 185.455 150.964 184.942 150.62 184.439C150.096 185.203 149.682 186.038 149.43 186.933C149.167 187.839 149.016 188.865 148.269 189.438Z" fill="#6E6E6E" stroke="black" stroke-width="0.75" stroke-linecap="round" stroke-linejoin="round"/>
<path d="M169.775 221.7C169.352 221.338 168.837 221.016 168.645 220.493C168.453 219.97 168.635 219.386 168.574 218.823C168.413 217.193 166.415 216.368 165.85 214.839C165.426 213.703 165.89 212.455 166.132 211.268C166.384 210.081 166.284 208.592 165.214 207.999C164.649 207.687 163.922 207.707 163.427 207.294C162.65 206.651 162.872 205.343 162.247 204.548C161.53 203.633 159.936 203.643 159.088 203.009C158.815 204.206 158.593 205.494 157.624 206.107C157.18 206.389 156.615 206.49 156.232 206.852C155.798 207.264 155.707 207.898 155.495 208.451C155.273 209.005 154.748 209.558 154.173 209.397C153.658 209.246 153.477 208.632 153.345 208.119C152.8 205.926 151.832 203.844 150.509 202.023C149.278 202.737 149.026 204.377 149.026 205.806C149.026 207.224 149.097 208.803 148.178 209.88C146.291 208.864 144.929 206.922 144.606 204.8C144.464 203.884 144.495 202.868 143.919 202.134C143.637 201.772 143.233 201.51 142.95 201.148C142.355 200.383 142.426 199.347 142.567 198.371C141.527 198.039 140.538 197.657 139.913 196.802C138.904 195.404 139.418 193.482 139.378 191.762C139.337 190.002 138.631 188.261 137.44 186.974C136.835 186.31 136.088 185.746 135.674 184.951C134.857 183.402 135.502 181.541 135.896 179.841C136.582 176.914 136.491 173.805 135.644 170.928C135.291 169.731 134.796 168.524 134.887 167.276C134.978 166.029 135.906 164.721 137.168 164.741C137.985 164.751 138.681 165.305 139.348 165.777C141.265 167.136 143.485 168.041 145.807 168.433C146.392 167.166 146.987 165.888 147.613 164.641C148.108 163.645 149.016 162.478 150.076 162.84C150.883 163.122 151.317 164.228 152.175 164.188C152.962 164.158 153.315 163.172 153.295 162.387C153.244 160.516 152.185 158.705 150.58 157.74C149.813 157.277 148.885 156.965 148.4 156.211C148.108 155.758 148.007 155.184 147.633 154.792C147.28 154.43 146.765 154.309 146.321 154.078C145.201 153.504 144.626 152.408 144.323 151.16C144.222 151.211 144.111 151.241 143.98 151.251C142.86 149.802 141.527 148.243 139.711 148.062C139.105 148.002 138.439 148.102 137.914 147.79C137.248 147.398 137.067 146.513 136.542 145.939C135.361 144.652 133.272 145.446 131.678 146.171C129.972 146.945 128.196 147.539 126.369 147.941C125.38 148.163 124.068 148.153 122.907 148.364C122.645 148.766 122.312 149.118 121.908 149.4C120.687 150.245 119.113 150.336 117.68 150.748C116.247 151.16 114.743 152.177 114.713 153.655C114.703 154.118 114.834 154.571 114.793 155.034C114.743 155.496 114.42 155.989 113.956 155.969C113.33 155.949 113.128 155.124 113.118 154.5C113.068 152.187 113.088 149.823 112.28 147.65C111.473 145.487 109.616 143.535 107.305 143.354C106.376 143.284 105.287 143.445 104.651 142.761C104.378 142.459 104.217 142.016 103.823 141.885C103.409 141.744 103.006 142.036 102.622 142.247C101.3 142.982 99.4936 142.69 98.4642 141.584C97.778 140.849 97.3541 139.753 96.3853 139.451C95.6485 139.219 94.7806 139.541 94.0943 139.179C93.4283 138.827 93.2062 138.002 92.6814 137.469C91.6016 136.383 89.5226 137.047 88.8969 138.445C88.2712 139.843 88.8162 141.523 89.7951 142.71C90.0676 143.042 90.3905 143.374 90.5318 143.787C90.6731 144.199 90.5621 144.742 90.1584 144.923C89.3914 145.265 88.8969 144.129 88.5538 143.364C87.9886 142.087 86.6463 141.282 85.2738 141.01C83.9013 140.738 82.4783 140.92 81.0957 141.141C80.5305 141.231 79.9552 141.332 79.4809 141.654C79.0167 141.976 78.6937 142.579 78.8855 143.123C79.1781 143.948 80.3387 144.018 80.9544 144.632C81.7416 145.406 81.5094 146.885 82.3875 147.569C83.1141 148.143 84.2141 147.841 85.0417 148.253C86.2023 148.827 86.0812 150.869 84.86 151.301C84.2949 151.503 83.6692 151.382 83.0636 151.422C82.4581 151.462 81.7718 151.764 81.6709 152.358C81.6104 152.69 81.7516 153.022 81.7214 153.354C81.6104 154.722 79.1882 154.621 78.7038 155.909C78.5323 156.351 78.6029 156.965 78.179 157.196C78.0075 157.287 77.7854 157.287 77.5937 157.227C76.5643 156.905 76.4634 155.436 76.9276 154.45C77.3918 153.464 78.1891 152.619 78.3203 151.553C78.4111 150.788 78.1387 150.044 77.9065 149.309C77.3717 147.579 77.079 145.778 77.0386 143.968C76.3826 143.585 75.8276 144.612 75.7367 145.366C75.545 147.096 75.3532 148.837 75.1615 150.567C75.0908 151.231 75.0101 151.905 74.677 152.488C74.344 153.062 73.688 153.514 73.032 153.394C71.6797 153.142 71.7402 151.16 70.953 150.034C70.8319 149.863 70.6604 149.692 70.4484 149.662C69.964 149.601 69.7521 150.255 69.7218 150.738C69.631 152.126 69.5401 153.525 69.4493 154.913C69.4291 155.245 69.4089 155.587 69.5401 155.879C69.8025 156.442 70.5897 156.844 70.4282 157.448C70.2365 158.162 69.1264 157.88 68.6318 157.337C68.1373 156.794 67.5318 156.05 66.8354 156.301C66.0785 156.573 66.1896 157.649 66.3107 158.434C66.4318 159.228 65.9877 160.365 65.2308 160.094C64.6455 160.094 64.3528 160.456 64.1207 160.989C63.8885 161.522 63.9995 162.176 64.3831 162.609C64.5344 162.77 64.7161 162.9 64.817 163.091C65.0895 163.574 64.7766 164.168 64.5142 164.661C64.2519 165.154 64.0601 165.838 64.484 166.2C65.0289 166.663 65.8464 165.999 66.0483 165.315C66.2501 164.631 66.2501 163.816 66.785 163.353C67.4813 162.759 68.5612 163.152 69.2878 163.705C69.9136 164.188 70.5191 164.983 70.2062 165.707C69.6612 166.965 67.2896 166.311 66.7345 167.568C66.351 168.443 67.4107 169.399 68.3694 169.298C69.3282 169.198 70.075 168.473 70.7512 167.789C71.4375 167.095 72.1136 166.391 72.7999 165.697C73.0724 165.425 73.4155 165.124 73.7889 165.234C74.1926 165.355 74.3036 165.878 74.2431 166.301C74.1523 166.854 73.9 167.367 73.799 167.92C73.6981 168.473 73.8192 169.127 74.3036 169.419C74.5358 169.55 74.8082 169.59 75.0606 169.661C76.1202 169.972 76.8166 171.18 76.5643 172.246C76.4129 172.86 76.0092 173.383 75.7266 173.946C75.444 174.519 75.3129 175.244 75.6964 175.747C76.1202 176.3 76.9579 176.33 77.523 176.743C78.4414 177.417 78.3405 178.775 78.2799 179.901C78.1387 182.789 78.8956 185.646 79.6525 188.432C79.8543 189.197 80.0864 190.002 80.6112 190.595C81.6003 191.712 83.3058 191.752 84.7995 191.712C84.9912 191.712 85.1931 191.702 85.3545 191.611C85.516 191.531 85.6371 191.38 85.738 191.219C86.606 189.861 86.283 188.08 85.7784 186.551C84.7793 183.543 83.1645 180.746 82.4985 177.648C82.337 176.914 82.2361 176.159 81.9939 175.445C81.7113 174.62 81.247 173.866 80.8534 173.091C79.9855 171.391 79.4304 169.54 79.2185 167.649C79.1681 167.206 79.3497 166.562 79.7837 166.663C79.9552 166.703 80.0663 166.854 80.1571 166.995C80.8232 168.091 80.7626 169.459 80.8938 170.737C81.025 172.015 81.5397 173.443 82.7407 173.886C83.5178 174.167 84.4967 174.006 85.0619 174.61C85.2133 174.771 85.3445 174.992 85.5564 175.022C85.728 175.043 85.8793 174.942 86.0105 174.831C86.7372 174.167 86.7674 173.051 86.6161 172.085C86.4748 171.119 86.2023 170.113 86.5151 169.188C86.5858 168.987 86.6766 168.795 86.8583 168.675C87.1509 168.484 87.5546 168.594 87.7968 168.836C88.0391 169.077 88.1501 169.429 88.2207 169.761C88.6042 171.552 88.1904 173.393 87.8978 175.193C87.6051 176.994 87.4739 178.946 88.3317 180.555C88.695 181.239 89.24 181.853 89.4721 182.597C89.9061 184.006 89.129 185.605 89.6639 186.974C89.9768 187.768 90.7034 188.392 90.8346 189.237C91.0465 190.676 89.452 192.014 89.9162 193.392C90.4107 194.871 92.7622 194.84 93.5393 196.198C93.8521 196.742 93.4182 196.842 92.8227 197.043C92.2273 197.245 91.5208 197.225 91.0566 197.637C90.3804 198.23 90.6025 199.367 91.1575 200.061C91.7126 200.766 92.52 201.238 93.075 201.943C93.6301 202.647 93.832 203.794 93.1457 204.367C92.9741 204.508 92.7723 204.598 92.5906 204.739C91.9649 205.202 91.8034 206.188 92.2475 206.832C92.4695 207.154 92.8126 207.375 93.075 207.677C93.3374 207.979 93.509 208.421 93.3072 208.763C93.065 209.176 92.4493 209.196 92.1163 209.538C91.5713 210.091 91.9851 211.198 91.3695 211.67C91.1071 211.872 90.7337 211.882 90.441 212.043C89.8758 212.355 89.8052 213.28 90.3199 213.662C91.2887 214.397 92.6814 212.958 93.832 213.35C94.7201 213.652 95.1137 214.96 96.0522 214.96C96.3146 214.96 96.5669 214.849 96.8293 214.869C97.7174 214.94 97.8284 216.197 98.4037 216.861C98.8074 217.334 99.5037 217.555 99.7359 218.129C100.008 218.803 99.4634 219.567 99.5845 220.282C99.7157 221.107 100.634 221.579 100.957 222.354C101.108 222.726 101.118 223.139 101.27 223.511C101.643 224.386 102.743 224.698 103.702 224.718C104.469 224.738 105.246 224.638 105.983 224.426C107.255 223.068 109.192 222.123 111.059 222.143C111.281 222.143 111.513 222.173 111.705 222.284C113.441 221.268 114.894 219.789 115.883 218.048C117.024 216.036 117.76 213.461 119.91 212.586C122.484 211.54 125.38 213.662 128.115 213.179C128.862 213.049 129.669 212.727 130.335 213.089C131.072 213.481 131.193 214.457 131.546 215.222C132.626 217.586 135.856 217.807 138.449 217.666C140.599 217.555 142.89 217.395 144.606 216.107C145.251 215.624 145.928 214.95 146.725 215.101C147.694 215.986 147.008 217.696 147.674 218.823C148.219 219.728 149.43 219.93 150.318 220.493C151.68 221.348 152.266 223.028 153.386 224.185C155.041 225.895 157.655 226.267 160.026 226.046C163.639 225.714 167.131 224.175 169.836 221.76C169.816 221.74 169.785 221.71 169.765 221.69L169.775 221.7Z" fill="#DADADA" stroke="black" stroke-width="0.75" stroke-linecap="round" stroke-linejoin="round"/>
<path d="M248.948 296.525C248.898 295.881 249.715 295.509 250.371 295.55C251.027 295.59 251.693 295.841 252.309 295.61C253.984 294.976 253.036 291.988 254.519 290.992C255.246 290.51 256.204 290.741 257.062 290.872C258.516 291.083 260.171 290.841 261.109 289.715C261.604 289.121 261.846 288.347 262.3 287.713C264.167 285.117 269.153 285.49 269.91 282.381C270.273 280.902 269.657 278.76 271.1 278.247C271.534 278.096 272.019 278.186 272.483 278.226C274.249 278.357 276.106 277.371 276.782 275.742C277.459 274.112 276.712 271.969 275.077 271.295C274.3 270.973 273.412 270.973 272.675 270.581C271.696 270.058 271.191 268.971 270.424 268.167C268.477 266.114 265.086 266.114 262.946 264.263C262.542 263.921 262.169 263.408 262.31 262.905C262.411 262.553 262.724 262.302 262.996 262.05C263.874 261.235 264.409 260.018 264.248 258.831C264.086 257.644 263.138 256.568 261.957 256.387C261.261 256.286 260.544 256.477 259.838 256.457C257.89 256.387 255.841 254.656 254.216 255.723C253.076 256.467 252.854 258.268 251.582 258.751C250.745 259.073 249.766 258.65 248.908 258.922C247.697 259.294 247.132 260.873 245.89 261.135C245.083 261.306 244.286 260.843 243.549 260.471C240.552 258.952 236.949 258.68 233.76 259.747C232.357 257.443 231.549 254.163 228.633 254.133C226.998 254.113 224.031 254.093 222.588 254.988C221.508 255.662 220.731 257.101 219.449 257C218.561 256.94 217.945 256.135 217.229 255.602C214.12 253.318 208.933 256.246 206.137 253.59C207.247 250.2 205.501 246.608 203.806 243.47C203.645 243.168 203.463 242.846 203.15 242.695C202.625 242.434 201.939 242.725 201.434 242.423C200.425 241.8 201.636 239.949 200.788 239.124C200.294 238.641 199.476 238.882 198.82 239.124C196.6 239.939 193.573 240.059 192.422 238.007C191.917 237.102 191.726 235.784 190.716 235.563C189.616 235.321 188.527 236.72 187.507 236.247C187.154 236.086 186.932 235.744 186.69 235.442C186.185 234.848 185.499 234.446 184.752 234.255C184.792 234.627 184.782 234.979 184.591 235.301C183.935 236.438 182.118 235.754 180.937 236.337C180.029 236.78 179.656 237.917 178.818 238.49C178.111 238.973 177.183 238.993 176.456 239.426C175.084 240.251 174.71 242.333 173.197 242.846C172.561 243.067 171.804 242.967 171.269 243.369C170.179 244.194 171.097 245.944 170.795 247.272C170.643 247.936 170.179 248.469 169.836 249.053C169.473 249.656 169.24 250.331 168.998 250.994C168.11 253.499 167.222 255.994 166.334 258.499C165.91 259.696 165.496 261.074 166.142 262.171C166.445 262.684 166.929 263.046 167.353 263.469C168.817 264.947 169.402 267.241 168.817 269.233C168.685 269.686 168.504 270.189 168.726 270.611C169.028 271.175 169.836 271.174 170.34 271.547C171.41 272.341 170.552 274.142 169.331 274.675C168.938 274.846 168.504 274.967 168.221 275.289C167.706 275.852 167.898 276.728 168.07 277.472C168.332 278.639 168.433 279.927 167.868 280.983C167.091 282.421 165.496 282.884 163.851 283.367C164.144 284.182 164.366 285.017 164.527 285.862C165.032 288.548 165.214 291.606 167.272 293.417C168.928 294.875 171.622 295.308 172.45 297.35C172.672 297.914 172.722 298.527 172.954 299.091C173.832 301.203 176.961 301.646 177.869 303.748C178.858 306.052 176.628 308.919 176.86 311.182C177.466 311.122 178.061 311.172 178.586 311.585C179.01 311.917 179.474 312.329 179.999 312.249C180.473 312.178 180.796 311.746 181.23 311.535C181.886 311.233 182.643 311.504 183.359 311.615C185.156 311.897 187.225 310.861 187.598 309.09C187.719 308.517 187.669 307.923 187.76 307.34C187.85 306.756 188.153 306.153 188.698 305.951C188.799 305.911 188.9 305.891 189.001 305.911C189.465 306.012 189.324 306.686 189.294 307.159C189.253 307.873 189.788 308.527 190.444 308.808C191.1 309.1 191.847 309.09 192.553 309.01C192.836 308.979 193.118 308.929 193.351 308.778C193.704 308.537 193.835 308.084 193.946 307.672C194.097 307.128 194.239 306.565 194.178 306.002C194.107 305.438 193.764 304.875 193.219 304.714C192.806 304.593 192.15 304.523 192.23 304.09C192.251 303.949 192.372 303.849 192.493 303.768C193.199 303.346 194.259 303.98 194.229 304.805C194.885 304.603 195.399 304.01 195.5 303.336C195.591 302.732 195.561 301.867 196.166 301.797C196.762 301.726 196.953 302.571 196.903 303.165C196.792 304.644 196.671 306.132 196.166 307.531C196.015 307.933 195.833 308.346 195.843 308.778C195.843 309.06 195.934 309.342 195.924 309.623C195.904 310.227 195.46 310.74 195.419 311.343C195.359 312.44 196.681 313.114 197.781 313.074C198.609 313.044 199.618 312.863 200.122 313.526C200.607 314.16 200.324 315.287 201.031 315.639C201.243 315.75 201.495 315.75 201.727 315.74C202.706 315.719 203.685 315.709 204.674 315.689C205.179 315.689 205.703 315.669 206.168 315.468C206.632 315.267 207.025 314.824 207.015 314.321C207.015 313.969 206.803 313.627 206.854 313.265C206.955 312.531 207.944 312.39 208.681 312.43C209.135 312.46 209.589 312.48 210.043 312.51C211.224 312.581 210.84 313.295 211.355 314.009C211.9 314.754 213.121 314.905 213.686 314.12C214.544 312.923 213.182 310.81 215.362 310.428C215.856 310.337 216.441 310.669 216.451 311.172C216.451 311.454 216.3 311.706 216.26 311.987C216.169 312.691 216.896 313.345 216.724 314.029C216.542 314.754 215.573 314.885 214.988 315.357C213.081 316.917 215.745 318.255 217.168 318.094C217.925 318.003 218.662 317.742 219.419 317.661C220.317 317.56 221.417 317.641 221.911 316.876C222.466 316.011 221.709 314.794 222.143 313.868C222.426 313.265 223.163 312.923 223.324 312.279C223.536 311.424 222.668 310.337 223.324 309.754C223.455 309.633 223.637 309.563 223.728 309.412C223.96 308.989 223.284 308.657 222.81 308.718C222.335 308.778 221.689 308.829 221.548 308.376C221.689 308.004 222.113 307.812 222.507 307.802C222.9 307.792 223.284 307.923 223.677 308.004C224.505 308.185 225.413 308.134 226.1 307.652C227.2 306.877 227.29 305.096 226.372 304.11C225.413 303.084 223.819 303.094 222.678 303.788C221.78 304.332 220.115 306.444 218.975 305.489C218.419 305.016 218.904 303.859 219.237 303.356C219.742 302.601 220.741 302.219 221.619 302.179C222.85 302.129 224.041 302.571 225.252 302.742C225.726 302.813 226.291 302.793 226.564 302.41C226.786 302.088 226.705 301.636 226.473 301.324C226.241 301.012 225.898 300.801 225.555 300.61C224.889 300.227 224.233 299.845 223.566 299.463C224.051 298.799 225.03 298.547 225.767 298.899C226.291 299.151 226.645 299.372 227.2 299.543C227.755 299.714 228.411 299.674 228.855 299.292C229.067 299.111 229.218 298.859 229.47 298.728C229.874 298.507 230.389 298.698 230.762 298.97C231.136 299.241 231.428 299.624 231.842 299.845C232.054 299.956 232.306 300.056 232.367 300.288C232.488 300.72 231.852 300.901 231.459 301.113C231.014 301.354 230.782 301.917 230.903 302.4C231.035 302.883 231.519 303.255 232.024 303.245C232.609 303.245 233.104 302.803 233.679 302.692C234.284 302.581 234.95 302.853 235.505 302.591C236.262 302.239 236.313 301.193 236.252 300.358C236.151 299.101 235.95 297.652 234.86 297.008C234.567 296.837 234.234 296.737 233.941 296.566C233.174 296.123 232.74 295.087 233.124 294.282C233.507 293.477 234.749 293.206 235.344 293.859C235.869 294.433 235.778 295.439 236.394 295.912C237.423 296.716 239.038 295.177 240.188 295.821C240.935 296.244 240.945 297.28 241.238 298.085C241.773 299.543 243.63 300.368 245.073 299.765C245.759 299.483 246.496 298.93 247.152 299.282C247.404 299.412 247.566 299.664 247.778 299.855C248.565 300.569 249.786 300.408 250.825 300.207C250.936 300.187 251.047 300.197 251.148 300.187C250.502 299.181 249.846 298.175 249.201 297.159C249.079 296.968 248.948 296.757 248.928 296.535L248.948 296.525Z" fill="#DADADA" stroke="black" stroke-width="0.75" stroke-linecap="round" stroke-linejoin="round"/>
<path d="M300.711 218.782C300.59 218.491 300.408 218.179 300.095 218.118C299.793 218.058 299.51 218.289 299.288 218.501C297.865 219.869 296.604 221.408 295.564 223.078C295.13 223.772 294.706 224.516 294.06 225.019C293.404 225.522 292.436 225.724 291.759 225.261C291.184 224.859 290.982 224.114 290.71 223.46C290.437 222.806 289.902 222.132 289.196 222.183C288.964 222.203 288.732 222.303 288.51 222.233C288.207 222.142 288.056 221.78 288.066 221.468C288.116 220.503 289.135 219.939 289.943 219.416C291.386 218.491 291.8 216.63 290.791 215.211C290.276 214.487 289.458 213.974 289.145 213.149C288.853 212.384 289.065 211.519 288.994 210.704C288.893 209.527 288.227 208.481 287.914 207.344C287.581 206.107 287.682 204.789 287.793 203.512C287.934 201.832 288.086 200.152 288.227 198.472C288.358 196.882 288.55 195.182 289.6 193.985C289.983 193.542 290.478 193.19 290.861 192.747C291.547 191.953 291.85 190.917 292.062 189.89C292.526 187.547 292.526 185.132 292.516 182.738C292.516 181.722 292.516 180.686 292.183 179.72C291.83 178.674 291.113 177.789 290.69 176.772C290.266 175.756 290.195 174.449 290.982 173.684C291.103 172.306 291.103 171.159 291.961 170.073C292.547 169.338 293.394 168.845 293.949 168.091C294.787 166.954 294.797 165.425 294.747 164.017C294.666 161.864 294.494 159.661 293.536 157.729C293.001 156.673 292.244 155.727 291.81 154.631C291.477 153.786 291.335 152.88 291.204 151.975C290.871 149.752 290.538 147.518 290.518 145.265C290.498 142.78 290.629 140.316 290.78 137.841C290.811 137.388 290.831 136.925 290.69 136.503C290.518 135.99 290.084 135.748 289.69 135.447C288.732 134.712 288.015 133.998 287.672 132.841C287.43 132.036 287.4 131.171 286.996 130.437C286.794 130.075 286.511 129.763 286.269 129.421C283.887 130.236 281.808 131.936 280.658 134.169C279.79 135.859 279.033 138.112 277.136 138.314C274.36 138.605 273.16 134.068 270.374 133.907C268.719 133.807 267.437 135.326 265.843 135.799C263.229 136.573 260.302 134.4 257.799 135.497C256.306 136.151 254.61 137.841 253.45 136.694C252.925 136.181 252.955 135.356 252.834 134.632C252.501 132.66 250.694 131.04 248.706 130.92C247.818 130.859 246.809 131.161 246.425 131.956C246.092 132.64 246.314 133.455 246.425 134.209C246.708 136.211 246.032 138.324 244.639 139.803C243.428 140.175 242.136 139.44 241.228 138.565C240.471 137.831 239.805 136.976 238.957 136.362C238.432 136.925 237.807 137.368 237.08 137.63C235.496 138.183 233.296 138.203 232.771 139.803C232.619 140.265 232.67 140.758 232.599 141.241C232.317 143.414 230.016 144.651 227.987 145.506C225.959 146.362 223.637 147.498 223.234 149.651C222.79 151.975 224.808 154.691 223.345 156.552C222.961 157.045 222.386 157.347 221.821 157.608C220.307 158.293 218.682 158.735 217.037 158.886C216.613 158.926 216.149 158.936 215.806 158.695C215.392 158.403 215.281 157.86 215.13 157.387C214.635 155.838 213.313 154.53 211.718 154.238C208.953 153.735 207.611 156.743 205.017 157.246C204.079 157.427 203.11 157.126 202.151 157.116C201.021 157.116 197.61 158.122 196.853 159.007C195.763 160.284 196.358 163.675 197.509 164.721C197.993 165.163 198.7 165.747 198.336 166.28C197.862 166.984 196.923 165.988 196.177 165.576C195.319 165.103 194.269 165.536 193.32 165.797C192.372 166.049 191.06 165.908 190.818 164.962C190.767 166.642 189.183 168.111 187.497 168.061C187.033 168.041 186.559 167.93 186.135 168.101C184.772 168.634 185.62 170.817 184.863 172.064C184.288 173.02 182.986 173.131 181.886 173.362C180.796 173.594 179.535 174.429 179.817 175.505C180.191 176.923 182.522 176.571 183.46 177.708C183.925 178.281 183.965 179.157 184.56 179.589C184.974 179.901 185.55 179.891 186.004 180.153C187.033 180.756 186.831 182.275 186.539 183.432C185.661 186.893 185.176 190.464 185.105 194.035C185.085 195.041 185.095 196.087 184.702 197.023C184.248 198.099 183.279 198.934 182.966 200.071C182.643 201.198 183.642 202.757 184.702 202.264C185.126 202.063 185.368 201.62 185.741 201.329C186.397 200.815 187.376 200.916 188.093 201.329C188.819 201.741 189.354 202.405 189.879 203.049C190.374 203.642 190.999 204.266 191.766 204.206C192.584 204.145 193.179 203.31 193.997 203.23C195.036 203.129 195.753 204.236 196.066 205.222C196.378 206.208 196.641 207.375 197.569 207.847C197.145 208.753 196.076 209.306 195.087 209.135C194.511 209.034 193.865 208.723 193.381 209.054C192.826 209.437 193.008 210.282 193.169 210.936C193.371 211.73 193.452 212.585 193.209 213.37C192.927 214.306 192.21 215.06 191.817 215.956C191.383 216.951 191.353 218.068 191.07 219.124C190.787 220.181 190.091 221.247 189.021 221.438C188.577 221.509 188.113 221.428 187.679 221.569C187.295 221.7 186.993 222.002 186.72 222.293C186.014 223.048 185.368 223.842 184.762 224.687C185.449 225.311 186.084 225.985 186.498 226.81C187.154 228.088 187.195 229.788 186.195 230.824C185.691 231.347 184.934 231.699 184.682 232.383C184.46 232.977 184.682 233.651 184.752 234.285C185.499 234.476 186.195 234.888 186.69 235.472C186.942 235.763 187.164 236.115 187.507 236.276C188.527 236.749 189.617 235.351 190.717 235.592C191.726 235.814 191.918 237.142 192.422 238.037C193.573 240.089 196.6 239.968 198.821 239.154C199.467 238.912 200.284 238.671 200.789 239.154C201.636 239.978 200.435 241.829 201.435 242.453C201.929 242.765 202.625 242.453 203.15 242.725C203.453 242.886 203.635 243.198 203.806 243.499C205.502 246.638 207.258 250.229 206.138 253.62C208.933 256.275 214.12 253.348 217.229 255.632C217.945 256.155 218.561 256.959 219.449 257.03C220.721 257.12 221.498 255.692 222.588 255.018C224.031 254.123 226.998 254.143 228.633 254.163C231.55 254.193 232.357 257.473 233.76 259.776C236.949 258.71 240.562 258.981 243.549 260.501C244.286 260.873 245.073 261.336 245.891 261.164C247.132 260.903 247.697 259.324 248.908 258.951C249.766 258.68 250.745 259.102 251.582 258.78C252.854 258.297 253.076 256.497 254.217 255.752C255.851 254.686 257.89 256.406 259.838 256.487C260.544 256.517 261.251 256.316 261.957 256.416C262.3 256.467 262.623 256.597 262.916 256.788C263.552 256.125 264.369 255.642 265.278 255.461C265.712 255.38 266.186 255.34 266.539 255.078C267.346 254.465 266.963 253.217 267.023 252.211C267.104 250.692 268.376 249.435 269.809 248.912C271.242 248.378 272.816 248.429 274.34 248.499C276.48 248.6 279.084 249.052 279.78 251.064C280.022 251.769 279.982 252.573 280.406 253.187C280.961 254.002 282.131 254.153 283.09 253.921C284.049 253.69 284.917 253.157 285.866 252.875C287.198 252.483 288.621 252.583 289.983 252.825C291.013 253.006 292.022 253.278 293.011 253.599C293.122 253.348 293.233 253.096 293.344 252.835C293.98 251.376 294.414 249.827 294.837 248.288C295.715 245.129 296.604 241.97 297.482 238.812C297.895 237.343 298.309 235.824 298.168 234.305C298.107 233.691 297.966 233.077 298.006 232.454C298.117 230.653 299.752 229.204 299.813 227.404C299.833 226.911 299.742 226.357 300.065 225.985C300.257 225.764 300.55 225.663 300.782 225.472C301.206 225.13 301.357 224.547 301.438 224.003C301.69 222.253 301.438 220.432 300.751 218.813L300.711 218.782Z" fill="white" stroke="black" stroke-width="0.75" stroke-linecap="round" stroke-linejoin="round"/>
<path d="M280.083 276.013C279.235 275.319 278.054 275.319 276.954 275.148C276.914 275.359 276.853 275.561 276.772 275.752C276.096 277.381 274.239 278.367 272.473 278.236C272.009 278.206 271.525 278.106 271.091 278.257C269.647 278.77 270.263 280.902 269.9 282.391C269.143 285.5 264.157 285.127 262.29 287.723C261.836 288.357 261.604 289.121 261.099 289.725C260.161 290.851 258.506 291.093 257.052 290.882C256.195 290.751 255.226 290.519 254.509 291.002C253.026 291.998 253.974 294.996 252.299 295.62C251.683 295.851 251.017 295.6 250.361 295.559C249.705 295.519 248.888 295.881 248.938 296.535C248.958 296.767 249.09 296.968 249.211 297.159C249.857 298.165 250.513 299.171 251.159 300.187C251.915 300.147 252.551 300.459 253.187 300.962C253.914 300.65 253.298 299.191 254.025 298.889C254.408 298.728 254.832 299.101 254.953 299.503C255.074 299.905 255.004 300.338 255.064 300.75C255.135 301.163 255.417 301.605 255.841 301.595C256.608 301.575 256.628 300.257 257.345 299.986C257.87 299.785 258.415 300.288 258.576 300.821C258.738 301.354 258.657 301.937 258.788 302.481C259.02 303.406 259.919 304.12 260.877 304.13C261.836 304.151 262.754 303.467 263.017 302.551C263.219 301.827 263.209 300.821 263.935 300.63C264.531 300.479 265.015 301.082 265.358 301.585C265.691 302.098 266.246 302.662 266.811 302.44C267.427 302.199 267.356 301.253 266.933 300.75C266.509 300.247 265.863 299.936 265.499 299.382C265.136 298.829 265.308 297.843 265.974 297.823C266.337 297.813 266.63 298.085 266.892 298.336C267.548 298.94 268.345 299.473 269.234 299.463C270.122 299.463 271.04 298.698 270.919 297.823C270.879 297.491 270.697 297.119 270.879 296.837C271.01 296.636 271.262 296.555 271.504 296.485C272.968 296.042 273.159 294.775 274.522 294.262C275.249 293.99 276.036 293.879 276.682 293.457C277.772 292.753 278.195 291.405 278.539 290.167C279.154 287.944 279.78 285.651 279.558 283.347C279.517 282.944 279.457 282.542 279.538 282.14C279.629 281.747 279.911 281.365 280.315 281.305C280.587 281.264 280.85 281.375 281.122 281.435C281.183 281.446 281.243 281.435 281.304 281.446C281.223 280.862 281.213 280.248 281.213 279.665C281.213 278.347 281.082 276.858 280.062 276.023L280.083 276.013Z" fill="#6E6E6E" stroke="black" stroke-width="0.75" stroke-linecap="round" stroke-linejoin="round"/>
<path d="M293.667 257.262C293.505 257.111 293.314 257 293.142 256.859C292.597 256.376 292.446 255.572 292.567 254.847C292.637 254.405 292.799 253.982 292.981 253.56C291.992 253.238 290.982 252.966 289.953 252.785C288.59 252.544 287.157 252.443 285.835 252.835C284.887 253.117 284.019 253.65 283.06 253.881C282.101 254.113 280.931 253.962 280.375 253.147C279.962 252.533 279.992 251.729 279.75 251.024C279.053 249.013 276.44 248.55 274.31 248.459C272.786 248.389 271.212 248.339 269.779 248.872C268.346 249.405 267.074 250.652 266.993 252.171C266.943 253.177 267.316 254.425 266.509 255.038C266.156 255.31 265.681 255.34 265.247 255.421C264.339 255.602 263.532 256.085 262.886 256.749C263.592 257.201 264.107 257.986 264.228 258.821C264.39 260.008 263.855 261.225 262.977 262.04C262.704 262.292 262.391 262.533 262.29 262.895C262.149 263.408 262.522 263.911 262.926 264.253C265.066 266.114 268.457 266.104 270.404 268.156C271.171 268.961 271.676 270.058 272.655 270.571C273.392 270.963 274.29 270.963 275.057 271.285C276.5 271.879 277.247 273.609 276.944 275.128C278.044 275.309 279.225 275.309 280.073 275.993C281.092 276.828 281.223 278.317 281.223 279.635C281.223 280.218 281.223 280.832 281.314 281.415C282.142 281.526 283.03 281.154 283.484 280.46C283.867 279.876 284.019 279.081 284.644 278.77C285.038 278.578 285.502 278.639 285.906 278.478C286.451 278.256 286.754 277.643 286.804 277.059C286.855 276.476 286.703 275.892 286.582 275.309C286.31 273.921 286.269 272.482 286.451 271.084C286.491 270.802 286.542 270.5 286.723 270.269C286.905 270.028 287.208 269.907 287.44 269.726C288.389 269.001 288.308 267.583 288.136 266.406C288.106 266.215 288.086 266.014 288.167 265.833C288.368 265.43 289.055 265.561 289.277 265.953C289.499 266.346 289.418 266.839 289.347 267.291C289.267 267.744 289.216 268.237 289.479 268.609C289.913 269.233 290.972 269.032 291.426 268.418C291.881 267.804 291.901 266.989 291.901 266.225C291.901 264.565 292.426 263.499 292.668 261.859C292.769 261.185 292.748 260.44 293.152 259.887C293.354 259.616 293.647 259.414 293.849 259.133C294.252 258.569 294.161 257.724 293.657 257.252L293.667 257.262Z" fill="#B4B2B2" stroke="black" stroke-width="0.75" stroke-linecap="round" stroke-linejoin="round"/>
<path d="M113.683 91.6461C113.28 91.6058 112.876 91.5354 112.472 91.6159C110.918 91.9177 110.615 94.1309 111.352 95.5292C112.089 96.9275 113.441 97.9335 114.148 99.3419C114.531 100.106 114.703 100.961 115.137 101.696C116.015 103.175 117.73 103.889 119.345 104.513C120.475 104.945 121.878 105.348 122.786 104.553C123.553 103.889 123.715 102.561 124.684 102.269C125.996 101.867 126.773 103.708 127.954 104.402C128.589 104.774 129.367 104.794 130.083 104.664C131.708 104.372 133.101 103.406 134.453 102.46C134.958 102.098 135.472 101.736 135.896 101.283C136.936 100.157 137.309 98.4667 136.845 97.008C136.381 95.5493 135.089 94.3924 133.595 94.0705C132.808 93.8995 131.809 93.819 131.557 93.0545C131.445 92.7325 131.536 92.3804 131.607 92.0485C131.9 90.7306 131.668 89.3323 131.415 88.0346C131.244 87.1996 131.435 85.2581 131.123 84.5941C130.234 82.7431 126.833 83.3366 125.441 84.3225C123.372 85.7912 122.786 88.6181 120.546 90.0264C118.528 91.294 116.075 91.9177 113.693 91.6662L113.683 91.6461Z" fill="#DADADA" stroke="black" stroke-width="0.75" stroke-linecap="round" stroke-linejoin="round"/>
<path d="M232.72 226.64C232.074 226.992 231.418 227.344 230.772 227.696C230.187 228.018 229.561 228.37 229.269 228.973C228.673 230.191 229.612 231.981 228.562 232.846C227.704 233.551 226.433 232.836 225.635 232.062C224.838 231.287 223.839 230.362 222.789 230.714C222.305 230.875 221.952 231.277 221.639 231.679C220.953 232.565 220.367 233.591 220.297 234.708C220.226 235.824 220.811 237.041 221.871 237.414C222.911 237.786 224.313 237.383 224.969 238.269C225.666 239.204 224.677 240.502 223.617 240.995C222.557 241.488 221.255 241.739 220.67 242.745C219.388 244.918 222.769 247.936 221.255 249.958C220.317 249.083 218.642 249.998 218.349 251.246C218.056 252.493 218.652 253.751 219.237 254.888C219.439 255.27 219.651 255.672 220.014 255.914C220.428 256.195 220.963 256.215 221.457 256.226C223.9 256.286 226.725 256.165 228.199 254.224C228.946 253.248 229.178 251.99 229.42 250.783C229.662 249.576 229.975 248.318 230.833 247.433C231.681 246.548 233.245 246.226 234.133 247.071C234.395 247.323 234.577 247.644 234.809 247.926C235.536 248.801 236.838 249.143 237.897 248.751C238.967 248.359 239.724 247.262 239.724 246.125C241.046 246.105 242.641 245.502 242.772 244.184C242.832 243.621 242.59 243.077 242.52 242.524C242.409 241.649 242.721 240.784 243.034 239.959C243.731 238.078 244.427 236.206 245.123 234.325C245.517 233.259 245.911 232.022 245.366 231.016C244.881 230.12 243.811 229.728 243.024 229.074C241.551 227.827 241.985 225.583 240.148 224.768C237.877 223.772 234.628 225.573 232.7 226.629L232.72 226.64Z" fill="#B4B2B2" stroke="black" stroke-width="0.75" stroke-linecap="round" stroke-linejoin="round"/>
<path d="M115.752 287.431C114.218 287.914 113.078 289.443 111.473 289.554C110.111 289.644 108.9 288.668 107.547 288.497C106.265 288.346 104.984 288.95 104.045 289.825C103.107 290.7 102.43 291.827 101.774 292.934C101.28 293.769 100.775 294.634 100.654 295.59C100.533 296.545 100.886 297.642 101.744 298.094C102.733 298.618 103.944 298.135 105.064 298.145C106.588 298.165 108.042 299.241 108.496 300.69C108.698 301.344 108.738 302.068 109.152 302.611C109.808 303.456 111.13 303.426 112.099 302.994C113.068 302.561 113.885 301.807 114.864 301.374C117.296 300.308 120.183 301.404 122.756 300.72C125.128 300.096 124.714 298.487 124.926 296.525C125.037 295.429 125.592 293.95 124.785 293.054C124.28 292.491 122.948 292.843 122.292 291.706C120.97 289.413 119.012 286.385 115.732 287.421L115.752 287.431Z" fill="#DADADA" stroke="black" stroke-width="0.75" stroke-linecap="round" stroke-linejoin="round"/>
<path d="M109.969 104.049C110.171 103.405 110.382 102.721 110.251 102.057C110.019 100.88 108.808 100.126 108.374 98.999C107.95 97.9226 108.303 96.7154 108.515 95.5686C108.727 94.4318 108.697 93.0637 107.789 92.3393C107.415 92.0476 106.941 91.9068 106.477 91.8162C104.287 91.3937 101.935 91.9571 100.179 93.3252C99.3416 93.9791 98.6352 94.804 97.7572 95.3875C97.3938 95.6289 96.9801 95.82 96.5663 95.9307C96.9296 98.3451 96.7177 100.91 96.7681 103.385C96.7681 103.777 96.7984 104.19 96.9801 104.532C97.5654 105.659 99.6242 105.88 99.5031 107.137C99.4728 107.5 99.2407 107.811 99.059 108.133C98.6856 108.807 98.5746 109.672 98.9581 110.346C99.3416 111.02 100.3 111.363 100.946 110.93C101.39 110.638 101.602 110.075 102.067 109.813C102.541 109.542 103.146 109.672 103.671 109.813C104.065 109.914 104.509 110.075 104.801 110.336C105.437 110.095 106.083 109.874 106.658 109.522C108.536 108.385 109.323 106.111 109.989 104.029L109.969 104.049Z" fill="#B4B2B2" stroke="black" stroke-width="0.75" stroke-linecap="round" stroke-linejoin="round"/>
</svg>
