<svg width="24" height="24" viewBox="0 0 24 24" fill="none" xmlns="http://www.w3.org/2000/svg">
<path d="M20 20L15.4286 15.4286M10.8571 17.7143C9.95665 17.7143 9.06497 17.5369 8.23303 17.1923C7.40108 16.8477 6.64516 16.3426 6.00841 15.7059C5.37167 15.0691 4.86657 14.3132 4.52197 13.4813C4.17737 12.6493 4 11.7576 4 10.8571C4 9.95665 4.17737 9.06497 4.52197 8.23303C4.86657 7.40108 5.37167 6.64516 6.00841 6.00841C6.64516 5.37167 7.40108 4.86657 8.23303 4.52197C9.06497 4.17737 9.95665 4 10.8571 4C12.6758 4 14.4199 4.72245 15.7059 6.00841C16.9918 7.29437 17.7143 9.03852 17.7143 10.8571C17.7143 12.6758 16.9918 14.4199 15.7059 15.7059C14.4199 16.9918 12.6758 17.7143 10.8571 17.7143Z" stroke="#333333" stroke-width="1.5"/>
</svg>
